<?xml version="1.0" encoding="utf-8"?>
<!-- Generator: Adobe Illustrator 19.0.0, SVG Export Plug-In . SVG Version: 6.00 Build 0)  -->
<svg version="1.1" id="Layer_1" xmlns="http://www.w3.org/2000/svg" xmlns:xlink="http://www.w3.org/1999/xlink" x="0px" y="0px"
	 viewBox="-260 345.4 90.1 102.6" style="enable-background:new -260 345.4 90.1 102.6;" xml:space="preserve">
<style type="text/css">
	.st0{fill:#FF7949;}
</style>
<g>
	<path class="st0" d="M-173.4,358.2h-9.3v-9.3c0-1.9-1.6-3.5-3.5-3.5c-1.9,0-3.5,1.6-3.5,3.5v9.3h-9.3c-1.9,0-3.5,1.6-3.5,3.5
		c0,1.9,1.6,3.5,3.5,3.5h9.3v9.3c0,1.9,1.6,3.5,3.5,3.5c1.9,0,3.5-1.6,3.5-3.5v-9.3h9.3c1.9,0,3.5-1.6,3.5-3.5
		C-169.9,359.7-171.4,358.2-173.4,358.2z"/>
	<path class="st0" d="M-209.4,411.9L-209.4,411.9l-2.7,0c-3.7,1.7-7.7,2.6-11.8,2.6c-4.1,0-8.1-0.9-11.8-2.6h-2.7
		c-12,0-21.7,9.7-21.7,21.7v6.7c0,4.3,3.5,7.7,7.7,7.7h56.7c4.3,0,7.7-3.5,7.7-7.7v-6.7C-187.8,421.6-197.5,411.9-209.4,411.9z"/>
	<path class="st0" d="M-223.9,406.7C-223.9,406.7-223.9,406.7-223.9,406.7L-223.9,406.7c11.4,0,20.6-9.2,20.6-20.6c0,0,0,0,0,0
		c0-11.4-9.2-20.6-20.6-20.6c0,0,0,0,0,0c-11.4,0-20.6,9.2-20.6,20.6c0,0,0,0,0,0C-244.5,397.5-235.3,406.7-223.9,406.7z"/>
</g>
</svg>
