<?xml version="1.0" encoding="utf-8"?>
<!-- Generator: Adobe Illustrator 19.0.0, SVG Export Plug-In . SVG Version: 6.00 Build 0)  -->
<svg version="1.1" id="Layer_1" xmlns="http://www.w3.org/2000/svg" xmlns:xlink="http://www.w3.org/1999/xlink" x="0px" y="0px"
	 viewBox="-151 353 496 496" style="enable-background:new -151 353 496 496;" xml:space="preserve">
<style type="text/css">
	.st0{fill:#8e99ad;}
</style>
<path class="st0" d="M302.2,688.8L202,666.6v-15.9c15.2-10,27.2-24.5,33.9-41.7H258c17.6,0,32-14.4,32-32v-56c0-11.8-6.5-22-16-27.6
	v-35c0-17.4-10.4-33-26.2-39.7l-1.9-3.8c-19.1-38.1-57.4-61.8-100-61.8C84.2,353.2,34,403.3,34,465v28.4c-9.5,5.6-16,15.8-16,27.6
	v56c0,17.6,14.4,32,32,32h22.1c6.7,17.2,18.7,31.7,33.9,41.7v15.9L5.8,688.8C-20,694.6-38,717.1-38,743.5V849h384V743.5
	C346,717.1,328,694.6,302.2,688.8z M208.9,684.5L197,732l-30.4-20.3l30-30L208.9,684.5z M144.6,769h18.9l12.8,64h-44.5L144.6,769z
	 M163.8,753h-19.5l-5.1-20.5l14.9-9.9l14.9,9.9L163.8,753z M274,577c0,8.8-7.2,16-16,16h-17.5c1-5.2,1.5-10.5,1.5-16v-72h16
	c8.8,0,16,7.2,16,16V577z M50,465c0-52.8,43-95.8,95.8-95.8c36.5,0,69.4,20.3,85.7,53l4.8,9.6l3.1,1.1c11.1,3.7,18.5,14,18.5,25.7
	V489h-16v-24h-16v18.9c-6,3.1-12.5,4.8-19.2,5c3.7-3.4,7-7.2,9.8-11.4l-13.3-8.9c-8.2,12.3-21.8,19.8-36.5,20.3
	c3.7-3.4,7-7.2,9.9-11.5l-13.3-8.9c-8.2,12.3-21.8,19.8-36.5,20.3c3.7-3.4,7-7.2,9.9-11.5l-13.3-8.9c-8.5,12.8-22.8,20.4-38.2,20.4
	H82v-24H66v24H50V465z M50,593c-8.8,0-16-7.2-16-16v-56c0-8.8,7.2-16,16-16h16v72c0,5.5,0.6,10.8,1.5,16H50z M82,577v-72h3.2
	c10.2,0,20.1-2.5,28.8-7.1v7.1h11.2c10.2,0,20.1-2.5,28.8-7.1v7.1h11.2c10.2,0,20.1-2.5,28.8-7.1v7.1h11.2c7.2,0,14.2-1.4,20.8-3.8
	V577c0,5.5-0.7,10.8-1.9,16h-39.6c-3.3-9.3-12.1-16-22.5-16h-16c-13.2,0-24,10.8-24,24s10.8,24,24,24h16c10.4,0,19.2-6.7,22.5-16
	h33.9c-11.8,23.7-36.2,40-64.4,40C114.3,649,82,616.7,82,577z M170,601c0,4.4-3.6,8-8,8h-16c-4.4,0-8-3.6-8-8s3.6-8,8-8h16
	C166.4,593,170,596.6,170,601z M154,665c11.3,0,22.1-2.2,32-6.1v10.8l-32,32l-32-32v-10.8C131.9,662.8,142.7,665,154,665z
	 M111.4,681.8l30,30L111,732l-11.9-47.5L111.4,681.8z M-22,743.5c0-18.9,12.9-35,31.3-39L83.5,688l17.5,70l24-16l4.8,19.2L115.4,833
	H42v-88H26v88h-48V743.5z M330,833h-48v-88h-16v88h-73.4l-14.4-71.8L183,742l24,16l17.5-70l74.2,16.5c18.4,4.1,31.3,20.2,31.3,39
	V833z"/>
<path class="st0" d="M210,529c0,4.4-3.6,8-8,8s-8-3.6-8-8s3.6-8,8-8S210,524.6,210,529z"/>
<path class="st0" d="M114,529c0,4.4-3.6,8-8,8s-8-3.6-8-8s3.6-8,8-8S114,524.6,114,529z"/>
<path class="st0" d="M-118,385h80v16h-80V385z"/>
<path class="st0" d="M-118,417h80v16h-80V417z"/>
<path class="st0" d="M-30,494.5V465h24V353h-144v112h66L-30,494.5z M-134,369h112v80h-24v18.5L-79.9,449H-134V369z"/>
<path class="st0" d="M18,649h-129.1l9.1-13.6V505c0-13.2-10.8-24-24-24s-24,10.8-24,24v130.4l19.7,29.6H18V649z M-126,497
	c4.4,0,8,3.6,8,8v16h-16v-16C-134,500.6-130.4,497-126,497z M-126,642.6l-8-12V537h16v93.6L-126,642.6z"/>
<path class="st0" d="M2,617h16v16H2V617z"/>
<path class="st0" d="M-86,617h72v16h-72V617z"/>
<path class="st0" d="M-86,585h72v16h-72V585z"/>
<path class="st0" d="M-30,553h16v16h-16V553z"/>
<path class="st0" d="M-86,553h40v16h-40V553z"/>
</svg>
