<?xml version="1.0" encoding="utf-8"?>
<!-- Generator: Adobe Illustrator 19.0.0, SVG Export Plug-In . SVG Version: 6.00 Build 0)  -->
<svg version="1.1" id="Layer_1" xmlns="http://www.w3.org/2000/svg" xmlns:xlink="http://www.w3.org/1999/xlink" x="0px" y="0px"
	 viewBox="-143 345 512 512" style="enable-background:new -143 345 512 512;" xml:space="preserve">
<style type="text/css">
	.st0{fill:#010101;}
</style>
<path class="st0" d="M361.5,729.5h-20v-43h5c12.4,0,22.5-10.1,22.5-22.5s-10.1-22.5-22.5-22.5h-96.6v-24h6.9c4.1,0,7.5-3.4,7.5-7.5
	c0-4.1-3.4-7.5-7.5-7.5h-6.9v-73.1c0-12.4-10.1-22.5-22.5-22.5s-22.5,10.1-22.5,22.5v73.1h-64.4c-3.6,0-6.5-2.9-6.5-6.5V480
	c0-3.6,2.9-6.5,6.5-6.5h170c3.6,0,6.5,2.9,6.5,6.5v116c0,3.6-2.9,6.5-6.5,6.5H289c-4.1,0-7.5,3.4-7.5,7.5c0,4.1,3.4,7.5,7.5,7.5
	h21.5c11.9,0,21.5-9.6,21.5-21.5V480c0-11.9-9.6-21.5-21.5-21.5H250v-20.1h42.4c6.3,0,11.5-5.2,11.5-11.5v-42
	c0-6.3-5.2-11.5-11.5-11.5h-130c-6.3,0-11.5,5.2-11.5,11.5v42c0,6.3,5.2,11.5,11.5,11.5h42.4v20.1h-64.2c-11.9,0-21.5,9.6-21.5,21.5
	v116c0,11.9,9.6,21.5,21.5,21.5h64.4v24H91.5v-41.3c0-35.3-21.7-65.9-52.6-78.7c15.2-8.6,26.8-23,31.5-40.3c0.1,0,0.2,0,0.4,0
	c17.1,0,31-15,31-33.5c0-15.4-9.8-28.5-23.1-32.4c-0.1-4.3-0.6-7.7-0.9-9.1c0-2.9-0.3-12.1-4.1-21.8c-6.3-15.9-18.7-25.5-35.9-27.7
	c-0.9-0.1-1.7-0.5-2.4-1.1c-6.9-5.9-21.7-11.8-53.1-6.6c-18.7,3.1-32.9,14.1-41.1,31.9c-4.8,10.4-7,22.9-7.4,34.4
	c-13.2,3.8-23.1,17-23.1,32.4c0,18.5,13.9,33.5,31,33.5c0.1,0,0.2,0,0.4,0c4.7,17.2,16.3,31.7,31.5,40.3
	C-57.4,534.4-79,565.1-79,600.2v41.3h-41.5c-12.4,0-22.5,10.1-22.5,22.5s10.1,22.5,22.5,22.5h5v4.5c0,4.1,3.4,7.5,7.5,7.5
	s7.5-3.4,7.5-7.5v-4.5h427v43h-427v-6.7c0-4.1-3.4-7.5-7.5-7.5s-7.5,3.4-7.5,7.5v6.7h-20c-4.1,0-7.5,3.4-7.5,7.5v30
	c0,4.1,3.4,7.5,7.5,7.5h20v77c0,4.1,3.4,7.5,7.5,7.5h381c4.1,0,7.5-3.4,7.5-7.5s-3.4-7.5-7.5-7.5h-373.5v-69.5h427V844h-21.8
	c-4.1,0-7.5,3.4-7.5,7.5s3.4,7.5,7.5,7.5H334c4.1,0,7.5-3.4,7.5-7.5v-77h20c4.1,0,7.5-3.4,7.5-7.5v-30
	C369,732.9,365.6,729.5,361.5,729.5z M165.9,388.4h123v35h-123V388.4z M219.7,438.4H235v20.1h-15.2V438.4z M219.9,529.4
	c0-4.1,3.4-7.5,7.5-7.5c4.1,0,7.5,3.4,7.5,7.5v80.5c0,0,0,0.1,0,0.1c0,0,0,0.1,0,0.1v30.8h-15V529.4z M39,538.1
	c-9.2,7.6-20.7,11.8-32.8,11.8c-12.1,0-23.6-4.2-32.8-11.8C-5.6,527.1,18.9,527.5,39,538.1z M86.8,447.7c0,9.4-6.1,17.2-14.1,18.3
	c0.1-3.3,0-0.6,0.1-23.1c2.6-3,3.9-7.4,4.8-12C83,434,86.8,440.4,86.8,447.7z M-15.3,363.8c28.9-4.8,38.6,1.2,40.9,3.2
	c3,2.5,6.5,4.1,10.3,4.6c11.6,1.5,19.4,7.3,23.7,17.9c3.8,9.3,3,16.7,3.4,18.7c0,0.1,2.5,13.7-1.4,24.5c-3.8-3.4-7.2-11.9-9-22.4
	c-0.9-5-3.8-9.5-8.1-12.3c-4.3-2.9-7.8-6-10.5-9.4c-3-3.9-7.5-5.9-12-5.9c-3.2,0-6.4,1-9.2,3c-7.2,5.3-21.1,9.8-38.1,12.5
	c-7.7,1.2-13.9,7.1-15.4,14.7c-1.9,9.3-5,16.5-8.4,19.6c-1.3-3.6-1.9-7.4-2.1-11c0,0,0,0,0,0c0-0.1,0-0.2,0-0.4
	C-52.5,395.4-42.4,368.3-15.3,363.8z M-74.2,447.7c0-7.3,3.8-13.7,9.2-16.7c0.9,4.5,2.2,9,4.8,12c0,22.5-0.1,19.8,0.1,23.1
	C-68.1,465-74.2,457.2-74.2,447.7z M-45.2,463.6v-16.2c1.7-0.5,3.3-1.3,4.8-2.4c6.8-5.2,11.7-15,14.5-29c0.3-1.5,1.5-2.7,3.1-2.9
	c13.8-2.2,32.8-6.6,44.6-15.2c0.2-0.1,0.5-0.2,0.6,0c3.6,4.6,8.3,8.8,13.9,12.6c0.9,0.6,1.4,1.4,1.6,2.4c1.8,10.8,6,25.1,15.1,32.2
	c1.5,1.1,3.1,1.9,4.8,2.4v16.2C57.8,492,34.7,515,6.4,515H6.1C-22.2,515-45.2,492-45.2,463.6z M-64,600.2c0-21.3,9.6-40.5,24.7-53.4
	c12.3,11.6,28.5,18.1,45.6,18.1h0c17,0,33.3-6.5,45.6-18.1c15.1,12.9,24.7,32,24.7,53.4v41.3H-64V600.2z M-120.5,671.5
	c-4.1,0-7.5-3.4-7.5-7.5c0-4.1,3.4-7.5,7.5-7.5h467c4.1,0,7.5,3.4,7.5,7.5c0,4.1-3.4,7.5-7.5,7.5H-120.5z M354,759.5h-482v-15h482
	V759.5z"/>
<path class="st0" d="M50,581H16c-4.1,0-7.5,3.4-7.5,7.5c0,4.1,3.4,7.5,7.5,7.5h34c4.1,0,7.5-3.4,7.5-7.5C57.5,584.4,54.1,581,50,581
	z"/>
</svg>
