<?xml version="1.0" encoding="UTF-8"?>
<!DOCTYPE svg PUBLIC "-//W3C//DTD SVG 1.1//EN" "http://www.w3.org/Graphics/SVG/1.1/DTD/svg11.dtd">
<!-- Creator: CorelDRAW X7 -->
<svg xmlns="http://www.w3.org/2000/svg" xml:space="preserve" width="0.218705in" height="0.208331in" version="1.1" shape-rendering="geometricPrecision" text-rendering="geometricPrecision" image-rendering="optimizeQuality" fill-rule="evenodd" clip-rule="evenodd"
viewBox="0 0 62 59"
 xmlns:xlink="http://www.w3.org/1999/xlink">
 <g id="Layer_x0020_1">
  <metadata id="CorelCorpID_0Corel-Layer"/>
  <circle fill="none" cx="30" cy="30" r="30"/>
  <path fill="#FF7949" fill-rule="nonzero" d="M43 11c-4,-3 -8,-4 -13,-4 -7,0 -12,2 -17,6 -4,5 -6,10 -6,17 0,6 2,12 6,16 5,4 10,6 17,6 6,0 12,-2 16,-6 3,-4 6,-9 6,-15l7 -6c0,1 0,3 0,5 0,8 -3,15 -9,20 -5,6 -12,9 -20,9 -9,0 -16,-3 -21,-9 -6,-5 -9,-12 -9,-20 0,-9 3,-16 9,-21 5,-6 12,-9 21,-9 6,0 13,2 18,6l-5 5z"/>
  <path id="check-solid" fill="white" d="M32 40l-14 -15c-1,0 -1,-1 -1,-1 0,-1 0,-2 1,-2l3 -3c0,-1 1,-1 2,-1 0,0 1,0 1,1l10 10 21 -21c0,-1 1,-1 2,-1 0,0 1,0 1,1l3 3c1,0 1,1 1,1 0,1 0,1 -1,2l-25 26c-1,0 -1,0 -2,0 -1,0 -1,0 -2,0l0 0z"/>
  <path id="check-solid-2" fill="#FF7949" d="M32 40l-14 -15c-1,0 -1,-1 -1,-1 0,-1 0,-2 1,-2l3 -3c0,-1 1,-1 2,-1 0,0 1,0 1,1l10 10 21 -21c0,-1 1,-1 2,-1 0,0 1,0 1,1l3 3c1,0 1,1 1,1 0,1 0,1 -1,2l-25 26c-1,0 -1,0 -2,0 -1,0 -1,0 -2,0l0 0z" data-name="check-solid"/>
 </g>
</svg>
