<svg xmlns="http://www.w3.org/2000/svg" width="17.2" height="17.2" viewBox="0 0 17.2 17.2"><defs><style>.a{fill:none;stroke:#161616;}.b{fill:#161616;}</style></defs><g transform="translate(0.5 0.5)"><path class="a" d="M14.465,48.2H1.736A1.736,1.736,0,0,1,0,46.465V33.736A1.736,1.736,0,0,1,1.736,32H14.465A1.736,1.736,0,0,1,16.2,33.736V46.465A1.736,1.736,0,0,1,14.465,48.2Zm-7.4-3.546L13.717,38a.579.579,0,0,0,0-.818l-.818-.818a.579.579,0,0,0-.818,0L6.654,41.791,4.12,39.257a.579.579,0,0,0-.818,0l-.818.818a.579.579,0,0,0,0,.818l3.761,3.761a.579.579,0,0,0,.818,0Z" transform="translate(0 -32)"/><path class="b" d="M4427.32-17036.02l2.935,2.766,1.891-1.523,3.7-3.98,1.044.48.254.875-6.886,6.717-4.035-4.234Z" transform="translate(-4423.652 17043.225)"/></g></svg>