<?xml version="1.0" encoding="utf-8"?>
<!-- Generator: Adobe Illustrator 19.0.0, SVG Export Plug-In . SVG Version: 6.00 Build 0)  -->
<svg version="1.1" id="Layer_1" xmlns="http://www.w3.org/2000/svg" xmlns:xlink="http://www.w3.org/1999/xlink" x="0px" y="0px"
	 viewBox="-291 382 29 29" style="enable-background:new -291 382 29 29;" xml:space="preserve">
<style type="text/css">
	.st0{fill:#FF6633;}
</style>
<path id="check-square-solid" class="st0" d="M-265.1,411h-22.8c-1.7,0-3.1-1.4-3.1-3.1v-22.8c0-1.7,1.4-3.1,3.1-3.1h22.8
	c1.7,0,3.1,1.4,3.1,3.1v22.8C-262,409.6-263.4,411-265.1,411z M-278.4,404.7l11.9-11.9c0.4-0.4,0.4-1.1,0-1.5l-1.5-1.5
	c-0.4-0.4-1.1-0.4-1.5,0l-9.7,9.7l-4.5-4.5c-0.4-0.4-1.1-0.4-1.5,0l-1.5,1.5c-0.4,0.4-0.4,1.1,0,1.5l6.7,6.7
	C-279.4,405.1-278.8,405.1-278.4,404.7L-278.4,404.7z"/>
</svg>
