<?xml version="1.0" encoding="utf-8"?>
<!-- Generator: Adobe Illustrator 19.0.0, SVG Export Plug-In . SVG Version: 6.00 Build 0)  -->
<svg version="1.1" id="Layer_1" xmlns="http://www.w3.org/2000/svg" xmlns:xlink="http://www.w3.org/1999/xlink" x="0px" y="0px"
	 viewBox="-235.5 344.5 118.8 98" style="enable-background:new -235.5 344.5 118.8 98;" xml:space="preserve">
<style type="text/css">
	.st0{fill:#FF7949;}
	.st1{fill:#FFFFFF;}
	.st2{fill:none;stroke:#FFFFFF;stroke-width:0;stroke-linecap:round;stroke-linejoin:round;}
</style>
<g>
	<path class="st0" d="M-209.8,379.5c-10.3,10.3-10.3,27,0,37.3c10.3,10.3,27,10.3,37.3,0c5-4.9,7.7-11.7,7.7-18.7
		c0-7-2.8-13.7-7.7-18.6C-182.8,369.2-199.5,369.2-209.8,379.5z M-177.9,381.3c1.9,0,3.5,1.6,3.5,3.5s-1.6,3.5-3.5,3.5
		s-3.5-1.6-3.5-3.5S-179.9,381.3-177.9,381.3z M-191.2,375.8c1.9,0,3.5,1.6,3.5,3.5s-1.6,3.5-3.5,3.5c-1.9,0-3.5-1.6-3.5-3.5
		C-194.7,377.4-193.1,375.8-191.2,375.8z M-204.4,381.3c1.9,0,3.5,1.6,3.5,3.5s-1.6,3.5-3.5,3.5s-3.5-1.6-3.5-3.5
		S-206.3,381.3-204.4,381.3z M-209.9,401.5c-1.9,0-3.5-1.6-3.5-3.5s1.6-3.5,3.5-3.5s3.5,1.6,3.5,3.5S-207.9,401.5-209.9,401.5z
		 M-204.4,414.8c-1.9,0-3.5-1.6-3.5-3.5s1.6-3.5,3.5-3.5s3.5,1.6,3.5,3.5S-202.5,414.8-204.4,414.8z M-191.2,420.2
		c-1.9,0-3.5-1.6-3.5-3.5c0-1.9,1.6-3.5,3.5-3.5s3.5,1.6,3.5,3.5S-189.2,420.2-191.2,420.2z M-191.1,410.3
		c-6.7,0-12.1-5.4-12.1-12.1c0-4.9,2.9-9.3,7.5-11.2c1.5-0.6,3-0.9,4.6-0.9c6.7,0,12.1,5.4,12.1,12.1S-184.5,410.3-191.1,410.3z
		 M-177.9,414.8c-1.9,0-3.5-1.6-3.5-3.5s1.6-3.5,3.5-3.5s3.5,1.6,3.5,3.5S-176,414.8-177.9,414.8z M-169,398c0,1.9-1.6,3.5-3.5,3.5
		s-3.5-1.6-3.5-3.5s1.6-3.5,3.5-3.5S-169,396.1-169,398z"/>
	<path class="st0" d="M-198.3,354.4c-24.1,3.9-40.5,26.7-36.6,50.8s26.7,40.5,50.8,36.6s40.5-26.7,36.6-50.8
		S-174.1,350.5-198.3,354.4z M-191.1,431.2c-18.2,0-33-14.8-33-33c0-8.8,3.5-17.2,9.7-23.4c6.2-6.2,14.6-9.7,23.3-9.7
		c18.2,0,33,14.8,33,33C-158.1,416.4-172.9,431.2-191.1,431.2z"/>
	<path class="st1" d="M-191.2,365.2c-8.8,0-17.1,3.5-23.3,9.7c-6.2,6.2-9.7,14.6-9.7,23.4c0,18.2,14.8,33,33,33
		c18.2,0,33-14.8,33-33C-158.1,379.9-172.9,365.2-191.2,365.2z M-172.6,416.8c-10.3,10.3-27,10.3-37.3,0c-10.3-10.3-10.3-27,0-37.3
		c10.3-10.3,27-10.3,37.3,0c4.9,4.9,7.7,11.6,7.7,18.6C-164.8,405.2-167.6,411.9-172.6,416.8z"/>
	<line class="st2" x1="-187.4" y1="389.1" x2="-187.4" y2="389.1"/>
	<path class="st1" d="M-191.2,386.1c-1.6,0-3.2,0.3-4.6,0.9c-4.5,1.9-7.5,6.3-7.5,11.2c0,6.7,5.4,12.1,12.1,12.1
		c6.7,0,12.1-5.4,12.1-12.1S-184.5,386.1-191.2,386.1z M-187.4,389.1L-187.4,389.1L-187.4,389.1z"/>
	<path class="st1" d="M-191.2,382.8c1.9,0,3.5-1.6,3.5-3.5s-1.6-3.5-3.5-3.5s-3.5,1.6-3.5,3.5C-194.7,381.3-193.1,382.8-191.2,382.8
		z"/>
	<path class="st1" d="M-191.2,413.2c-1.9,0-3.5,1.6-3.5,3.5c0,1.9,1.6,3.5,3.5,3.5c1.9,0,3.5-1.6,3.5-3.5S-189.2,413.2-191.2,413.2z
		"/>
	<circle class="st1" cx="-172.5" cy="398" r="3.5"/>
	<circle class="st1" cx="-209.9" cy="398" r="3.5"/>
	<circle class="st1" cx="-204.4" cy="411.3" r="3.5"/>
	<circle class="st1" cx="-177.9" cy="384.8" r="3.5"/>
	<circle class="st1" cx="-177.9" cy="411.3" r="3.5"/>
	<circle class="st1" cx="-204.4" cy="384.8" r="3.5"/>
	<path class="st0" d="M-120.2,358.8h-25.5c-1.9,0-3.5,1.6-3.5,3.5c0,1.9,1.6,3.5,3.5,3.5h25.5c1.9,0,3.5-1.6,3.5-3.5
		C-116.7,360.4-118.3,358.8-120.2,358.8z"/>
	<path class="st0" d="M-145.7,351.5h25.5c1.9,0,3.5-1.6,3.5-3.5c0-1.9-1.6-3.5-3.5-3.5h-25.5c-1.9,0-3.5,1.6-3.5,3.5
		C-149.2,349.9-147.6,351.5-145.7,351.5z"/>
</g>
</svg>
