<?xml version="1.0" encoding="utf-8"?>
<!-- Generator: Adobe Illustrator 19.0.0, SVG Export Plug-In . SVG Version: 6.00 Build 0)  -->
<svg version="1.1" id="Layer_1" xmlns="http://www.w3.org/2000/svg" xmlns:xlink="http://www.w3.org/1999/xlink" x="0px" y="0px"
	 viewBox="-217.7 334.7 118.8 107" style="enable-background:new -217.7 334.7 118.8 107;" xml:space="preserve">
<style type="text/css">
	.st0{fill:#8E99AD;}
	.st1{fill:#FFFFFF;}
	.st2{fill:none;stroke:#FFFFFF;stroke-width:0;stroke-linecap:round;stroke-linejoin:round;}
</style>
<g>
	<path class="st0" d="M-192,378.7c-10.3,10.3-10.3,27,0,37.3c10.3,10.3,27,10.3,37.3,0c5-4.9,7.7-11.7,7.7-18.7
		c0-7-2.8-13.7-7.7-18.6C-165,368.4-181.7,368.4-192,378.7z M-160.1,380.5c1.9,0,3.5,1.6,3.5,3.5s-1.6,3.5-3.5,3.5s-3.5-1.6-3.5-3.5
		S-162.1,380.5-160.1,380.5z M-173.3,375c1.9,0,3.5,1.6,3.5,3.5s-1.6,3.5-3.5,3.5c-1.9,0-3.5-1.6-3.5-3.5
		C-176.8,376.6-175.3,375-173.3,375z M-186.6,380.5c1.9,0,3.5,1.6,3.5,3.5s-1.6,3.5-3.5,3.5s-3.5-1.6-3.5-3.5
		S-188.5,380.5-186.6,380.5z M-192.1,400.7c-1.9,0-3.5-1.6-3.5-3.5s1.6-3.5,3.5-3.5s3.5,1.6,3.5,3.5S-190.1,400.7-192.1,400.7z
		 M-186.6,414c-1.9,0-3.5-1.6-3.5-3.5s1.6-3.5,3.5-3.5s3.5,1.6,3.5,3.5S-184.6,414-186.6,414z M-173.3,419.4c-1.9,0-3.5-1.6-3.5-3.5
		c0-1.9,1.6-3.5,3.5-3.5s3.5,1.6,3.5,3.5S-171.4,419.4-173.3,419.4z M-173.3,409.5c-6.7,0-12.1-5.4-12.1-12.1
		c0-4.9,2.9-9.3,7.5-11.2c1.5-0.6,3-0.9,4.6-0.9c6.7,0,12.1,5.4,12.1,12.1C-161.2,404.1-166.6,409.5-173.3,409.5z M-160.1,414
		c-1.9,0-3.5-1.6-3.5-3.5s1.6-3.5,3.5-3.5s3.5,1.6,3.5,3.5S-158.2,414-160.1,414z M-151.1,397.2c0,1.9-1.6,3.5-3.5,3.5
		s-3.5-1.6-3.5-3.5s1.6-3.5,3.5-3.5S-151.1,395.3-151.1,397.2z"/>
	<path class="st0" d="M-204.7,366c-17.3,17.3-17.3,45.3,0,62.6c17.3,17.3,45.3,17.3,62.6,0c17.3-17.3,17.3-45.3,0-62.6
		C-159.3,348.7-187.4,348.7-204.7,366z M-173.3,430.4c-18.2,0-33-14.8-33-33c0-8.8,3.5-17.2,9.7-23.4c6.2-6.2,14.6-9.7,23.3-9.7
		c0,0,0,0,0,0h0c0,0,0,0,0,0c18.2,0,33,14.8,33,33C-140.3,415.6-155.1,430.4-173.3,430.4z"/>
	<path class="st1" d="M-173.3,364.4c-8.8,0-17.1,3.5-23.3,9.7c-6.2,6.2-9.7,14.6-9.7,23.4c0,18.2,14.8,33,33,33
		c18.2,0,33-14.8,33-33C-140.3,379.1-155.1,364.3-173.3,364.4z M-154.8,416c-10.3,10.3-27,10.3-37.3,0c-10.3-10.3-10.3-27,0-37.3
		c10.3-10.3,27-10.3,37.3,0c4.9,4.9,7.7,11.6,7.7,18.6C-147,404.3-149.8,411.1-154.8,416z"/>
	<polygon class="st1" points="-173.3,364.4 -173.3,364.4 -173.3,364.4 	"/>
	<line class="st2" x1="-169.6" y1="388.3" x2="-169.6" y2="388.3"/>
	<path class="st1" d="M-173.3,385.3c-1.6,0-3.2,0.3-4.6,0.9c-4.5,1.9-7.5,6.3-7.5,11.2c0,6.7,5.4,12.1,12.1,12.1
		c6.7,0,12.1-5.4,12.1-12.1C-161.2,390.7-166.7,385.3-173.3,385.3z M-169.6,388.3L-169.6,388.3L-169.6,388.3z"/>
	<circle class="st1" cx="-173.3" cy="378.5" r="3.5"/>
	<circle class="st1" cx="-173.3" cy="415.9" r="3.5"/>
	<circle class="st1" cx="-154.6" cy="397.2" r="3.5"/>
	<circle class="st1" cx="-192.1" cy="397.2" r="3.5"/>
	<circle class="st1" cx="-186.6" cy="410.5" r="3.5"/>
	<circle class="st1" cx="-160.1" cy="384" r="3.5"/>
	<circle class="st1" cx="-160.1" cy="410.5" r="3.5"/>
	<circle class="st1" cx="-186.6" cy="384" r="3.5"/>
	<path class="st0" d="M-102.4,358h-25.5c-1.9,0-3.5,1.6-3.5,3.5c0,1.9,1.6,3.5,3.5,3.5h25.5c1.9,0,3.5-1.6,3.5-3.5
		C-98.9,359.6-100.4,358-102.4,358z"/>
	<path class="st0" d="M-127.9,350.7h25.5c1.9,0,3.5-1.6,3.5-3.5c0-1.9-1.6-3.5-3.5-3.5h-25.5c-1.9,0-3.5,1.6-3.5,3.5
		C-131.4,349.1-129.8,350.7-127.9,350.7z"/>
</g>
</svg>
