<?xml version="1.0" encoding="utf-8"?>
<!-- Generator: Adobe Illustrator 19.0.0, SVG Export Plug-In . SVG Version: 6.00 Build 0)  -->
<svg version="1.1" id="Layer_1" xmlns="http://www.w3.org/2000/svg" xmlns:xlink="http://www.w3.org/1999/xlink" x="0px" y="0px"
	 viewBox="-216.7 334.7 122.2 107" style="enable-background:new -216.7 334.7 122.2 107;" xml:space="preserve">
<style type="text/css">
	.st0{fill:#8E99AD;}
	.st1{fill:#FFFFFF;}
</style>
<g>
	<path class="st0" d="M-153.7,378.7c-10.3-10.3-27-10.3-37.3,0c-10.3,10.3-10.3,27,0,37.3c10.3,10.3,27,10.3,37.3,0
		c5-4.9,7.7-11.7,7.7-18.7C-146,390.4-148.8,383.7-153.7,378.7L-153.7,378.7z M-159.1,380.5c1.9,0,3.5,1.6,3.5,3.5s-1.6,3.5-3.5,3.5
		s-3.5-1.6-3.5-3.5S-161.1,380.5-159.1,380.5z M-172.3,375c1.9,0,3.5,1.6,3.5,3.5s-1.6,3.5-3.5,3.5s-3.5-1.6-3.5-3.5
		S-174.3,375-172.3,375z M-185.6,380.5c1.9,0,3.5,1.6,3.5,3.5s-1.6,3.5-3.5,3.5s-3.5-1.6-3.5-3.5S-187.5,380.5-185.6,380.5z
		 M-191.1,400.7c-1.9,0-3.5-1.6-3.5-3.5s1.6-3.5,3.5-3.5s3.5,1.6,3.5,3.5S-189.1,400.7-191.1,400.7z M-185.6,414
		c-1.9,0-3.5-1.6-3.5-3.5s1.6-3.5,3.5-3.5s3.5,1.6,3.5,3.5S-183.6,414-185.6,414z M-172.3,419.4c-1.9,0-3.5-1.6-3.5-3.5
		s1.6-3.5,3.5-3.5s3.5,1.6,3.5,3.5S-170.4,419.4-172.3,419.4z M-172.3,409.5c-6.7,0-12.1-5.4-12.1-12.1c0-4.9,2.9-9.3,7.5-11.2
		c1.5-0.6,3-0.9,4.6-0.9c6.7,0,12.1,5.4,12.1,12.1C-160.2,404.1-165.6,409.5-172.3,409.5z M-159.1,414c-1.9,0-3.5-1.6-3.5-3.5
		s1.6-3.5,3.5-3.5s3.5,1.6,3.5,3.5S-157.2,414-159.1,414z M-153.6,393.7c1.9,0,3.5,1.6,3.5,3.5s-1.6,3.5-3.5,3.5s-3.5-1.6-3.5-3.5
		S-155.6,393.7-153.6,393.7z"/>
	<path class="st0" d="M-203.7,366c-17.3,17.3-17.3,45.3,0,62.6c17.3,17.3,45.3,17.3,62.6,0c17.3-17.3,17.3-45.3,0-62.6
		C-158.3,348.7-186.4,348.7-203.7,366z M-172.3,430.4c-18.2,0-33-14.8-33-33c0-8.8,3.5-17.2,9.7-23.4c6.2-6.2,14.6-9.7,23.3-9.7
		c18.2,0,33,14.8,33,33C-139.3,415.6-154.1,430.4-172.3,430.4z"/>
	<path class="st1" d="M-172.3,364.4c-8.8,0-17.1,3.5-23.3,9.7c-6.2,6.2-9.7,14.6-9.7,23.4c0,18.2,14.8,33,33,33
		c18.2,0,33-14.8,33-33C-139.3,379.1-154.1,364.3-172.3,364.4z M-153.8,416c-10.3,10.3-27,10.3-37.3,0c-10.3-10.3-10.3-27,0-37.3
		c10.3-10.3,27-10.3,37.3,0h0c4.9,4.9,7.7,11.6,7.7,18.6C-146,404.3-148.8,411.1-153.8,416z"/>
	<path class="st1" d="M-172.3,385.3c-1.6,0-3.2,0.3-4.6,0.9c-4.5,1.9-7.5,6.3-7.5,11.2c0,6.7,5.4,12.1,12.1,12.1
		c6.7,0,12.1-5.4,12.1-12.1C-160.2,390.7-165.7,385.3-172.3,385.3z"/>
	<circle class="st1" cx="-172.3" cy="378.5" r="3.5"/>
	<circle class="st1" cx="-172.3" cy="415.9" r="3.5"/>
	<circle class="st1" cx="-153.6" cy="397.2" r="3.5"/>
	<circle class="st1" cx="-191.1" cy="397.2" r="3.5"/>
	<circle class="st1" cx="-185.6" cy="410.5" r="3.5"/>
	<circle class="st1" cx="-159.1" cy="384" r="3.5"/>
	<circle class="st1" cx="-159.1" cy="410.5" r="3.5"/>
	<circle class="st1" cx="-185.6" cy="384" r="3.5"/>
	<path class="st0" d="M-98,356.4h-9.3v-9.3c0-1.9-1.6-3.5-3.5-3.5c-1.9,0-3.5,1.6-3.5,3.5v9.3h-9.3c-1.9,0-3.5,1.6-3.5,3.5
		c0,1.9,1.6,3.5,3.5,3.5h9.3v9.3c0,1.9,1.6,3.5,3.5,3.5c1.9,0,3.5-1.6,3.5-3.5v-9.3h9.3c1.9,0,3.5-1.6,3.5-3.5
		C-94.5,358-96,356.4-98,356.4z"/>
</g>
</svg>
