<?xml version="1.0" encoding="utf-8"?>
<!-- Generator: Adobe Illustrator 19.0.0, SVG Export Plug-In . SVG Version: 6.00 Build 0)  -->
<svg version="1.1" id="Layer_1" xmlns="http://www.w3.org/2000/svg" xmlns:xlink="http://www.w3.org/1999/xlink" x="0px" y="0px"
	 viewBox="-259 345.4 92.6 102.6" style="enable-background:new -259 345.4 92.6 102.6;" xml:space="preserve">
<style type="text/css">
	.st0{fill:#8E99AD;}
</style>
<g>
	<path class="st0" d="M-208.4,411.9h-2.7c-7.5,3.4-16,3.4-23.5,0h-2.7c-12,0-21.7,9.7-21.7,21.7v6.7c0,4.3,3.5,7.7,7.7,7.7
		c0,0,0,0,0,0h56.7c4.3,0,7.7-3.5,7.7-7.7v-6.7C-186.8,421.6-196.5,411.9-208.4,411.9z"/>
	<path class="st0" d="M-222.9,406.7L-222.9,406.7c10.5,0,19.3-7.9,20.5-18.3h-41C-242.2,398.9-233.4,406.7-222.9,406.7z"/>
	<path class="st0" d="M-245.2,384.3h44.7c1.8,0,3.2-1.4,3.2-3.2V381c0-1.8-1.4-3.2-3.2-3.2h-1.3c-1.3-6.1-5.2-11.4-10.9-14.4
		l-4.5,8.5l-0.1-6.6c-0.1-6.9-10.8-7.4-10.8,0.4l-0.1,6.2l-4.6-8.7c-5.9,3-10,8.4-11.3,14.7h-1.3c-1.8,0-3.2,1.4-3.2,3.2v0.1
		C-248.5,382.9-247,384.3-245.2,384.3z"/>
	<path class="st0" d="M-169.9,358.2h-9.2v-9.3c0-1.9-1.6-3.5-3.5-3.5c-1.9,0-3.5,1.6-3.5,3.5v9.3h-9.3c-1.9,0-3.5,1.6-3.5,3.5
		c0,1.9,1.6,3.5,3.5,3.5h9.3v9.3c0,1.9,1.6,3.5,3.5,3.5c1.9,0,3.5-1.6,3.5-3.5v-9.3h9.2c1.9,0,3.5-1.6,3.5-3.5
		C-166.4,359.7-167.9,358.2-169.9,358.2z"/>
</g>
</svg>
