<?xml version="1.0" encoding="utf-8"?>
<!-- Generator: Adobe Illustrator 19.0.0, SVG Export Plug-In . SVG Version: 6.00 Build 0)  -->
<svg version="1.1" id="Layer_1" xmlns="http://www.w3.org/2000/svg" xmlns:xlink="http://www.w3.org/1999/xlink" x="0px" y="0px"
	 viewBox="-253 345.4 104.8 102.6" style="enable-background:new -253 345.4 104.8 102.6;" xml:space="preserve">
<style type="text/css">
	.st0{fill:none;}
	.st1{fill:#8E99AD;}
</style>
<g>
	<rect x="-216.1" y="381.5" class="st0" width="14.8" height="3.7"/>
	<path class="st1" d="M-151.7,358.2h-9.2v-9.3c0-1.9-1.6-3.5-3.5-3.5c-1.9,0-3.5,1.6-3.5,3.5v9.3h-9.3c-1.9,0-3.5,1.6-3.5,3.5
		c0,1.9,1.6,3.5,3.5,3.5h9.3v9.3c0,1.9,1.6,3.5,3.5,3.5c1.9,0,3.5-1.6,3.5-3.5v-9.3h9.2c1.9,0,3.5-1.6,3.5-3.5
		C-148.2,359.7-149.7,358.2-151.7,358.2z"/>
	<path class="st1" d="M-208.7,424c-1,0-1.9-0.2-2.8-0.5l-41.5-13.8v28.2c0,5.6,4.5,10.1,10.1,10.2c0,0,0,0,0,0h68.3
		c5.6,0,10.1-4.5,10.1-10.1c0,0,0,0,0,0v-28.2l-41.7,13.9C-206.9,423.9-207.8,424-208.7,424z"/>
	<path class="st1" d="M-174.6,385.2h-19.4v-3.7c0-4.1-3.3-7.4-7.4-7.4h-14.8c-4.1,0-7.4,3.3-7.4,7.4v3.7h-19.4c0,0,0,0,0,0
		c-5.6,0-10.1,4.5-10.1,10.2v8.5l43.4,14.5c0.6,0.2,1.2,0.2,1.8,0l43.4-14.5v-8.5c0,0,0,0,0,0C-164.4,389.8-168.9,385.2-174.6,385.2
		z M-201.3,385.2h-14.8v-3.7h14.8V385.2z"/>
</g>
</svg>
