<?xml version="1.0" encoding="utf-8"?>
<!-- Generator: Adobe Illustrator 19.0.0, SVG Export Plug-In . SVG Version: 6.00 Build 0)  -->
<svg version="1.1" id="Layer_1" xmlns="http://www.w3.org/2000/svg" xmlns:xlink="http://www.w3.org/1999/xlink" x="0px" y="0px"
	 viewBox="-232.8 344.8 122.2 98" style="enable-background:new -232.8 344.8 122.2 98;" xml:space="preserve">
<style type="text/css">
	.st0{fill:#FF7949;}
	.st1{fill:#FFFFFF;}
</style>
<g>
	<path class="st0" d="M-196.4,354.9c-24.1,4.4-40.1,27.4-35.7,51.5c4.4,24.1,27.4,40.1,51.5,35.7c24.1-4.4,40.1-27.4,35.7-51.5
		C-149.3,366.5-172.3,350.6-196.4,354.9z M-188.5,431.5c-18.2,0-33-14.8-33-33c0-8.8,3.5-17.2,9.7-23.4c6.2-6.2,14.6-9.7,23.3-9.7
		c18.2,0,33,14.8,33,33C-155.5,416.7-170.2,431.5-188.5,431.5z"/>
	<path class="st0" d="M-207.2,379.9c-10.3,10.3-10.3,27,0,37.3c10.3,10.3,27,10.3,37.3,0c5-4.9,7.7-11.7,7.7-18.7
		c0-7-2.8-13.7-7.7-18.6C-180.2,369.6-196.9,369.6-207.2,379.9z M-175.3,381.7c1.9,0,3.5,1.6,3.5,3.5c0,1.9-1.6,3.5-3.5,3.5
		s-3.5-1.6-3.5-3.5C-178.8,383.2-177.2,381.7-175.3,381.7z M-188.5,376.2c1.9,0,3.5,1.6,3.5,3.5s-1.6,3.5-3.5,3.5
		c-1.9,0-3.5-1.6-3.5-3.5C-192,377.7-190.4,376.2-188.5,376.2z M-201.7,381.7c1.9,0,3.5,1.6,3.5,3.5c0,1.9-1.6,3.5-3.5,3.5
		s-3.5-1.6-3.5-3.5C-205.2,383.2-203.7,381.7-201.7,381.7z M-207.2,401.9c-1.9,0-3.5-1.6-3.5-3.5s1.6-3.5,3.5-3.5s3.5,1.6,3.5,3.5
		S-205.3,401.9-207.2,401.9z M-201.7,415.1c-1.9,0-3.5-1.6-3.5-3.5s1.6-3.5,3.5-3.5s3.5,1.6,3.5,3.5S-199.8,415.1-201.7,415.1z
		 M-188.5,420.6c-1.9,0-3.5-1.6-3.5-3.5c0-1.9,1.6-3.5,3.5-3.5s3.5,1.6,3.5,3.5S-186.6,420.6-188.5,420.6z M-188.5,410.6
		c-6.7,0-12.1-5.4-12.1-12.1c0-4.9,2.9-9.3,7.5-11.2c1.5-0.6,3-0.9,4.6-0.9c6.7,0,12.1,5.4,12.1,12.1
		C-176.4,405.2-181.8,410.6-188.5,410.6z M-175.3,415.1c-1.9,0-3.5-1.6-3.5-3.5s1.6-3.5,3.5-3.5s3.5,1.6,3.5,3.5
		S-173.3,415.1-175.3,415.1z M-166.3,398.4c0,1.9-1.6,3.5-3.5,3.5s-3.5-1.6-3.5-3.5s1.6-3.5,3.5-3.5S-166.3,396.5-166.3,398.4z"/>
	<path class="st1" d="M-188.5,365.5c-8.8,0-17.1,3.5-23.3,9.7c-6.2,6.2-9.7,14.6-9.7,23.4c0,18.2,14.8,33,33,33
		c18.2,0,33-14.8,33-33C-155.5,380.3-170.3,365.5-188.5,365.5z M-169.9,417.2c-10.3,10.3-27,10.3-37.3,0c-10.3-10.3-10.3-27,0-37.3
		c10.3-10.3,27-10.3,37.3,0c4.9,4.9,7.7,11.6,7.7,18.6C-162.2,405.5-165,412.2-169.9,417.2z"/>
	<path class="st1" d="M-188.5,386.4c-1.6,0-3.2,0.3-4.6,0.9c-4.5,1.9-7.5,6.3-7.5,11.2c0,6.7,5.4,12.1,12.1,12.1
		c6.7,0,12.1-5.4,12.1-12.1C-176.4,391.8-181.8,386.4-188.5,386.4z"/>
	<path class="st1" d="M-188.5,383.2c1.9,0,3.5-1.6,3.5-3.5s-1.6-3.5-3.5-3.5s-3.5,1.6-3.5,3.5C-192,381.6-190.4,383.2-188.5,383.2z"
		/>
	<path class="st1" d="M-188.5,413.6c-1.9,0-3.5,1.6-3.5,3.5c0,1.9,1.6,3.5,3.5,3.5c1.9,0,3.5-1.6,3.5-3.5S-186.6,413.6-188.5,413.6z
		"/>
	<circle class="st1" cx="-169.8" cy="398.4" r="3.5"/>
	<circle class="st1" cx="-207.2" cy="398.4" r="3.5"/>
	<circle class="st1" cx="-201.7" cy="411.6" r="3.5"/>
	<circle class="st1" cx="-175.3" cy="385.2" r="3.5"/>
	<circle class="st1" cx="-175.3" cy="411.6" r="3.5"/>
	<circle class="st1" cx="-201.7" cy="385.2" r="3.5"/>
	<path class="st0" d="M-114.1,357.5h-9.3v-9.3c0-1.9-1.6-3.5-3.5-3.5c-1.9,0-3.5,1.6-3.5,3.5v9.3h-9.3c-1.9,0-3.5,1.6-3.5,3.5
		c0,1.9,1.6,3.5,3.5,3.5h9.3v9.3c0,1.9,1.6,3.5,3.5,3.5c1.9,0,3.5-1.6,3.5-3.5v-9.3h9.3c1.9,0,3.5-1.6,3.5-3.5
		C-110.6,359.1-112.2,357.5-114.1,357.5z"/>
</g>
</svg>
