<svg class="crownSVG" fill="black" height="436pt" viewBox="0 -83 436.90667 436" width="436pt" xmlns="http://www.w3.org/2000/svg"><path d="m368.640625 214.855469h-300.375c-2.917969 0-5.511719-1.855469-6.457031-4.613281l-44.902344-130.964844c-1.21875-3.570313.679688-7.449219 4.246094-8.675782 1.09375-.371093 2.234375-.464843 3.292968-.277343 2.46875.144531 4.769532 1.636719 5.835938 4.058593 5.550781 12.605469 25.296875 53.300782 48.332031 53.300782.285157 0 .574219-.007813.867188-.023438 13.894531-.617187 35.625-16.652344 60.246093-89.496094.941407-2.773437 3.539063-4.640624 6.464844-4.640624 2.929688 0 5.527344 1.867187 6.46875 4.640624 8.40625 24.839844 36.582032 89.117188 65.839844 89.117188.078125 0 .152344-.003906.234375-.003906 13.871094-.167969 35.199219-15.734375 58.039063-88.960938.894531-2.855468 3.53125-4.792968 6.519531-4.792968h.066406c3.015625.03125 5.652344 2.03125 6.488281 4.925781 6.980469 24.039062 31.738282 87.003906 62.105469 89.632812 17.742187 1.460938 37.414063-18.617187 56.835937-58.277343 1.578126-3.238282 5.414063-4.695313 8.746094-3.308594 3.324219 1.378906 5.011719 5.105468 3.847656 8.519531l-46.28125 135.226563c-.949218 2.761718-3.542968 4.613281-6.460937 4.613281zm-295.5-13.652344h290.617187l26.746094-78.148437c-12.925781 13.679687-26.050781 19.78125-39.738281 18.632812-33.632813-2.925781-56.710937-51.390625-67.441406-79.878906-18.953125 52.90625-40.113281 78.832031-64.433594 79.117187-.132813 0-.257813.007813-.390625.007813-33.988281 0-60.226562-52.105469-72.113281-80.847656-20.28125 53.519531-42.046875 80.128906-66.300781 81.214843-12.433594.480469-23.261719-5.714843-32.585938-14.90625zm0 0"/><path d="m368.640625 269.46875h-300.375c-3.773437 0-6.824219-3.054688-6.824219-6.828125v-54.613281c0-3.773438 3.050782-6.824219 6.824219-6.824219s6.828125 3.050781 6.828125 6.824219v47.789062h286.71875v-47.789062c0-3.773438 3.054688-6.824219 6.828125-6.824219s6.824219 3.050781 6.824219 6.824219v54.613281c0 3.773437-3.050782 6.828125-6.824219 6.828125zm0 0"/><path d="m149.011719 47.175781c-12.878907 0-23.359375-10.480469-23.359375-23.363281 0-12.878906 10.480468-23.359375 23.359375-23.359375 12.882812 0 23.363281 10.484375 23.363281 23.363281s-10.480469 23.359375-23.363281 23.359375zm0-33.066406c-5.351563 0-9.707031 4.355469-9.707031 9.707031 0 5.355469 4.355468 9.707032 9.707031 9.707032 5.355469 0 9.707031-4.355469 9.707031-9.707032 0-5.355468-4.351562-9.707031-9.707031-9.707031zm0 0"/><path d="m281.277344 47.175781c-12.878906 0-23.359375-10.480469-23.359375-23.363281 0-12.878906 10.480469-23.359375 23.359375-23.359375 12.882812 0 23.363281 10.484375 23.363281 23.363281s-10.480469 23.359375-23.363281 23.359375zm0-33.066406c-5.351563 0-9.707032 4.355469-9.707032 9.707031 0 5.355469 4.355469 9.707032 9.707032 9.707032 5.355468 0 9.710937-4.351563 9.710937-9.707032 0-5.351562-4.355469-9.707031-9.710937-9.707031zm0 0"/><path d="m413.546875 80.242188c-12.882813 0-23.363281-10.480469-23.363281-23.359376 0-12.878906 10.480468-23.359374 23.363281-23.359374 12.878906 0 23.359375 10.480468 23.359375 23.359374 0 12.878907-10.480469 23.359376-23.359375 23.359376zm0-33.066407c-5.355469 0-9.707031 4.351563-9.707031 9.707031 0 5.355469 4.351562 9.707032 9.707031 9.707032 5.351563 0 9.707031-4.351563 9.707031-9.707032 0-5.355468-4.355468-9.707031-9.707031-9.707031zm0 0"/><path d="m23.359375 80.242188c-12.878906 0-23.359375-10.480469-23.359375-23.359376 0-12.878906 10.480469-23.359374 23.359375-23.359374 12.882813 0 23.363281 10.480468 23.363281 23.359374 0 12.878907-10.484375 23.359376-23.363281 23.359376zm0-33.066407c-5.351563 0-9.707031 4.351563-9.707031 9.707031 0 5.355469 4.355468 9.707032 9.707031 9.707032 5.355469 0 9.710937-4.351563 9.710937-9.707032 0-5.355468-4.355468-9.707031-9.710937-9.707031zm0 0"/></svg>
