<svg xmlns="http://www.w3.org/2000/svg" width="17.996" height="32" viewBox="0 0 17.996 32">
  <path id="dollar-sign-solid" d="M13.109,14.587l-6.75-1.975A1.843,1.843,0,0,1,6.878,9h4.144a3.815,3.815,0,0,1,2.137.656.974.974,0,0,0,1.219-.125l2.175-2.125a1.013,1.013,0,0,0-.112-1.531A8.838,8.838,0,0,0,11.034,4V1a1,1,0,0,0-1-1h-2a1,1,0,0,0-1,1V4H6.878A6.848,6.848,0,0,0,.065,11.475,7.155,7.155,0,0,0,5.3,17.513l6.406,1.875A1.843,1.843,0,0,1,11.19,23H7.047a3.815,3.815,0,0,1-2.137-.656.974.974,0,0,0-1.219.125L1.515,24.594a1.013,1.013,0,0,0,.112,1.531A8.838,8.838,0,0,0,7.034,28v3a1,1,0,0,0,1,1h2a1,1,0,0,0,1-1V27.987a7.06,7.06,0,0,0,6.606-4.544,6.863,6.863,0,0,0-4.531-8.856Z" transform="translate(-0.037)" fill="#ff7949"/>
</svg>
