<svg xmlns="http://www.w3.org/2000/svg" width="20" height="13.215" viewBox="0 0 20 13.215">
  <g id="Layer_x0020_1" transform="translate(-0.203 -0.16)">
    <path id="Path_203" data-name="Path 203" d="M19.072,9.1c1.88,1.88,1.343,2.775-1.074,1.79-1.7-.716-3.4-1.522-5.1-2.327l-.358-.09c0,.716.179,4.118-.09,4.476a1.015,1.015,0,0,1-1.164.358c-.716-.448-4.476-4.207-5.371-5.1S.722,3.279.364,2.652c-.448-.806.09-1.253.985-1.074.806.269,3.133,1.343,4.028,1.79.985.358,1.88.806,2.864,1.164-.09-.627-.627-3.939-.09-4.207.985-.537,1.611.358,2.417.985,1.7,1.522,3.4,3.044,5.1,4.655C16.745,7.038,17.909,8.113,19.072,9.1Z" transform="translate(0 0)" fill="#ff7949" fill-rule="evenodd"/>
  </g>
</svg>
