<svg id="Group_1660" data-name="Group 1660" xmlns="http://www.w3.org/2000/svg" width="23.307" height="19.422" viewBox="0 0 23.307 19.422">
  <g id="engine" transform="translate(0 0)">
    <g id="Group_490" data-name="Group 490" transform="translate(0 0)">
      <path id="Path_141" data-name="Path 141" d="M22.336,48.494H20.8a.972.972,0,0,0-.931.7l-.944,3.189h-.1L18.4,51.1a.972.972,0,0,0-.923-.668H15.538v-.971a.971.971,0,0,0-.971-.971H12.624v-.971H13.6a.971.971,0,0,0,.971-.971V43.638a.971.971,0,0,0-.971-.971H5.827a.971.971,0,0,0-.971.971v2.913a.971.971,0,0,0,.971.971H6.8v.971H3.884a.971.971,0,0,0-.971.971v3.884H1.942v-.971a.971.971,0,0,0-1.942,0v3.884a.971.971,0,0,0,1.942,0v-.971h.971v1.942a.964.964,0,0,0,.094.416l1.38,2.913a.97.97,0,0,0,.877.555h11.7a.972.972,0,0,0,.835-.476l.869-1.466h.319l.906,2.3a.974.974,0,0,0,.9.615h1.533a.971.971,0,0,0,.971-.971V49.465A.971.971,0,0,0,22.336,48.494Z" transform="translate(0 -42.667)" fill="#8e99ad"/>
    </g>
  </g>
</svg>
