<?xml version="1.0" encoding="utf-8"?>
<!-- Generator: Adobe Illustrator 19.0.0, SVG Export Plug-In . SVG Version: 6.00 Build 0)  -->
<svg version="1.1" id="Layer_1" xmlns="http://www.w3.org/2000/svg" xmlns:xlink="http://www.w3.org/1999/xlink" x="0px" y="0px"
	 viewBox="-143 345 512 512" style="enable-background:new -143 345 512 512;" xml:space="preserve">
<style type="text/css">
	.st0{fill:#010101;}
</style>
<path class="st0" d="M114.8,611h-0.3c-4.2,0-7.6,3.4-7.6,7.6c0,4.2,3.4,7.6,7.6,7.6h0.3c4.2,0,7.6-3.4,7.6-7.6
	C122.4,614.4,119,611,114.8,611z"/>
<path class="st0" d="M356.1,702.5c-4.1-4.3-9.4-7.2-15.1-8.2v-53.4c0-20-13.5-31.1-26.3-31.3c-10.6-0.2-18.6,6.9-19,16.8
	c-0.2,5.8-12.8,6.8-22.8,6.9l-7.8-25.6c0,0,0-0.1,0-0.1c-7.7-23.7-26.5-29.1-44.7-34.3c-2.4-0.7-4.9-1.4-7.5-2.2l-40.5-12.3
	c14.9-13.8,26.4-31.3,31.5-48.8c5.3-1.3,10.6-4.3,15-8.6c5.8-5.7,9.1-13,9.1-19.9v-8.4c0-7.1-4.6-13.1-11-15.3c0.2-1,0.3-2,0.3-3
	v-9.2c0-7.4-4.6-13.6-11.1-16.1c-5.1-31.3-25.5-57.8-54.6-70.6c-3.2-8.1-11.1-13.9-20.3-13.9H96.7c-9.2,0-17,5.7-20.3,13.7
	c-29.3,12.8-49.9,39.5-54.9,71c-6.1,2.6-10.5,8.8-10.5,15.9v9.2c0,1.1,0.1,2.3,0.3,3.4c-5.9,2.4-10,8.2-10,14.9v8.4
	c0,6.9,3.3,14.2,9.1,19.9c4.3,4.3,9.6,7.3,15,8.6c5,17.5,16.5,35,31.4,48.8l-18.4,5.6c-0.3,0.1-0.5,0.1-0.8,0.2l-21.2,6.5
	c-2.5,0.8-5,1.5-7.5,2.2c-18.2,5.2-37,10.6-44.7,34.3c0,0,0,0.1,0,0.1l-7.8,25.6c-10.3,0-25.7-0.5-25.9-7c-0.4-10-8.4-17-19-16.8
	c-12.7,0.2-26.3,11.3-26.3,31.3v53.8c-5.1,1.3-9.7,4-13.4,7.8c-4.9,5.2-7.3,11.8-6.9,18.7l2,33.4c0.7,11.9,8.1,21.4,18.2,24.9v27.4
	c0,37.8,16,50,65.7,50l152.7,0.1h0c4.2,0,7.6-3.4,7.6-7.6c0-4.2-3.4-7.6-7.6-7.6L-49,841.8c-46.2,0-50.6-9.6-50.6-34.9v-26h6.4
	c2,0,3.9-0.1,5.7-0.3c7.8-0.9,14.1-3.8,18.7-8.6c10.3-10.7,9.7-27.6,9.2-42.5c-0.1-3.1-0.2-6.1-0.2-8.9c0-14.8-12-26.8-26.8-26.8
	h-12.9v-53c0-12.7,7.5-16.1,11.5-16.2c2.3,0,3.5,0.7,3.6,2.3c0.2,5.6,2.9,15.7,18.7,19.5c8.1,2,17.6,2,25.2,1.9l305.4,0l2.1,0h0.1
	c0.1,0,0.2,0,0.3,0s0.2,0,0.4,0c7.5,0,16.6,0,24.4-1.9c15.7-3.9,18.5-13.9,18.7-19.5c0.1-1.6,1.3-2.3,3.6-2.3
	c4,0.1,11.5,3.6,11.5,16.2v53h-11.2c-14.8,0-26.8,12-26.8,26.8c0,2.8-0.1,5.7-0.2,8.9c-0.5,14.9-1.1,31.8,9.2,42.5
	c4.6,4.8,10.9,7.7,18.7,8.6c1.8,0.2,3.7,0.3,5.7,0.3h4.7v26c0,25.3-4.4,34.9-50.5,34.9l-137.1,0.1c-4.2,0-7.6,3.4-7.6,7.6
	c0,4.2,3.4,7.6,7.6,7.6h0l137.1-0.1c49.7,0,65.7-12.1,65.7-50V780c11-2.9,19.2-12.9,20-25.5l2-33.4
	C363.4,714.3,360.9,707.6,356.1,702.5z M-86.6,709c6.4,0,11.7,5.3,11.7,11.7c0,0.8,0,1.5,0,2.3c0,2.3,0.1,4.7,0.2,7.1
	c0.2,6.7,0.5,13.9-0.4,20c-0.7,4.7-2,8.8-4.6,11.5c-2.8,2.9-7.2,4.3-13.5,4.3h-13c-6.3,0-11.3-5.2-11.7-12.2l-2-33.4
	c-0.2-2.7,0.8-5.3,2.8-7.4c2.3-2.5,5.6-3.9,8.9-3.9H-86.6z M8.1,633.3h-35.8l6.4-21.2c4.5-13.9,13.4-18.1,29.4-22.9V633.3z
	 M144.4,624.5c0.5,0.1,0.9,0.2,1.4,0.2c0.9,0.1,1.8,0.2,2.7,0.2c6.5,0,12.5-3.2,17.2-9.3l26.3-35.1l14.1,4.3v48.5h-61.7V624.5z
	 M176.6,575.9l-22.9,30.6c-2.6,3.4-4.6,3.3-5.4,3.3c-2.2-0.1-4.5-1.7-5.6-2.8c-0.1-0.1-0.2-0.3-0.4-0.4c-0.1-0.1-0.1-0.2-0.2-0.2
	l-9.8-24.1c2-0.6,4-1.3,6.1-2c6.7-2.5,13.3-5.9,19.5-10L176.6,575.9z M212.8,481.5c0,2.8-1.7,6.3-4.6,9.1c-0.5,0.5-1,0.9-1.6,1.4
	c0-0.2,0-0.4,0-0.6l0.2-19.3h5c0.5,0,1,0.5,1,1V481.5z M96.7,360.1h34.6c3.7,0,6.7,3,6.7,6.7v24.8c0,3.7-3,6.7-6.7,6.7H96.7
	c-3.7,0-6.7-3-6.7-6.7v-24.8C90,363.1,93,360.1,96.7,360.1z M74.9,376.4v15.2c0,12,9.8,21.8,21.8,21.8h34.6c12,0,21.8-9.8,21.8-21.8
	v-15c19.2,11.1,32.9,29.9,37.5,51.8H37.1C41.8,406.3,55.5,387.5,74.9,376.4z M21.1,490.7c-2.9-2.9-4.6-6.3-4.6-9.1v-8.4
	c0-0.5,0.5-1,1-1h5l0.2,19.3c0,0.2,0,0.5,0,0.7C22.1,491.6,21.6,491.2,21.1,490.7z M39.2,502.9c0-0.8-0.2-1.7-0.5-2.4
	c-0.6-3.1-0.9-6.2-0.9-9.2l-0.2-19.2l61.7,0.1h0c4.2,0,7.6-3.4,7.6-7.6c0-4.2-3.4-7.6-7.6-7.6L29.9,457c0,0,0,0,0,0h-1.6
	c-1.2,0-2.2-1-2.2-2.2v-9.2c0-1.2,1-2.2,2.2-2.2H200c1.2,0,2.2,1,2.2,2.2v9.2c0,1.2-1,2.2-2.2,2.2h-66.2c-4.2,0-7.6,3.4-7.6,7.6
	c0,4.2,3.4,7.6,7.6,7.6h58l-0.2,19.3c0,2.9-0.3,5.9-0.9,9c-0.4,0.9-0.6,1.8-0.6,2.8c-6,25.5-30.1,52.9-56.9,62.9
	c-13.7,5.1-23.3,5.1-36.9,0c-6.7-2.5-13.2-6-19.3-10.4c0,0-0.1-0.1-0.1-0.1C58.3,542.4,43.6,522.1,39.2,502.9z M84.9,633.3H23.2
	v-48.5l14.2-4.3l26.3,35.1c4.6,6,10.6,9.2,17.1,9.2c0.9,0,1.8-0.1,2.7-0.2c0.5-0.1,0.9-0.1,1.4-0.2V633.3z M87,606.6
	c-0.1,0.1-0.2,0.3-0.4,0.4c-1.1,1.1-3.3,2.6-5.6,2.8c-0.8,0-2.8,0.1-5.3-3.2l-23-30.7l18.6-5.7c6.2,4.1,12.8,7.5,19.6,10
	c2.1,0.8,4,1.4,6,2l-9.8,24.1C87.1,606.4,87,606.5,87,606.6z M100,614.3c0.4-0.7,0.8-1.4,1.1-2.1l11.1-27.3c0.8,0,1.6,0.1,2.5,0.1
	c0.8,0,1.7,0,2.5-0.1l11.1,27.3c0.3,0.7,0.6,1.4,1.1,2.1v19H100L100,614.3L100,614.3z M221.2,633.3v-44c16,4.8,24.9,9,29.4,22.9
	l6.4,21.2H221.2z M347.9,720.2l-2,33.4c-0.4,6.9-5.5,12.2-11.7,12.2h-13c-6.3,0-10.7-1.4-13.5-4.3c-2.6-2.7-3.9-6.7-4.6-11.5
	c-0.9-6.1-0.6-13.3-0.4-20c0.1-3.3,0.2-6.4,0.2-9.4c0-6.5,5.2-11.7,11.7-11.7h21.5c3.3,0,6.6,1.4,8.9,3.9
	C347,714.9,348,717.6,347.9,720.2z"/>
</svg>
