<svg xmlns="http://www.w3.org/2000/svg" width="21.75" height="29" viewBox="0 0 21.75 29">
  <path id="generate-invoice" d="M21.354,5.947,15.808.4a1.358,1.358,0,0,0-.963-.4H14.5V7.25h7.25V6.9A1.355,1.355,0,0,0,21.354,5.947ZM12.688,7.7V0H1.359A1.356,1.356,0,0,0,0,1.359V27.641A1.356,1.356,0,0,0,1.359,29H20.391a1.356,1.356,0,0,0,1.359-1.359V9.063h-7.7A1.363,1.363,0,0,1,12.688,7.7ZM3.625,4.078a.453.453,0,0,1,.453-.453H8.609a.453.453,0,0,1,.453.453v.906a.453.453,0,0,1-.453.453H4.078a.453.453,0,0,1-.453-.453Zm0,4.531V7.7a.453.453,0,0,1,.453-.453H8.609a.453.453,0,0,1,.453.453v.906a.453.453,0,0,1-.453.453H4.078A.453.453,0,0,1,3.625,8.609Zm8.156,14.946v1.366a.453.453,0,0,1-.453.453h-.906a.453.453,0,0,1-.453-.453V23.546A3.243,3.243,0,0,1,8.192,22.9a.454.454,0,0,1-.032-.688l.666-.635a.465.465,0,0,1,.574-.041,1.364,1.364,0,0,0,.726.211h1.592A.712.712,0,0,0,12.386,21a.739.739,0,0,0-.5-.721L9.34,19.517A2.563,2.563,0,0,1,7.551,17.06a2.522,2.522,0,0,1,2.417-2.553V13.141a.453.453,0,0,1,.453-.453h.906a.453.453,0,0,1,.453.453v1.376a3.239,3.239,0,0,1,1.777.643.454.454,0,0,1,.032.688l-.666.635a.465.465,0,0,1-.574.041,1.359,1.359,0,0,0-.726-.211H10.032a.712.712,0,0,0-.668.747.739.739,0,0,0,.5.721l2.549.765A2.563,2.563,0,0,1,14.2,21a2.522,2.522,0,0,1-2.417,2.553Z" fill="#8e99ad"/>
</svg>
