<?xml version="1.0" encoding="utf-8"?>
<!-- Generator: Adobe Illustrator 19.0.0, SVG Export Plug-In . SVG Version: 6.00 Build 0)  -->
<svg version="1.1" id="Layer_1" xmlns="http://www.w3.org/2000/svg" xmlns:xlink="http://www.w3.org/1999/xlink" x="0px" y="0px"
	 viewBox="-294 382 21.8 29" style="enable-background:new -294 382 21.8 29;" xml:space="preserve">
<style type="text/css">
	.st0{fill:#FF6633;}
</style>
<path id="generate-invoice" class="st0" d="M-272.6,387.9l-5.5-5.5c-0.3-0.3-0.6-0.4-1-0.4h-0.3v7.3h7.3v-0.4
	C-272.3,388.5-272.4,388.2-272.6,387.9z M-281.3,389.7V382h-11.3c-0.7,0-1.4,0.6-1.4,1.4c0,0,0,0,0,0v26.3c0,0.7,0.6,1.4,1.4,1.4
	c0,0,0,0,0,0h19c0.7,0,1.4-0.6,1.4-1.4c0,0,0,0,0,0v-18.6h-7.7C-280.7,391.1-281.3,390.5-281.3,389.7z M-290.4,386.1
	c0-0.3,0.2-0.5,0.5-0.5l0,0h4.5c0.3,0,0.5,0.2,0.5,0.5l0,0v0.9c0,0.3-0.2,0.5-0.5,0.5l0,0h-4.5c-0.3,0-0.5-0.2-0.5-0.5l0,0V386.1z
	 M-290.4,390.6v-0.9c0-0.3,0.2-0.5,0.5-0.5l0,0h4.5c0.3,0,0.5,0.2,0.5,0.5l0,0v0.9c0,0.3-0.2,0.5-0.5,0.5l0,0h-4.5
	C-290.2,391.1-290.4,390.9-290.4,390.6z M-282.2,405.6v1.4c0,0.3-0.2,0.5-0.5,0.5h-0.9c-0.3,0-0.5-0.2-0.5-0.5v-1.4
	c-0.6,0-1.3-0.3-1.8-0.6c-0.2-0.2-0.2-0.4-0.1-0.6c0,0,0,0,0-0.1l0.7-0.6c0.2-0.1,0.4-0.2,0.6,0c0.2,0.1,0.5,0.2,0.7,0.2h1.6
	c0.4,0,0.7-0.4,0.7-0.7c0-0.3-0.2-0.6-0.5-0.7l-2.5-0.8c-1.1-0.3-1.8-1.3-1.8-2.5c0-1.4,1.1-2.5,2.4-2.6v-1.4c0-0.3,0.2-0.5,0.5-0.5
	l0,0h0.9c0.3,0,0.5,0.2,0.5,0.5l0,0v1.4c0.6,0,1.3,0.3,1.8,0.6c0.2,0.2,0.2,0.4,0.1,0.6c0,0,0,0,0,0.1l-0.7,0.6
	c-0.2,0.1-0.4,0.2-0.6,0c-0.2-0.1-0.5-0.2-0.7-0.2h-1.6c-0.4,0-0.7,0.4-0.7,0.7c0,0.3,0.2,0.6,0.5,0.7l2.5,0.8
	c1.1,0.3,1.8,1.3,1.8,2.5C-279.8,404.4-280.9,405.5-282.2,405.6L-282.2,405.6z"/>
</svg>
