<svg xmlns="http://www.w3.org/2000/svg" width="496" height="496" viewBox="0 0 496 496">
  <path id="globe-americas-solid" d="M248,8C111.03,8,0,119.03,0,256S111.03,504,248,504,496,392.97,496,256,384.97,8,248,8Zm82.29,357.6c-3.9,3.88-7.99,7.95-11.31,11.28a23.9,23.9,0,0,0-6.17,10.71c-1.51,5.66-2.73,11.38-4.77,16.87l-17.39,46.85A199.848,199.848,0,0,1,248,456V428.62c1.69-12.62-7.64-36.26-22.63-51.25A32,32,0,0,1,216,354.74V322.73a31.9,31.9,0,0,0-16.46-27.97c-14.37-7.95-34.81-19.06-48.81-26.11a144.155,144.155,0,0,1-31.65-21.75l-.8-.72a114.791,114.791,0,0,1-18.06-20.74c-9.38-13.77-24.66-36.42-34.59-51.14A201.087,201.087,0,0,1,168.83,72.41l24.01,12.01A16,16,0,0,0,216,70.11V58.81a199.854,199.854,0,0,1,24.39-2.42l28.3,28.3a16,16,0,0,1,0,22.63L264,112l-10.34,10.34a8,8,0,0,0,0,11.31l4.69,4.69a8,8,0,0,1,0,11.31l-8,8a8.008,8.008,0,0,1-5.66,2.34H235.7a8,8,0,0,0-5.58,2.27l-9.92,9.65a8.008,8.008,0,0,0-1.58,9.31l15.59,31.19a8,8,0,0,1-7.15,11.58h-5.64a7.991,7.991,0,0,1-5.24-1.96l-9.28-8.06a16.017,16.017,0,0,0-15.55-3.1l-31.17,10.39a11.952,11.952,0,0,0-1.56,22.03l11.08,5.54a67.722,67.722,0,0,0,30.31,7.16c10.52,0,22.59,27.29,32,32h66.75a32.018,32.018,0,0,1,22.63,9.37l13.69,13.69a30.5,30.5,0,0,1,8.93,21.57,46.536,46.536,0,0,1-13.72,32.98ZM417,274.25a24,24,0,0,1-14.15-9.97l-17.98-26.97a23.97,23.97,0,0,1,0-26.62l19.59-29.38a23.973,23.973,0,0,1,9.24-8.15l12.98-6.49a193.739,193.739,0,0,1,19.5,114.87Z" transform="translate(0 -8)" fill="#ff7949"/>
</svg>
