<svg xmlns="http://www.w3.org/2000/svg" viewBox="0 0 12.2 12.2">
  <defs>
    <style>
      .cls-1 {
        fill: #8e99ad;
      }
    </style>
  </defs>
  <path id="globe-americas-solid" class="cls-1" d="M6.1,8a6.1,6.1,0,1,0,6.1,6.1A6.1,6.1,0,0,0,6.1,8Zm2.024,8.8-.278.277a.588.588,0,0,0-.152.263c-.037.139-.067.28-.117.415L7.149,18.9a4.916,4.916,0,0,1-1.049.115v-.673a1.842,1.842,0,0,0-.557-1.261.787.787,0,0,1-.23-.557v-.787a.784.784,0,0,0-.4-.688c-.353-.2-.856-.469-1.2-.642a3.546,3.546,0,0,1-.778-.535l-.02-.018a2.823,2.823,0,0,1-.444-.51c-.231-.339-.607-.9-.851-1.258A4.946,4.946,0,0,1,4.153,9.584l.591.3a.394.394,0,0,0,.57-.352V9.25a4.916,4.916,0,0,1,.6-.06l.7.7a.394.394,0,0,1,0,.557l-.115.115-.254.254a.2.2,0,0,0,0,.278l.115.115a.2.2,0,0,1,0,.278l-.2.2a.2.2,0,0,1-.139.058H5.8a.2.2,0,0,0-.137.056l-.244.237a.2.2,0,0,0-.039.229l.383.767a.2.2,0,0,1-.176.285H5.446a.2.2,0,0,1-.129-.048l-.228-.2a.394.394,0,0,0-.382-.076l-.767.256a.294.294,0,0,0-.038.542l.273.136a1.666,1.666,0,0,0,.746.176c.259,0,.556.671.787.787H7.348a.788.788,0,0,1,.557.23l.337.337a.75.75,0,0,1,.22.531,1.145,1.145,0,0,1-.337.811Zm2.133-2.247a.59.59,0,0,1-.348-.245l-.442-.663a.59.59,0,0,1,0-.655l.482-.723a.59.59,0,0,1,.227-.2l.319-.16a4.765,4.765,0,0,1,.48,2.825Z" transform="translate(0 -8)"/>
</svg>
