<svg xmlns="http://www.w3.org/2000/svg" width="47.018" height="57.464" viewBox="0 0 47.018 57.464"><defs><style>.a{fill:#fc2e2e;}</style></defs><g transform="translate(-46.537)"><path class="a" d="M55.731,3.547l-2.909-.755A3.381,3.381,0,0,0,49.6,3.67L47.522,5.744a3.375,3.375,0,0,0-.666,3.815l.917,1.947Z" transform="translate(0 -2.384)"/><path class="a" d="M211.788,294.48c-2.128,3.171-1.862,2.777-1.886,2.81a2.358,2.358,0,0,0,.735,3.436,2.313,2.313,0,0,0,3.136-.763,2.4,2.4,0,0,0-.111-2.677C213.629,297.24,213.351,296.822,211.788,294.48Z" transform="translate(-144.63 -261.429)"/><path class="a" d="M92.878,0H68.009a5.161,5.161,0,0,0-3.571,1.592l-11.5,11.5a5.017,5.017,0,0,0-1.479,3.571V52.414a5.056,5.056,0,0,0,5.051,5.051H92.878a5.056,5.056,0,0,0,5.051-5.051V5.051A5.056,5.056,0,0,0,92.878,0Zm-7.52,45.118a5.056,5.056,0,0,1-5.051,5.051H63.7a5.056,5.056,0,0,1-5.051-5.051V21.968a5.036,5.036,0,0,1,1.339-3.426l6.478-7.018a5.052,5.052,0,0,1,8.288,1.29L84.884,34.526a5.085,5.085,0,0,1,.474,2.136Zm5.387-24.467a3.367,3.367,0,0,1-6.41,1.441L79.622,12.1A3.367,3.367,0,0,1,82.666,7.3h4.712a3.371,3.371,0,0,1,3.367,3.367v9.989Z" transform="translate(-4.373)"/><path class="a" d="M155.15,119.161a1.682,1.682,0,0,0-2.763-.43l-6.478,7.018a1.679,1.679,0,0,0-.446,1.142v23.151a1.685,1.685,0,0,0,1.684,1.684h16.611a1.685,1.685,0,0,0,1.684-1.684v-8.456a1.7,1.7,0,0,0-.158-.712Z" transform="translate(-87.823 -104.924)"/></g></svg>