<svg xmlns="http://www.w3.org/2000/svg" width="56.345" height="51.645" viewBox="0 0 56.345 51.645"><defs><style>.a{fill:#28b35f;}</style></defs><path class="a" d="M54.011,61.261V37.783a2.339,2.339,0,0,0-2.344-2.344H49.311v-4.7a2.339,2.339,0,0,0-2.344-2.344h-4.7v-4.7a2.339,2.339,0,0,0-2.344-2.344H16.433a2.346,2.346,0,0,0-2.344,2.344v4.7h-4.7a2.346,2.346,0,0,0-2.344,2.344v4.7H4.7a2.346,2.346,0,0,0-2.344,2.344V61.261A2.349,2.349,0,0,0,0,63.606V70.65a2.339,2.339,0,0,0,2.344,2.344H54a2.346,2.346,0,0,0,2.344-2.344V63.606A2.33,2.33,0,0,0,54.011,61.261ZM39.922,33.083h4.7v2.344h-4.7Zm0,9.389a2.346,2.346,0,0,1,2.344,2.344v2.355h2.344a2.344,2.344,0,1,1,0,4.689H42.267v2.356a2.344,2.344,0,0,1-4.689,0V51.872H35.222a2.35,2.35,0,0,1,0-4.7h2.344V44.828A2.358,2.358,0,0,1,39.922,42.472ZM18.789,26.039H37.578v2.344a2.346,2.346,0,0,0-2.344,2.344v4.7h-14.1v-4.7a2.339,2.339,0,0,0-2.344-2.344Zm-7.044,7.044h4.7v2.344h-4.7Zm0,14.089h9.389a2.344,2.344,0,1,1,0,4.689H11.744a2.344,2.344,0,1,1,0-4.689ZM51.667,68.306H4.7V65.961H51.667Z" transform="translate(0 -21.35)"/></svg>