<svg xmlns="http://www.w3.org/2000/svg" width="53.314" height="54.882" viewBox="0 0 53.314 54.882"><defs><style>.a{fill:#28b35f;}</style></defs><g transform="translate(-638 -63.118)"><g transform="translate(638 67.001)"><path class="a" d="M221.833,217.583a4.25,4.25,0,1,0-4.25,4.25A4.254,4.254,0,0,0,221.833,217.583Z" transform="translate(-192.084 -192.084)"/><path class="a" d="M25.5,0A25.5,25.5,0,1,0,51,25.5,25.528,25.528,0,0,0,25.5,0Zm7.512,11.976a2.125,2.125,0,0,1,3-3.007,6.372,6.372,0,0,1,0,9.018,2.125,2.125,0,0,1-3-3.007,2.119,2.119,0,0,0,0-3Zm-11.762-5.6a6.383,6.383,0,0,1,6.375,6.375,2.125,2.125,0,0,1-4.25,0,2.127,2.127,0,0,0-2.125-2.125,2.125,2.125,0,0,1,0-4.25ZM8.972,14.981a6.384,6.384,0,0,1,9.016,0,2.125,2.125,0,0,1-3,3.007,2.127,2.127,0,0,0-3.007,0,2.125,2.125,0,0,1-3-3.007Zm1.653,14.768a2.125,2.125,0,0,1-4.25,0,6.383,6.383,0,0,1,6.375-6.375,2.125,2.125,0,1,1,0,4.25A2.127,2.127,0,0,0,10.625,29.749Zm7.363,9.273a2.125,2.125,0,0,1-3,3.007,6.372,6.372,0,0,1,0-9.018,2.125,2.125,0,0,1,3,3.007,2.119,2.119,0,0,0,0,3ZM17,25.5A8.5,8.5,0,1,1,25.5,34,8.508,8.508,0,0,1,17,25.5Zm12.75,19.125a6.383,6.383,0,0,1-6.375-6.375,2.125,2.125,0,0,1,4.25,0,2.127,2.127,0,0,0,2.125,2.125,2.125,2.125,0,0,1,0,4.25Zm12.278-8.606a6.384,6.384,0,0,1-9.016,0,2.125,2.125,0,0,1,3-3.007,2.123,2.123,0,0,0,3.007,0,2.125,2.125,0,0,1,3,3.007Zm-3.778-8.394a2.125,2.125,0,0,1,0-4.25,2.127,2.127,0,0,0,2.125-2.125,2.125,2.125,0,0,1,4.25,0A6.383,6.383,0,0,1,38.249,27.624Z"/></g><path class="a" d="M2875.618-2474.342c-2.279,1.981,2.586-.186,7.709,3.8s5.851,4.793,8.55,8.393c8.384,11.178,2.826-10.072,0-12.195S2877.9-2476.324,2875.618-2474.342Z" transform="translate(-2205 2539)"/></g></svg>