<svg xmlns="http://www.w3.org/2000/svg" width="54.882" height="54.882" viewBox="0 0 54.882 54.882"><defs><style>.a{fill:#fc2e2e;}</style></defs><path class="a" d="M15.868,238.763a2.284,2.284,0,0,0-3.233,0L6.085,245.31a2.286,2.286,0,0,0,0,3.234l.288.288L.691,254.384a2.283,2.283,0,0,0-.021,3.252l9.147,9.147a2.285,2.285,0,0,0,1.617.67h.014a2.278,2.278,0,0,0,1.624-.688l5.552-5.685.288.288a2.286,2.286,0,0,0,3.234,0l6.547-6.547a2.288,2.288,0,0,0,0-3.233Zm-4.452,23.151-5.875-5.875,4.066-3.974,5.783,5.781Z" transform="translate(0 -212.571)"/><path class="a" d="M43.146,55.492a2.216,2.216,0,0,0,.318.336,2.257,2.257,0,0,0,1.491.558H51.82a2.287,2.287,0,1,0,0-4.573H50.48l5.243-5.244a2.286,2.286,0,0,0-3.233-3.233l-5.243,5.243v-1.34a2.287,2.287,0,0,0-4.574,0v6.844c0,.059,0,.119,0,.176A2.275,2.275,0,0,0,43.146,55.492Z" transform="translate(-38.099 -38.092)"/><path class="a" d="M373.6,342.2a2.15,2.15,0,0,0-.3-.311,2.273,2.273,0,0,0-1.475-.549h-6.869a2.287,2.287,0,1,0,0,4.573h2.287l-4.116,5.488a2.287,2.287,0,0,0,3.659,2.744l2.744-3.659a2.287,2.287,0,0,0,4.573,0v-6.853c0-.027,0-.053,0-.08A2.264,2.264,0,0,0,373.6,342.2Z" transform="translate(-323.795 -304.75)"/><path class="a" d="M225.664,9.819,216.517.672A2.383,2.383,0,0,0,214.889,0a2.3,2.3,0,0,0-1.621.686l-5.18,5.292a5.908,5.908,0,0,0-7.965.327l-4.631,4.633c-.048.048-.066.112-.11.165a2.3,2.3,0,0,0-.284.425,2.119,2.119,0,0,0-.137.316,2.152,2.152,0,0,0-.094.48,2.132,2.132,0,0,0-.023.341,2.091,2.091,0,0,0,.094.482,1.969,1.969,0,0,0,.1.338c.014.03.011.062.027.091l1.281,2.566a1.687,1.687,0,0,1-.316,1.953l-2.794,2.794a4.106,4.106,0,0,0,0,5.8l6.41,6.412a4.1,4.1,0,0,0,5.8,0l2.8-2.794a1.69,1.69,0,0,1,1.953-.318l2.564,1.283c.03.014.062.014.094.027a2.484,2.484,0,0,0,.338.1,2.225,2.225,0,0,0,.482.094c.037,0,.071.021.11.021.078,0,.151-.037.229-.043a2.309,2.309,0,0,0,.482-.094,2.113,2.113,0,0,0,.313-.139,2.275,2.275,0,0,0,.428-.284,1.584,1.584,0,0,0,.165-.11l4.631-4.631a5.9,5.9,0,0,0,.327-7.963l5.292-5.18a2.288,2.288,0,0,0,.016-3.252ZM216.8,22.979,213.878,25.9c-.071-.087-.139-.178-.206-.268q-.394-.521-.766-1.089c-.1-.156-.2-.306-.3-.466-.334-.54-.659-1.1-.967-1.706a18.091,18.091,0,0,0-3.293-4.377,17.989,17.989,0,0,0-4.377-3.291c-.6-.311-1.164-.633-1.7-.965-.162-.1-.316-.2-.471-.306-.382-.249-.746-.505-1.1-.768l-.261-.2,2.92-2.918a1.342,1.342,0,0,1,1.9,0L216.8,21.084A1.342,1.342,0,0,1,216.8,22.979Z" transform="translate(-171.452 -0.002)"/></svg>