<svg xmlns="http://www.w3.org/2000/svg" width="79.279" height="52.221" viewBox="0 0 79.279 52.221"><defs><style>.a,.b{fill:#ff7949;}.b{fill-rule:evenodd;}</style></defs><g transform="translate(0 0)"><g transform="translate(0 0)"><g transform="translate(0 4.692)"><path class="a" d="M.469,76.189,36.133,46l5.005,5.944L5.475,82.133a1.41,1.41,0,0,1-.782.156,1.2,1.2,0,0,1-.782-.313l-3.6-4.223A2.223,2.223,0,0,1,0,76.815C.156,76.659.156,76.346.469,76.189Z" transform="translate(0 -43.497)"/><path class="a" d="M234,32.033l2.033-1.721a2.223,2.223,0,0,1,.939-.313c.156.156.469.156.626.469l3.6,4.223c.313.156.313.469.313.782a.86.86,0,0,1-.469.782l-2.033,1.721Z" transform="translate(-197.397 -30)"/><path class="a" d="M236.033,30.313,234,32.033h0l5.005,5.944v0l2.19-1.721a1.2,1.2,0,0,0,.313-.782,1.172,1.172,0,0,0-.156-.782l-3.6-4.223c-.313-.313-.469-.469-.782-.469A1.149,1.149,0,0,0,236.033,30.313Z" transform="translate(-197.397 -30)"/><path class="b" d="M12.36,175,.628,184.855a1.239,1.239,0,0,0-.156,1.721l3.6,4.223a1.186,1.186,0,0,0,1.564.156l11.732-10.011Z" transform="translate(-0.159 -152.319)"/><rect class="a" width="31.319" height="1.27" transform="matrix(-0.764, 0.645, -0.645, -0.764, 36.948, 3.424)"/><rect class="a" width="31.319" height="1.27" transform="matrix(-0.764, 0.645, -0.645, -0.764, 41.157, 8.407)"/><rect class="a" width="1.309" height="7.793" transform="matrix(-0.764, 0.645, -0.645, -0.764, 41.157, 8.407)"/></g><path class="a" d="M126.564,2.819a1.261,1.261,0,0,1-1.408-.469,1.084,1.084,0,0,1,.469-1.564c3.441-1.877,5.788,0,7.977,1.721,1.564,1.251,3.128,2.5,5.318.782a1.019,1.019,0,0,1,1.408.313.882.882,0,0,1-.156,1.408c-3.441,2.816-5.631,1.095-7.977-.782C130.631,2.819,128.911,1.568,126.564,2.819Z" transform="translate(-105.447 -0.004)"/><path class="a" d="M80.564,41.663a.987.987,0,0,1-1.408-.313,1.084,1.084,0,0,1,.469-1.564c3.441-1.877,5.788,0,7.977,1.721,1.564,1.251,3.128,2.5,5.318.782a.99.99,0,0,1,1.408.156,1.029,1.029,0,0,1-.156,1.564c-3.441,2.816-5.631,1.095-7.977-.782C84.475,41.819,82.911,40.568,80.564,41.663Z" transform="translate(-66.643 -32.904)"/><path class="b" d="M173.353,135.314c-5.162,4.693-3.6,7.2,2.816,4.536,4.536-2.033,9.072-4.067,13.452-5.944l.782-.313c0,1.877-.313,10.637.469,11.888a2.153,2.153,0,0,0,2.816.626c2.033-.939,11.888-10.949,14.234-13.3s13.609-12.827,14.547-14.547c1.251-2.346-.313-3.285-2.659-2.816-2.033.626-8.134,3.441-10.48,4.536l-7.508,3.285c.156-1.721,1.721-10.48.156-11.262-2.659-1.251-4.38.939-6.257,2.659-4.536,3.911-8.916,8.134-13.452,12.2Z" transform="translate(-143.633 -94.176)"/><path class="a" d="M113.245,25.782,61.782,70.988,61,70.206,112.619,25Z" transform="translate(-51.458 -21.09)"/></g></g></svg>