<svg xmlns="http://www.w3.org/2000/svg" width="57.945" height="52.221" viewBox="0 0 57.945 52.221"><defs><style>.a,.b{fill:#ff7949;}.a{fill-rule:evenodd;}</style></defs><g transform="translate(0)"><g transform="translate(0)"><g transform="translate(0 2.12)"><path class="a" d="M24.163,36.288h-1.7a1.133,1.133,0,0,0-.989.777l-1.06,3.462h-.071l-.495-1.413a1,1,0,0,0-.989-.707H16.815v-1.06a1.087,1.087,0,0,0-1.06-1.06h-2.12v-1.06H14.7a1.027,1.027,0,0,0,1.06-.989V31.06A1.087,1.087,0,0,0,14.7,30H6.288a1.087,1.087,0,0,0-1.06,1.06v3.179a1.027,1.027,0,0,0,1.06.989h1.06v1.06H4.168a1.027,1.027,0,0,0-.989,1.06v4.239H2.12v-1.06a1.04,1.04,0,0,0-1.06-1.06A1.04,1.04,0,0,0,0,40.527V44.7a1.087,1.087,0,0,0,1.06,1.06A1.087,1.087,0,0,0,2.12,44.7v-1.06h1.06v2.12a.9.9,0,0,0,.071.424l1.484,3.179a1.128,1.128,0,0,0,.989.565H18.37a.857.857,0,0,0,.848-.495l.989-1.554h.283l.989,2.473a1.2,1.2,0,0,0,.989.636h1.7a.985.985,0,0,0,.989-1.06V37.348A1.027,1.027,0,0,0,24.163,36.288Z" transform="translate(0 -30)"/></g><g transform="translate(34.69)"><rect class="b" width="4.676" height="8.814" rx="2.338"/><rect class="b" width="4.676" height="8.814" rx="2.338" transform="translate(12.223)"/><rect class="b" width="4.676" height="8.814" rx="2.338" transform="translate(0 16.391)"/><rect class="b" width="4.676" height="8.814" rx="2.338" transform="translate(12.223 16.391)"/><rect class="b" width="9.518" height="1.761" transform="translate(3.603 3.533)"/><rect class="b" width="9.518" height="1.761" transform="translate(3.603 19.924)"/><rect class="b" width="16.475" height="1.761" transform="translate(7.473 20.82) rotate(-90)"/><ellipse class="b" cx="1.5" cy="2" rx="1.5" ry="2" transform="translate(6.817 10)"/></g><g transform="translate(1.908 26.848)"><path class="a" d="M46.5,386.571l-.495-1.2-.918-2.261A4.935,4.935,0,0,0,40.495,380H34.842a5.007,5.007,0,0,0-4.592,3.109l-.918,2.261-.495,1.2A2.932,2.932,0,0,0,27,389.255v2.12a2.824,2.824,0,0,0,.707,1.837v2.4a1.434,1.434,0,0,0,1.484,1.413H30.6a1.417,1.417,0,0,0,1.413-1.413V394.2H43.391v1.413a1.417,1.417,0,0,0,1.413,1.413h1.413a1.417,1.417,0,0,0,1.413-1.413v-2.4a2.824,2.824,0,0,0,.707-1.837v-2.12A2.932,2.932,0,0,0,46.5,386.571Zm-13.636-2.4a2.242,2.242,0,0,1,1.978-1.342h5.652a2.164,2.164,0,0,1,1.978,1.342l.918,2.261H32.016ZM30.6,391.375a1.413,1.413,0,0,1,0-2.826,2.723,2.723,0,0,1,2.12,2.12C32.723,391.516,31.451,391.375,30.6,391.375Zm14.2,0c-.848,0-2.12.141-2.12-.707a2.723,2.723,0,0,1,2.12-2.12,1.413,1.413,0,0,1,0,2.826Z" transform="translate(-27 -380)"/><g transform="translate(5.78 17.016)"><path class="b" d="M197.389,622.27a.684.684,0,0,1-.565-.848.733.733,0,0,1,.848-.565c2.614.565,2.967,2.473,3.321,4.239.212,1.342.495,2.614,2.261,2.685a.726.726,0,0,1,.707.777.675.675,0,0,1-.777.636c-2.9-.071-3.25-1.908-3.6-3.815C199.3,624.036,199.014,622.623,197.389,622.27Z" transform="translate(-190.593 -620.846)"/><path class="b" d="M109.389,622.27a.684.684,0,0,1-.565-.848.775.775,0,0,1,.848-.565c2.614.565,2.967,2.473,3.321,4.239.283,1.342.495,2.614,2.261,2.685a.726.726,0,0,1,.707.777.649.649,0,0,1-.707.636c-2.967-.071-3.321-1.908-3.674-3.815C111.3,624.036,111.014,622.623,109.389,622.27Z" transform="translate(-108.811 -620.846)"/></g></g><path class="b" d="M518.741,478.759a1,1,0,0,1,1.766.918l-5.228,10.386a1.064,1.064,0,0,1-1.342.495h0l-4.38-1.908-2.685,4.734a1.029,1.029,0,0,1-1.413.353.948.948,0,0,1-.353-1.342l3.038-5.44a1.064,1.064,0,0,1,1.342-.495l4.38,1.837Z" transform="translate(-469.285 -444.422)"/><path class="a" d="M675.685,404a2.684,2.684,0,0,1,2.685,2.685,2.686,2.686,0,1,1-5.37,0A2.684,2.684,0,0,1,675.685,404Z" transform="translate(-625.451 -375.457)"/><path class="b" d="M674.755,404a2.609,2.609,0,0,1,1.908.777,2.8,2.8,0,0,1,.848,1.908,2.834,2.834,0,0,1-.848,1.978,2.73,2.73,0,0,1-3.815,0,2.833,2.833,0,0,1-.848-1.978,2.8,2.8,0,0,1,.848-1.908A2.609,2.609,0,0,1,674.755,404Zm1.908.777a2.73,2.73,0,0,0-3.815,0,2.729,2.729,0,0,0-.777,1.908,2.609,2.609,0,0,0,.777,1.908,2.73,2.73,0,0,0,3.815,0,2.609,2.609,0,0,0,.777-1.908A2.73,2.73,0,0,0,676.663,404.777Z" transform="translate(-624.522 -375.457)"/><ellipse class="b" cx="5.5" cy="6" rx="5.5" ry="6" transform="translate(32.507 29)"/><path class="b" d="M699.406,442.673a1.034,1.034,0,0,1-1.342-.565,1.1,1.1,0,0,1,.565-1.342l6.571-2.826a1.011,1.011,0,0,1,1.342.565.937.937,0,0,1-.565,1.272Z" transform="translate(-648.677 -406.923)"/><path class="b" d="M623.818,626.928a.943.943,0,0,1,0-1.413,1.074,1.074,0,0,1,1.413,0l4.451,4.522a1.093,1.093,0,0,1-.071,1.484,1,1,0,0,1-1.413-.071Z" transform="translate(-579.448 -581.075)"/></g></g></svg>