<svg xmlns="http://www.w3.org/2000/svg" width="49.952" height="52.556" viewBox="0 0 49.952 52.556"><defs><style>.a{fill:#ff7949;}</style></defs><path class="a" d="M51.524,8.52V44.037a8.531,8.531,0,0,1-8.517,8.52H10.091a8.53,8.53,0,0,1-8.519-8.52V11.121a8.488,8.488,0,0,1,4.4-7.411A8.508,8.508,0,0,1,12.994,0H43.006A8.528,8.528,0,0,1,51.524,8.52ZM6.024,41.435a6.914,6.914,0,0,0,.107,1.048l2.61-.768c-.008-.094-.029-.186-.029-.282A3.788,3.788,0,1,1,9.176,43.2l-2.654.778A6.966,6.966,0,0,0,12.994,48.4h5.034V1.548H12.994A6.943,6.943,0,0,0,7.976,3.7a7.025,7.025,0,0,0-.885,1.15A6.9,6.9,0,0,0,6.023,8.518v2.288l2.714-.795c-.007-.1-.028-.187-.028-.283A3.787,3.787,0,1,1,9.173,11.5l-3.152.924v8.55l2.714-.795c-.007-.1-.028-.187-.028-.283a3.788,3.788,0,1,1,.464,1.768l-3.152.925V31.62l2.714-.8c-.007-.094-.028-.185-.028-.282a3.786,3.786,0,1,1,.463,1.768l-3.152.925v8.2h.007Zm6.645-10.147-1.929.565a2.156,2.156,0,0,0,1.71.883,2.19,2.19,0,1,0-2.156-2.364L12.23,29.8Zm0-10.649L10.74,21.2a2.156,2.156,0,0,0,1.71.883,2.19,2.19,0,1,0-2.156-2.363l1.936-.569Zm0-10.165-1.929.565a2.153,2.153,0,0,0,1.71.883,2.19,2.19,0,1,0-2.156-2.364l1.936-.569Zm0,31.7-1.929.565a2.156,2.156,0,0,0,1.71.883,2.19,2.19,0,1,0-2.156-2.364l1.936-.569ZM3.12,11.66l1.356-.4V8.518a8.425,8.425,0,0,1,.172-1.7,6.9,6.9,0,0,0-1.528,4.3v.54Zm0,10.166,1.356-.4V12.876l-1.356.4v8.551Zm0,10.649,1.356-.4V23.041l-1.356.4v9.035Zm0,10.89,1.507-.444a8.453,8.453,0,0,1-.152-1.488V33.688l-1.356.4v9.279ZM49.072,47.4a8.483,8.483,0,0,1-6.065,2.552H13a8.51,8.51,0,0,1-7.952-5.538l-1.83.535a6.954,6.954,0,0,0,6.877,6.054H43.006A6.951,6.951,0,0,0,49.072,47.4Z" transform="translate(-1.572)"/></svg>