<svg xmlns="http://www.w3.org/2000/svg" width="54.6" height="63" viewBox="0 0 54.6 63"><defs><style>.a{fill:#fc2e2e;}</style></defs><g transform="translate(-32)"><g transform="translate(32)"><g transform="translate(0)"><path class="a" d="M81.35,0H37.25A5.256,5.256,0,0,0,32,5.25v52.5A5.256,5.256,0,0,0,37.25,63h44.1a5.256,5.256,0,0,0,5.25-5.25V5.25A5.256,5.256,0,0,0,81.35,0ZM84.5,57.75a3.154,3.154,0,0,1-3.15,3.15H37.25a3.154,3.154,0,0,1-3.15-3.15V5.25A3.154,3.154,0,0,1,37.25,2.1h44.1A3.154,3.154,0,0,1,84.5,5.25Z" transform="translate(-32)"/></g></g><g transform="translate(36.2 5.25)"><g transform="translate(0)"><path class="a" d="M109.15,40H65.05A1.05,1.05,0,0,0,64,41.05v50.4a1.05,1.05,0,0,0,1.05,1.05h44.1a1.05,1.05,0,0,0,1.05-1.05V41.05A1.05,1.05,0,0,0,109.15,40ZM86.05,90.4H66.1V88.3H86.05Zm0-4.2H66.1V84.1H86.05Zm0-4.2H66.1V79.9H86.05Zm0-4.2H66.1V75.7H86.05Zm0-4.2H66.1V71.5H86.05Zm0-4.2H66.1V67.3H86.05Zm0-4.2H66.1V63.1H86.05Zm0-4.2H66.1V58.9H86.05Zm0-4.2H66.1V54.7H86.05Zm0-4.2H66.1V50.5H86.05Zm0-4.2H66.1V46.3H86.05Zm0-4.2H66.1V42.1H86.05ZM108.1,90.4H88.15V88.3H108.1Zm0-4.2H88.15V84.1H108.1Zm0-4.2H88.15V79.9H108.1Zm0-4.2H88.15V75.7H108.1Zm0-4.2H88.15V71.5H108.1Zm0-4.2H88.15V67.3H108.1Zm0-4.2H88.15V63.1H108.1Zm0-4.2H88.15V58.9H108.1Zm0-4.2H88.15V54.7H108.1Zm0-4.2H88.15V50.5H108.1Zm0-4.2H88.15V46.3H108.1Zm0-4.2H88.15V42.1H108.1Z" transform="translate(-64 -40)"/></g></g></g></svg>