<svg xmlns="http://www.w3.org/2000/svg" width="49.277" height="39.855" viewBox="0 0 49.277 39.855"><defs><style>.a{fill:#ff7949;}</style></defs><g transform="translate(0 0)"><path class="a" d="M206.285,169.039a5.293,5.293,0,0,0-1.444,10.385v16.467a1.444,1.444,0,1,0,2.887,0V179.424a5.293,5.293,0,0,0-1.444-10.385Z" transform="translate(-181.646 -157.48)"/><path class="a" d="M135.9,139.874a1.444,1.444,0,0,0-2.042,0,11.447,11.447,0,0,0,0,16.2,1.444,1.444,0,0,0,2.042-2.042,8.561,8.561,0,0,1,0-12.114A1.444,1.444,0,0,0,135.9,139.874Z" transform="translate(-117.942 -130.74)"/><path class="a" d="M323.455,139.875a1.444,1.444,0,0,0-2.042,2.042,8.576,8.576,0,0,1,0,12.114,1.444,1.444,0,0,0,2.042,2.042A11.466,11.466,0,0,0,323.455,139.875Z" transform="translate(-290.096 -130.741)"/><path class="a" d="M73.807,96.662a1.444,1.444,0,0,0-2.042-2.042,17.633,17.633,0,0,0,0,24.909,1.444,1.444,0,0,0,2.042-2.042A14.743,14.743,0,0,1,73.807,96.662Z" transform="translate(-60.203 -89.842)"/><path class="a" d="M368.71,94.62a1.444,1.444,0,0,0-2.042,2.042,14.743,14.743,0,0,1,0,20.825,1.444,1.444,0,0,0,2.042,2.042A17.633,17.633,0,0,0,368.71,94.62Z" transform="translate(-330.996 -89.842)"/><path class="a" d="M9.248,51.407a1.444,1.444,0,1,0-2.042-2.042c-9.619,9.619-9.6,24.022,0,33.62a1.444,1.444,0,0,0,2.042-2.042A20.428,20.428,0,0,1,9.248,51.407Z" transform="translate(0 -48.942)"/><path class="a" d="M413.965,49.365a1.444,1.444,0,1,0-2.042,2.042,20.427,20.427,0,0,1,0,29.537,1.444,1.444,0,1,0,2.042,2.042C423.584,73.366,423.563,58.963,413.965,49.365Z" transform="translate(-371.895 -48.942)"/></g></svg>