<svg xmlns="http://www.w3.org/2000/svg" width="52.222" height="52.221" viewBox="0 0 52.222 52.221"><defs><style>.a{fill:#ff7949;}</style></defs><g transform="translate(0 0)"><path class="a" d="M5.385,35.812A12.192,12.192,0,0,1,20.44,31.835L7.527,2.2C5.819-1.373,0-.385,0,3.674V3.98a4.989,4.989,0,0,0,.061.673Z" transform="translate(0 -0.002)"/><path class="a" d="M104.572,30H65.12c12.672,28.985,14.8,33.96,14.945,34.289-.067-.155-.5-1.141.01.014a1.53,1.53,0,0,1-2.757,1.325A9.2,9.2,0,1,0,69.18,79.16h35.392a1.529,1.529,0,0,0,1.53-1.53v-46.1A1.529,1.529,0,0,0,104.572,30Z" transform="translate(-53.88 -26.939)"/></g></svg>