<svg xmlns="http://www.w3.org/2000/svg" width="52.221" height="52.221" viewBox="0 0 52.221 52.221"><defs><style>.a{fill:#ff7949;fill-rule:evenodd;}</style></defs><g transform="translate(0 0)"><path class="a" d="M44.568,7.653a26.084,26.084,0,0,0-36.915,0A26.111,26.111,0,0,0,26.111,52.221,26.129,26.129,0,0,0,52.221,26.111,26.006,26.006,0,0,0,44.568,7.653Zm-1.05,10.954a1.172,1.172,0,0,1,.6.6,11.246,11.246,0,0,1,.75,2.4,1.632,1.632,0,0,1-.15.75.825.825,0,0,1-.75.45l-10.2,2.1h-.15a1.128,1.128,0,0,1-1.05-.75.9.9,0,0,1,.6-1.2l9.454-4.352A.957.957,0,0,1,43.518,18.608ZM32.263,16.357l.75-6.753a1,1,0,0,1,.6-.75.992.992,0,0,1,.9-.15,22.431,22.431,0,0,1,5.7,4.2.992.992,0,0,1,.15.9c0,.45-.3.6-.6.75l-6,2.851h-.45a.9.9,0,0,1-.6-.15A1.07,1.07,0,0,1,32.263,16.357ZM24.16,7.2a1.146,1.146,0,0,1,.75-.3,6.459,6.459,0,0,1,2.4,0,1.146,1.146,0,0,1,.75.3,1.1,1.1,0,0,1,.3.9l-1.2,10.5c0,.6-.45.9-1.05.9s-1.05-.3-1.05-.9L23.86,8.1A1.1,1.1,0,0,1,24.16,7.2Zm1.951,15.756a3.151,3.151,0,1,1-3.151,3.151A3.077,3.077,0,0,1,26.111,22.959ZM12,12.905a22.431,22.431,0,0,1,5.7-4.2.992.992,0,0,1,.9.15,1,1,0,0,1,.6.75l.75,6.753a1.07,1.07,0,0,1-.45.9.9.9,0,0,1-.6.15h-.45l-6-2.851c-.3-.15-.6-.3-.6-.75A.992.992,0,0,1,12,12.905Zm-4.652,8.7c.3-.9.45-1.651.75-2.4a1.172,1.172,0,0,1,.6-.6.957.957,0,0,1,.9,0l9.454,4.352a.9.9,0,0,1,.6,1.2,1.128,1.128,0,0,1-1.05.75h-.15l-10.2-2.1a.825.825,0,0,1-.75-.45A1.632,1.632,0,0,1,7.353,21.609Zm2.7,14.256h0a.907.907,0,0,1-.9-.45,20.34,20.34,0,0,1-2.1-6.453c0-.3,0-.75.3-.9a1.1,1.1,0,0,1,.9-.3l6.453,1.351a1,1,0,0,1,.75.6,1.137,1.137,0,0,1-.15,1.05l-4.352,4.8A2.133,2.133,0,0,1,10.054,35.865Zm6.6,6.753h-.15c-.3,0-.45,0-.6-.15a9.634,9.634,0,0,1-1.951-1.5.8.8,0,0,1-.45-.6,2.133,2.133,0,0,1,.3-.9l6.9-7.5a1.154,1.154,0,0,1,1.5-.15,1.439,1.439,0,0,1,.3,1.351l-5.1,8.854A1.5,1.5,0,0,1,16.657,42.617Zm13.505,1.951a1.5,1.5,0,0,1-.75.6,24.313,24.313,0,0,1-3.3.15,24.313,24.313,0,0,1-3.3-.15,1.5,1.5,0,0,1-.75-.6,1.282,1.282,0,0,1,0-1.05l3.151-5.4a.975.975,0,0,1,1.8,0l3.151,5.4A1.282,1.282,0,0,1,30.162,44.568Zm8.553-4.2a.8.8,0,0,1-.45.6,9.634,9.634,0,0,1-1.951,1.5c-.15.15-.3.15-.6.15h-.15a1.5,1.5,0,0,1-.75-.6l-4.952-8.854a1.027,1.027,0,0,1,1.651-1.2l6.9,7.5A2.133,2.133,0,0,1,38.716,40.366Zm4.352-4.952a.907.907,0,0,1-.9.45h0a2.133,2.133,0,0,1-.9-.3l-4.2-4.8a.861.861,0,0,1-.3-1.05,1,1,0,0,1,.75-.6l6.453-1.351a1.1,1.1,0,0,1,.9.3c.3.15.3.6.3.9A20.341,20.341,0,0,1,43.067,35.414Z" transform="translate(0 0)"/></g></svg>