<svg xmlns="http://www.w3.org/2000/svg" width="56.968" height="52.221" viewBox="0 0 56.968 52.221"><defs><style>.a{fill:#ff7949;}</style></defs><g transform="translate(0 0)"><g transform="translate(0 0)"><path class="a" d="M193.188,111.414a1.183,1.183,0,0,0,.839-.348l2.374-2.374a1.187,1.187,0,0,0-1.678-1.678l-2.374,2.374a1.187,1.187,0,0,0,.839,2.026Z" transform="translate(-170.638 -97.172)"/><path class="a" d="M199.469,107.014l-7.121,7.121a1.187,1.187,0,1,0,1.678,1.678l7.121-7.121a1.187,1.187,0,0,0-1.678-1.678Z" transform="translate(-170.637 -97.172)"/><path class="a" d="M56.187,25.424a7.362,7.362,0,0,0-6.621-4.091h-23a15.441,15.441,0,0,0-11.533,5.179L3.889,39.048A15.455,15.455,0,0,0,0,49.451L1.985,64.769A10.124,10.124,0,0,0,4.854,70.6a10.018,10.018,0,0,0,7.13,2.953H52.22a4.753,4.753,0,0,0,4.748-4.748V28.735A7.439,7.439,0,0,0,56.187,25.424ZM9.218,43.778,20.361,31.243a8.319,8.319,0,0,1,6.21-2.789h23c.11,0,.2.056.281.281V47.444H7.216A7.292,7.292,0,0,1,9.218,43.778ZM51.034,64.059H8.308a1.187,1.187,0,1,1,0-2.374H51.034a1.187,1.187,0,1,1,0,2.374Zm0-7.121H43.913a1.187,1.187,0,1,1,0-2.374h7.121a1.187,1.187,0,1,1,0,2.374Z" transform="translate(0 -21.333)"/></g></g></svg>