<svg xmlns="http://www.w3.org/2000/svg" width="55.788" height="45.645" viewBox="0 0 55.788 45.645"><defs><style>.a{fill:#fc2e2e;}</style></defs><g transform="translate(0 -42.667)"><g transform="translate(0 42.667)"><g transform="translate(0 0)"><path class="a" d="M32.966,42.667H22.822a22.822,22.822,0,0,0,0,45.645H32.966a5.078,5.078,0,0,0,5.072-5.072v-35.5A5.077,5.077,0,0,0,32.966,42.667Z" transform="translate(0 -42.667)"/><path class="a" d="M355.28,106.667H342.6a1.267,1.267,0,0,0-1.268,1.268v2.536a1.267,1.267,0,0,0,1.268,1.268H355.28a1.267,1.267,0,0,0,1.268-1.268v-2.536A1.267,1.267,0,0,0,355.28,106.667Z" transform="translate(-300.76 -99.06)"/><path class="a" d="M355.28,213.333H342.6a1.267,1.267,0,0,0-1.268,1.268v2.536A1.267,1.267,0,0,0,342.6,218.4H355.28a1.267,1.267,0,0,0,1.268-1.268V214.6A1.267,1.267,0,0,0,355.28,213.333Z" transform="translate(-300.76 -193.047)"/><path class="a" d="M355.28,320H342.6a1.267,1.267,0,0,0-1.268,1.268V323.8a1.267,1.267,0,0,0,1.268,1.268H355.28a1.267,1.267,0,0,0,1.268-1.268v-2.536A1.267,1.267,0,0,0,355.28,320Z" transform="translate(-300.76 -287.034)"/></g></g></g></svg>