<svg xmlns="http://www.w3.org/2000/svg" width="64.099" height="45.701" viewBox="0 0 64.099 45.701"><defs><style>.a{fill:#28b35f;}</style></defs><path class="a" d="M40.265,21.862l-1.181-2.8s2.74-6.182,2.5-6.42L37.958,9.1c-.253-.244-6.439,2.575-6.439,2.575L28.664,10.52s-2.528-6.266-2.869-6.266H20.67c-.355,0-2.686,6.284-2.686,6.284l-2.852,1.157S8.814,9.009,8.572,9.24L4.945,12.793c-.251.249,2.636,6.305,2.636,6.305L6.4,21.9S0,24.362,0,24.7V29.72c0,.346,6.42,2.632,6.42,2.632L7.6,35.143S4.857,41.33,5.1,41.567l3.631,3.548c.244.24,6.435-2.584,6.435-2.584l2.856,1.161s2.521,6.262,2.867,6.262h5.125c.352,0,2.69-6.284,2.69-6.284l2.854-1.157s6.31,2.686,6.554,2.454l3.628-3.553c.249-.24-2.64-6.3-2.64-6.3l1.181-2.8s6.407-2.472,6.407-2.809V24.489C46.687,24.145,40.265,21.862,40.265,21.862ZM23.342,34.425a7.323,7.323,0,1,1,7.48-7.324A7.415,7.415,0,0,1,23.342,34.425Z" transform="translate(0 -4.254)"/><path class="a" d="M38.922,16.014l.03-1.462a24.623,24.623,0,0,0,2.359-2.327l-.9-2.266a24.366,24.366,0,0,0-3.339-.134L36.052,8.762a23.972,23.972,0,0,0-.028-3.315l-2.251-1.01a22.459,22.459,0,0,0-2.415,2.238l-1.479-.058a25.566,25.566,0,0,0-2.4-2.361l-2.294.85a23.635,23.635,0,0,0-.078,3.282l-1.07,1a25.518,25.518,0,0,0-3.36-.03l-.988,2.206a23.646,23.646,0,0,0,2.3,2.42l-.03,1.453a24.66,24.66,0,0,0-2.357,2.331l.9,2.268a25,25,0,0,0,3.336.128l1.023,1.068a23.993,23.993,0,0,0,.035,3.315l2.251,1.005a22.756,22.756,0,0,0,2.413-2.225l1.481.05a25.607,25.607,0,0,0,2.4,2.366l2.288-.85a23.056,23.056,0,0,0,.082-3.287l1.068-.993a25.576,25.576,0,0,0,3.362.022l.988-2.206A24.833,24.833,0,0,0,38.922,16.014Zm-5.174.448A3.6,3.6,0,1,1,31.9,11.778,3.571,3.571,0,0,1,33.747,16.462Z" transform="translate(22.787 -4.253)"/></svg>