<svg xmlns="http://www.w3.org/2000/svg" width="74.03" height="30.847" viewBox="0 0 74.03 30.847"><defs><style>.a{fill:#fc2e2e;}</style></defs><g transform="translate(0 0)"><path class="a" d="M71.946,159.591a3.085,3.085,0,0,0,2.181-5.265l-3.084-3.084a3.083,3.083,0,0,0-4.031-.287l-2.829,2.119-18.439,8.563-2.8-6.369a3.08,3.08,0,0,0-2.822-1.844H13.341a3.055,3.055,0,0,0-2.23.975L5.8,150.856a3.085,3.085,0,1,0-3.424,5.133l7.881,5.253V178.1a3.084,3.084,0,0,0,3.084,3.084H51.3a3.081,3.081,0,0,0,2.588-1.41l14.176-21.9.5-.376,1.194,1.194A3.075,3.075,0,0,0,71.946,159.591Z" transform="translate(-1.001 -150.336)"/><path class="a" d="M473.43,235.682a3.084,3.084,0,0,0-3.084,3.084v3.084a3.084,3.084,0,1,0,6.169,0v-3.084A3.084,3.084,0,0,0,473.43,235.682Z" transform="translate(-402.485 -223.342)"/></g></svg>