<svg xmlns="http://www.w3.org/2000/svg" width="66.539" height="40.817" viewBox="0 0 66.539 40.817"><defs><style>.a{fill:#ff7949;}</style></defs><path class="a" d="M66.31,127.861c-.811-2.845-6.063-21.279-7.015-24.609a5.914,5.914,0,0,0-5.734-4.325H35.22v4.815h3.114a1.95,1.95,0,1,1,0,3.9H28.206a1.95,1.95,0,1,1,0-3.9H31.32V98.927H12.975a5.913,5.913,0,0,0-5.735,4.329S1.055,124.968.229,127.861a5.972,5.972,0,0,0,4.09,7.367q4.167,1.2,8.109,2.07l14.951-14.951a1.95,1.95,0,0,1,2.758,2.758L17.02,138.223a92.321,92.321,0,0,0,15.335,1.522l16.179-16.179a1.95,1.95,0,0,1,2.758,2.758L38,139.611a110.849,110.849,0,0,0,24.217-4.383A5.972,5.972,0,0,0,66.31,127.861Z" transform="translate(0 -98.927)"/></svg>