<svg xmlns="http://www.w3.org/2000/svg" width="68.734" height="52.221" viewBox="0 0 68.734 52.221"><defs><style>.a{fill:#ff7949;fill-rule:evenodd;}</style></defs><path class="a" d="M68.734,36.947,66.67,22.292a5.976,5.976,0,0,0-5.779-4.954H43.139V11.559a2.952,2.952,0,0,0-2.89-2.89H37.36V0H31.374V8.669h-2.89a2.952,2.952,0,0,0-2.89,2.89v5.779H7.843a5.976,5.976,0,0,0-5.779,4.954L0,36.947v.826a5.907,5.907,0,0,0,5.779,5.779H62.954a5.907,5.907,0,0,0,5.779-5.779v-.826Z"/><path class="a" d="M106.238,228.715a2.85,2.85,0,0,0,2.683,2.064h17.545a2.85,2.85,0,0,0,2.683-2.064L130.388,225H105Z" transform="translate(-83.327 -178.558)"/></svg>