<svg xmlns="http://www.w3.org/2000/svg" width="51.94" height="51.886" viewBox="0 0 51.94 51.886"><defs><style>.a{fill:#ff7949;fill-rule:evenodd;}</style></defs><path class="a" d="M51.615,17.658,34.229.272A1.456,1.456,0,0,0,33.414,0,1.247,1.247,0,0,0,32.6.543L31.512,2.717a1.723,1.723,0,0,0-.136.815l.815,2.852A41.836,41.836,0,0,1,21.6,24.177l-6.52,6.656-.272-.272a1.066,1.066,0,0,0-1.494,0L11.274,32.6a6.091,6.091,0,0,0-1.494-.136,9.712,9.712,0,1,0,9.644,9.78,6.613,6.613,0,0,0-.136-1.63l2.037-2.037a1.066,1.066,0,0,0,0-1.494l-.272-.272,6.656-6.52A44.136,44.136,0,0,1,45.5,19.7l2.852.815a.9.9,0,0,0,.815-.136l2.173-.951c.272-.272.543-.543.543-.815A.84.84,0,0,0,51.615,17.658Z"/></svg>