<svg xmlns="http://www.w3.org/2000/svg" width="40.202" height="53.603" viewBox="0 0 40.202 53.603"><defs><style>.a{fill:#ff7949;}</style></defs><g transform="translate(0)"><path class="a" d="M101.175,38.069a17.621,17.621,0,0,0,.794-5.188,17.912,17.912,0,0,0-.92-5.672l-2.517-7.551a7.727,7.727,0,0,0-5.446-5.093c-.925-.232-2.1-.478-3.4-.688v-2.71H90.8a2.236,2.236,0,0,0,2.233-2.233V4.467A4.472,4.472,0,0,0,88.568,0H79.634a4.472,4.472,0,0,0-4.467,4.467V8.934A2.236,2.236,0,0,0,77.4,11.167h1.117v2.71c-1.3.21-2.475.455-3.4.688a7.727,7.727,0,0,0-5.446,5.093l-2.517,7.551a17.915,17.915,0,0,0-.92,5.672,17.621,17.621,0,0,0,.794,5.188A3.88,3.88,0,0,0,64,41.845c0,1.782.34,6.126,1.13,8.092l.491,1.228a3.856,3.856,0,0,0,3.6,2.437H99.146a3.858,3.858,0,0,0,3.468-2.143c1.121-2.246,1.588-6.946,1.588-8.962v-.652A3.88,3.88,0,0,0,101.175,38.069ZM73.512,29.328l2.517-7.554a1.077,1.077,0,0,1,.722-.711,28.557,28.557,0,0,1,14.7,0,1.081,1.081,0,0,1,.724.714l2.517,7.551a11.194,11.194,0,0,1,.578,3.553,11.317,11.317,0,0,1-1.18,5.017L92.409,41.2a34.971,34.971,0,0,0-16.616,0L74.12,37.91a11.32,11.32,0,0,1-1.186-5.028A11.2,11.2,0,0,1,73.512,29.328Zm22.11,18.633c-.144.048-3.614,1.175-11.521,1.175S72.724,48.009,72.58,47.961a1.116,1.116,0,0,1,.7-2.119c.033.01,3.339,1.06,10.818,1.06s10.786-1.05,10.818-1.06a1.116,1.116,0,0,1,.7,2.119Z" transform="translate(-64)"/></g></svg>