<svg xmlns="http://www.w3.org/2000/svg" width="45" height="54" viewBox="0 0 45 54"><defs><style>.a{fill:#fc2e2e;}</style></defs><g transform="translate(-16)"><g transform="translate(16)"><path class="a" d="M61,28.5V24H16v4.5h2.25V60H16v4.5H61V60H58.75V28.5ZM25,60V28.5h4.5V60Zm11.25,0V28.5h4.5V60ZM52,60H47.5V28.5H52Z" transform="translate(-16 -17.25)"/><path class="a" d="M75,2.25A2.25,2.25,0,0,0,72.75,0H50.25A2.25,2.25,0,0,0,48,2.25V4.5H75Z" transform="translate(-39)"/><path class="a" d="M48,178.25a2.25,2.25,0,0,0,2.25,2.25h22.5A2.25,2.25,0,0,0,75,178.25V176H48Z" transform="translate(-39 -126.5)"/></g></g></svg>