<svg xmlns="http://www.w3.org/2000/svg" width="61.417" height="33.805" viewBox="0 0 61.417 33.805"><defs><style>.a{fill:#ff7949;}</style></defs><g transform="translate(0 0)"><path class="a" d="M429,247.911h-3.467v8.9a12.539,12.539,0,0,1-3.759,8.958H429a3.6,3.6,0,0,0,3.6-3.6V251.51A3.6,3.6,0,0,0,429,247.911Z" transform="translate(-371.186 -231.98)"/><path class="a" d="M50.753,124.075a8.976,8.976,0,0,0-9.894-8.932c-7.31.749-17.32,1.776-25.529,4.376a30.1,30.1,0,0,0-10.651,5.413A12.317,12.317,0,0,0,0,134.539,14.378,14.378,0,0,0,14.362,148.9H41.774a8.989,8.989,0,0,0,8.978-8.978Zm-35.1,15.156a1.8,1.8,0,0,1-1.272-3.072l10.183-10.183a1.8,1.8,0,0,1,2.545,2.545L16.922,138.7A1.794,1.794,0,0,1,15.649,139.23ZM33.5,132.309l-3.444,3.444a1.8,1.8,0,1,1-2.544-2.545l3.444-3.444a1.8,1.8,0,0,1,2.544,2.545Zm4.583-4.47-.6.6a1.8,1.8,0,1,1-2.545-2.545l.6-.6a1.8,1.8,0,1,1,2.545,2.545Z" transform="translate(0 -115.096)"/></g></svg>