<?xml version="1.0" encoding="utf-8"?>
<!-- Generator: Adobe Illustrator 19.0.0, SVG Export Plug-In . SVG Version: 6.00 Build 0)  -->
<svg version="1.1" id="Layer_1" xmlns="http://www.w3.org/2000/svg" xmlns:xlink="http://www.w3.org/1999/xlink" x="0px" y="0px"
	 viewBox="-289 382.8 31.4 29.2" style="enable-background:new -289 382.8 31.4 29.2;" xml:space="preserve">
<style type="text/css">
	.st0{fill:#FF6633;}
</style>
<g id="initial-inspection" transform="translate(0 0)">
	<g id="Group_148" transform="translate(0 0)">
		<path id="symbol" class="st0" d="M-272.1,396.5l-1.3-0.3c-0.1-0.4-0.3-0.7-0.4-1l0.7-1.1c0.1-0.2,0.1-0.5-0.1-0.6l-2.1-2.1
			c-0.2-0.2-0.4-0.2-0.6-0.1l-1.1,0.7c-0.3-0.2-0.7-0.3-1-0.4l-0.3-1.3c-0.1-0.2-0.3-0.4-0.5-0.4h-2.9c-0.2,0-0.4,0.2-0.5,0.4
			l-0.3,1.3c-0.4,0.1-0.7,0.3-1,0.4l-1.1-0.7c-0.2-0.1-0.5-0.1-0.6,0.1l-2.1,2.1c-0.2,0.2-0.2,0.4-0.1,0.6l0.7,1.1
			c-0.2,0.3-0.3,0.7-0.4,1l-1.3,0.3c-0.2,0.1-0.4,0.3-0.4,0.5v2.9c0,0.2,0.2,0.4,0.4,0.5l1.3,0.3c0.1,0.4,0.3,0.7,0.4,1l-0.7,1.1
			c-0.1,0.2-0.1,0.5,0.1,0.6l2.1,2.1c0.2,0.2,0.4,0.2,0.6,0.1l1.1-0.7c0.3,0.2,0.7,0.3,1,0.4l0.3,1.3c0.1,0.2,0.3,0.4,0.5,0.4h2.9
			c0.2,0,0.4-0.2,0.5-0.4l0.3-1.3c0.4-0.1,0.7-0.3,1-0.4l1.1,0.7c0.2,0.1,0.5,0.1,0.6-0.1l2.1-2.1c0.2-0.2,0.2-0.4,0.1-0.6l-0.7-1.1
			c0.2-0.3,0.3-0.7,0.4-1l1.3-0.3c0.2-0.1,0.4-0.3,0.4-0.5V397C-271.7,396.7-271.9,396.5-272.1,396.5z M-277.3,398.5
			c0,1.7-1.4,3.1-3.1,3.1c-1.7,0-3.1-1.4-3.1-3.1c0-1.7,1.4-3.1,3.1-3.1c0,0,0,0,0,0C-278.7,395.4-277.3,396.7-277.3,398.5z"/>
		<path id="symbol-2" class="st0" d="M-258.8,387.2l-0.9-0.2c-0.1-0.2-0.2-0.5-0.3-0.7l0.5-0.8c0.1-0.1,0.1-0.3,0-0.4l-1.4-1.4
			c-0.1-0.1-0.3-0.1-0.4,0l-0.8,0.5c-0.2-0.1-0.4-0.2-0.7-0.3l-0.2-0.9c0-0.2-0.2-0.3-0.3-0.3h-1.9c-0.2,0-0.3,0.1-0.3,0.3l-0.2,0.9
			c-0.2,0.1-0.5,0.2-0.7,0.3l-0.8-0.5c-0.1-0.1-0.3-0.1-0.4,0l-1.4,1.4c-0.1,0.1-0.1,0.3,0,0.4l0.5,0.8c-0.1,0.2-0.2,0.4-0.3,0.7
			l-0.9,0.2c-0.2,0-0.3,0.2-0.3,0.3v1.9c0,0.2,0.1,0.3,0.3,0.3l0.9,0.2c0.1,0.2,0.2,0.5,0.3,0.7l-0.5,0.8c-0.1,0.1-0.1,0.3,0,0.4
			l1.4,1.4c0.1,0.1,0.3,0.1,0.4,0l0.8-0.5c0.2,0.1,0.4,0.2,0.7,0.3l0.2,0.9c0,0.2,0.2,0.3,0.3,0.3h1.9c0.2,0,0.3-0.1,0.3-0.3
			l0.2-0.9c0.2-0.1,0.5-0.2,0.7-0.3l0.8,0.5c0.1,0.1,0.3,0.1,0.4,0l1.4-1.4c0.1-0.1,0.1-0.3,0-0.4l-0.5-0.8c0.1-0.2,0.2-0.4,0.3-0.7
			l0.9-0.2c0.2,0,0.3-0.2,0.3-0.3v-1.9C-258.5,387.4-258.6,387.2-258.8,387.2z M-262.2,388.5c0,1.1-0.9,2-2,2c-1.1,0-2-0.9-2-2
			c0-1.1,0.9-2,2-2C-263.1,386.5-262.2,387.4-262.2,388.5z"/>
		<path id="symbol-3" class="st0" d="M-257.9,405l-0.9-0.2c-0.1-0.2-0.2-0.5-0.3-0.7l0.5-0.8c0.1-0.1,0.1-0.3,0-0.4l-1.4-1.4
			c-0.1-0.1-0.3-0.1-0.4,0l-0.8,0.5c-0.2-0.1-0.4-0.2-0.7-0.3l-0.2-0.9c0-0.2-0.2-0.3-0.3-0.3h-1.9c-0.2,0-0.3,0.1-0.3,0.3l-0.2,0.9
			c-0.2,0.1-0.5,0.2-0.7,0.3l-0.8-0.5c-0.1-0.1-0.3-0.1-0.4,0l-1.4,1.4c-0.1,0.1-0.1,0.3,0,0.4l0.5,0.8c-0.1,0.2-0.2,0.4-0.3,0.7
			l-0.9,0.2c-0.2,0-0.3,0.2-0.3,0.3v1.9c0,0.2,0.1,0.3,0.3,0.3l0.9,0.2c0.1,0.2,0.2,0.5,0.3,0.7l-0.5,0.8c-0.1,0.1-0.1,0.3,0,0.4
			l1.4,1.4c0.1,0.1,0.3,0.1,0.4,0l0.8-0.5c0.2,0.1,0.4,0.2,0.7,0.3l0.2,0.9c0,0.2,0.2,0.3,0.3,0.3h1.9c0.2,0,0.3-0.1,0.3-0.3
			l0.2-0.9c0.2-0.1,0.5-0.2,0.7-0.3l0.8,0.5c0.1,0.1,0.3,0.1,0.4,0l1.4-1.4c0.1-0.1,0.1-0.3,0-0.4l-0.5-0.8c0.1-0.2,0.2-0.4,0.3-0.7
			l0.9-0.2c0.2,0,0.3-0.2,0.3-0.3v-1.9C-257.6,405.2-257.7,405-257.9,405z M-261.3,406.3c0,1.1-0.9,2-2,2c-1.1,0-2-0.9-2-2
			c0-1.1,0.9-2,2-2C-262.2,404.3-261.3,405.2-261.3,406.3z"/>
	</g>
</g>
</svg>
