<svg xmlns="http://www.w3.org/2000/svg" width="19.355" height="18.009" viewBox="0 0 19.355 18.009"><defs><style>.a{fill:#161616;}</style></defs><g transform="translate(0)"><path class="a" d="M10.409,4.116,9.59,3.938A4.459,4.459,0,0,0,9.326,3.3L9.779,2.6a.319.319,0,0,0-.043-.4L8.46.923a.319.319,0,0,0-.4-.043l-.706.454a4.459,4.459,0,0,0-.636-.264L6.544.251A.319.319,0,0,0,6.232,0h-1.8a.319.319,0,0,0-.311.251l-.178.819a4.459,4.459,0,0,0-.636.264L2.6.88a.319.319,0,0,0-.4.043L.923,2.2a.319.319,0,0,0-.043.4l.454.706a4.459,4.459,0,0,0-.264.636l-.819.178A.319.319,0,0,0,0,4.427v1.8a.319.319,0,0,0,.251.311l.819.178a4.459,4.459,0,0,0,.264.636L.88,8.063a.319.319,0,0,0,.043.4L2.2,9.737a.319.319,0,0,0,.4.043L3.3,9.326a4.459,4.459,0,0,0,.636.264l.178.819a.319.319,0,0,0,.311.251h1.8a.319.319,0,0,0,.311-.251l.178-.819a4.459,4.459,0,0,0,.636-.264l.706.454a.318.318,0,0,0,.4-.043L9.737,8.46a.319.319,0,0,0,.043-.4l-.454-.706a4.459,4.459,0,0,0,.264-.636l.819-.178a.319.319,0,0,0,.251-.311v-1.8A.319.319,0,0,0,10.409,4.116ZM7.241,5.33A1.911,1.911,0,1,1,5.33,3.419,1.913,1.913,0,0,1,7.241,5.33Zm0,0" transform="translate(0 4.319)"/><path class="a" d="M6.857,2.711l-.54-.117a2.937,2.937,0,0,0-.174-.419l.3-.465a.21.21,0,0,0-.028-.262L5.573.608A.21.21,0,0,0,5.312.58l-.465.3A2.937,2.937,0,0,0,4.428.7L4.311.165A.21.21,0,0,0,4.106,0H2.917a.21.21,0,0,0-.205.165L2.594.7a2.937,2.937,0,0,0-.419.174L1.711.58a.21.21,0,0,0-.262.028l-.841.841A.21.21,0,0,0,.58,1.71l.3.465A2.937,2.937,0,0,0,.7,2.594l-.54.117A.21.21,0,0,0,0,2.916V4.106a.21.21,0,0,0,.165.205l.54.117a2.937,2.937,0,0,0,.174.419l-.3.465a.21.21,0,0,0,.028.262l.841.841a.21.21,0,0,0,.262.028l.465-.3a2.937,2.937,0,0,0,.419.174l.117.54a.21.21,0,0,0,.205.165H4.106a.21.21,0,0,0,.205-.165l.117-.54a2.937,2.937,0,0,0,.419-.174l.465.3a.21.21,0,0,0,.262-.028l.841-.841a.21.21,0,0,0,.028-.262l-.3-.465a2.938,2.938,0,0,0,.174-.419l.54-.117a.21.21,0,0,0,.165-.205V2.916A.21.21,0,0,0,6.857,2.711Zm-2.087.8A1.259,1.259,0,1,1,3.511,2.252,1.26,1.26,0,0,1,4.77,3.511Zm0,0" transform="translate(11.782 0)"/><path class="a" d="M6.857,2.711l-.54-.117a2.937,2.937,0,0,0-.174-.419l.3-.465a.21.21,0,0,0-.028-.262L5.573.608A.21.21,0,0,0,5.312.58l-.465.3A2.937,2.937,0,0,0,4.428.7L4.311.165A.21.21,0,0,0,4.106,0H2.917a.21.21,0,0,0-.205.165L2.594.7a2.937,2.937,0,0,0-.419.174L1.711.58a.21.21,0,0,0-.262.028l-.841.841A.21.21,0,0,0,.58,1.71l.3.465A2.937,2.937,0,0,0,.7,2.594l-.54.117A.21.21,0,0,0,0,2.916V4.106a.21.21,0,0,0,.165.205l.54.117a2.937,2.937,0,0,0,.174.419l-.3.465a.21.21,0,0,0,.028.262l.841.841a.21.21,0,0,0,.262.028l.465-.3a2.937,2.937,0,0,0,.419.174l.117.54a.21.21,0,0,0,.205.165H4.106a.21.21,0,0,0,.205-.165l.117-.54a2.937,2.937,0,0,0,.419-.174l.465.3a.21.21,0,0,0,.262-.028l.841-.841a.21.21,0,0,0,.028-.262l-.3-.465a2.938,2.938,0,0,0,.174-.419l.54-.117a.21.21,0,0,0,.165-.205V2.916A.21.21,0,0,0,6.857,2.711Zm-2.087.8A1.259,1.259,0,1,1,3.511,2.252,1.26,1.26,0,0,1,4.77,3.511Zm0,0" transform="translate(12.333 10.986)"/></g></svg>