<svg height="512pt" fill="#686c74" viewBox="0 0 512.29284 512" width="512pt" xmlns="http://www.w3.org/2000/svg"><path d="m225.332031 196.921875c1.570313-5.96875 5.460938-11.0625 10.8125-14.144531l73.445313-42.429688c5.34375-3.074218 11.695312-3.898437 17.648437-2.285156 5.96875 1.589844 11.039063 5.519531 14.074219 10.898438l22.777344 39.542968c17.453125-2.570312 35.191406-2.570312 52.644531 0l22.8125-39.59375c3.03125-5.355468 8.089844-9.265625 14.035156-10.847656 5.933594-1.609375 12.261719-.800781 17.597657 2.25l.699218.402344c-5.855468-24.378906-18.332031-46.660156-36.046875-64.398438-1.992187-1.992187-4.121093-3.761718-6.199219-5.605468l-56.667968 57.453124c-9.074219 9.066407-23.753906 9.128907-32.902344.140626l-32.492188-32.09375c-8.046874 3.535156-16.335937 6.488281-24.800781 8.835937-8.5 2.347656-17.15625 4.078125-25.902343 5.179687l-11.484376 44.171876c-2.613281 10.242187-11.828124 17.417968-22.398437 17.441406-1.960937 0-3.914063-.25-5.8125-.734375l-15.078125-4.363281c-1.890625 37.753906 11.945312 74.601562 38.214844 101.785156 3.148437-4.976563 6.550781-9.789063 10.1875-14.417969l-22.792969-39.570313c-3.113281-5.320312-3.964844-11.664062-2.371094-17.617187zm0 0"/><path d="m338.570312.148438c-90.421874-.054688-165.742187 69.304687-173.128906 159.421874-7.390625 90.121094 55.628906 170.820313 144.855469 185.492188.109375-.015625.199219-.082031.308594-.09375 1.511719-.101562 3.027343.179688 4.402343.816406 40.089844 5.890625 80.960938-2.839844 115.148438-24.59375.1875-.164062.445312-.246094.648438-.394531 65.632812-41.078125 96.117187-120.667969 74.710937-195.082031-21.402344-74.410156-89.515625-125.6406252-166.945313-125.566406zm110.1875 283.046874c-58.363281 58.339844-152.167968 60.828126-213.539062 5.65625-.058594-.066406-.148438-.109374-.203125-.179687-2.023437-1.824219-4.117187-3.53125-6.0625-5.476563-34.140625-34.203124-50.394531-82.363281-43.953125-130.257812.046875-.214844-.007812-.421875.054688-.632812l.050781-.105469c7.378906-54.976563 43.570312-101.816407 94.90625-122.828125 51.335937-21.011719 109.984375-12.988282 153.789062 21.039062.464844.277344.902344.601563 1.308594.960938 35.027344 27.355468 56.597656 68.457031 59.210937 112.828125 2.613282 44.367187-13.984374 87.71875-45.5625 118.996093zm0 0"/><path d="m323.933594 309.492188c35.089844 3.84375 70.304687-6 98.308594-27.484376-35.027344-16.734374-77.035157-4.988281-98.308594 27.484376zm0 0"/><path d="m225.445312 152.859375c1.113282-.660156 1.914063-1.742187 2.222657-3l13.089843-50.34375c.972657-3.734375 4.183594-6.460937 8.027344-6.808594 9.839844-.882812 19.582032-2.652343 29.109375-5.285156 9.503907-2.640625 18.757813-6.117187 27.648438-10.394531 3.484375-1.667969 7.636719-.972656 10.386719 1.734375l37.027343 36.574219c.945313.9375 2.230469 1.457031 3.5625 1.4375 1.332031-.019532 2.601563-.574219 3.519531-1.542969l55.109376-55.859375c-38.3125-25.722656-87-30.417969-129.523438-12.5-42.523438 17.917968-73.164062 56.042968-81.511719 101.425781l17.867188 5.171875c1.191406.242188 2.429687.027344 3.464843-.609375zm0 0"/><path d="m375.140625 402.433594c30.285156-.035156 54.824219-24.574219 54.859375-54.859375 0-1.578125-.230469-3.15625-.367188-4.734375-27.960937 15.140625-59.261718 23.054687-91.0625 23.019531-5.160156 0-10.230468-.371094-15.285156-.773437 7.398438 22.347656 28.316406 37.410156 51.855469 37.347656zm0 0"/><path d="m475.488281 163.882812-13.382812-7.691406c-1.140625-.652344-2.492188-.824218-3.757813-.476562-1.242187.328125-2.296875 1.148437-2.925781 2.269531l-26 45.125c-1.933594 3.34375-5.753906 5.117187-9.554687 4.433594-19.472657-3.5625-39.433594-3.5625-58.910157 0-3.796875.667969-7.609375-1.101563-9.554687-4.433594l-25.964844-45.074219c-.632812-1.140625-1.703125-1.980468-2.964844-2.320312-1.28125-.347656-2.648437-.167969-3.792968.5l-73.367188 42.382812c-1.140625.660156-1.96875 1.746094-2.304688 3.019532-.335937 1.273437-.148437 2.628906.519532 3.761718l25.984375 45.105469c1.945312 3.367187 1.542969 7.59375-1 10.53125-5.308594 6.285156-10.105469 12.984375-14.34375 20.03125 14.921875 11.730469 32.136719 20.207031 50.535156 24.882813 12.429687-22.644532 33.46875-39.320313 58.347656-46.257813 24.882813-6.9375 51.511719-3.550781 73.867188 9.390625 27.289062-27.941406 41.328125-66.21875 38.570312-105.179688zm0 0"/><path d="m99.652344 360.777344-71.117188 71.113281 51.722656 51.71875 71.117188-71.113281c3.5625-3.578125 3.5625-9.359375 0-12.933594l-38.796875-38.789062c-3.617187-3.449219-9.308594-3.449219-12.925781.003906zm0 0"/><path d="m203.164062 347.964844c3.574219 3.5 9.300782 3.460937 12.824219-.089844l15.011719-15.070312c-20.339844-13.808594-37.863281-31.363282-51.632812-51.730469l-15.085938 15.085937c-3.546875 3.554688-3.546875 9.304688 0 12.859375l7.046875 7.066407 31.757813 31.753906zm0 0"/><path d="m469.910156 381.152344c1.277344-3.679688 4.742188-6.148438 8.636719-6.148438h33.738281v-54.855468h-33.738281c-3.835937.003906-7.265625-2.394532-8.578125-5.996094-.058594-.160156-.136719-.339844-.191406-.5-7.253906 6.882812-15.027344 13.191406-23.257813 18.871094 5.417969 25.558593-3.230469 52.0625-22.679687 69.503906-19.449219 17.445312-46.734375 23.167968-71.554688 15.015625-24.820312-8.15625-43.390625-28.953125-48.703125-54.53125-19.777343-3.613281-38.855469-10.332031-56.53125-19.90625l-9.050781 9.082031v23.316406h33.738281c3.890625 0 7.359375 2.46875 8.632813 6.148438 4.058594 11.652344 10.277344 22.4375 18.328125 31.789062 2.523437 2.945313 2.910156 7.15625.976562 10.515625l-16.824219 29.164063 47.492188 27.46875 16.761719-29.199219c1.925781-3.363281 5.765625-5.136719 9.574219-4.425781 12.207031 2.222656 24.71875 2.222656 36.925781 0 3.808593-.703125 7.640625 1.070312 9.574219 4.425781l16.820312 29.164063 47.484375-27.394532-16.875-29.207031c-1.9375-3.355469-1.546875-7.570313.976563-10.511719 8.046874-9.351562 14.265624-20.136718 18.324218-31.789062zm0 0"/><path d="m183.664062 354.339844-25.261718-25.324219-.566406-.566406-25.867188 25.855469 12.9375 12.9375 12.929688 12.925781zm0 0"/><path d="m42.660156 170.867188c4.0625 11.652343 10.28125 22.4375 18.332032 31.789062 2.523437 2.941406 2.914062 7.15625.976562 10.511719l-16.824219 29.167969 47.484375 27.46875 16.765625-29.199219c1.921875-3.363281 5.761719-5.140625 9.570313-4.425781 12.207031 2.222656 24.71875 2.222656 36.925781 0 .417969-.042969.835937-.058594 1.25-.039063-3.035156-8.765625-5.425781-17.738281-7.152344-26.847656-27.226562 4.761719-54.816406-6.238281-71.296875-28.425781-16.480468-22.191407-19.042968-51.777344-6.617187-76.46875 12.425781-24.691407 37.710937-40.265626 65.355469-40.25 13.105468-.03125 25.972656 3.523437 37.210937 10.273437 11.359375-18.757813 25.828125-35.445313 42.789063-49.347656l-35.203126-20.296875-16.761718 29.199218c-1.929688 3.355469-5.765625 5.128907-9.574219 4.421876-12.207031-2.222657-24.71875-2.222657-36.925781 0-3.808594.722656-7.652344-1.054688-9.570313-4.421876l-16.824219-29.167968-47.484374 27.394531 16.878906 29.207031c1.9375 3.355469 1.546875 7.570313-.972656 10.515625-8.054688 9.351563-14.269532 20.136719-18.332032 31.789063-1.277344 3.679687-4.742187 6.144531-8.636718 6.144531h-33.738282v54.859375h33.738282c3.894531 0 7.359374 2.46875 8.636718 6.148438zm0 0"/><path d="m41.464844 509.46875c3.574218 3.566406 9.363281 3.566406 12.9375 0l12.925781-12.929688-51.71875-51.71875-12.929687 12.925782c-1.714844 1.714844-2.679688 4.039062-2.679688 6.460937 0 2.425781.964844 4.75 2.679688 6.464844zm0 0"/><path d="m137.429688 82.433594c-20.902344-.15625-40.074219 11.582031-49.441407 30.265625-9.367187 18.683593-7.304687 41.066406 5.320313 57.726562 12.625 16.65625 33.617187 24.691407 54.136718 20.71875-.507812-5.703125-.875-11.449219-.875-17.285156.03125-28.859375 6.621094-57.339844 19.269532-83.28125-8.523438-5.316406-18.367188-8.136719-28.410156-8.144531zm0 0"/></svg>