<svg id="Group_696" data-name="Group 696" xmlns="http://www.w3.org/2000/svg" width="40.81" height="37.97" viewBox="0 0 40.81 37.97">
  <g id="Group_148" data-name="Group 148" transform="translate(0 0)">
    <path id="symbol" d="M23.322,9.222l-1.836-.4A9.99,9.99,0,0,0,20.9,7.4l1.016-1.581a.714.714,0,0,0-.1-.891l-2.86-2.86a.714.714,0,0,0-.891-.1L16.485,2.988A9.99,9.99,0,0,0,15.06,2.4l-.4-1.836a.714.714,0,0,0-.7-.562H9.92a.714.714,0,0,0-.7.562L8.823,2.4A9.99,9.99,0,0,0,7.4,2.988L5.818,1.972a.714.714,0,0,0-.89.1l-2.86,2.86a.714.714,0,0,0-.1.891L2.988,7.4A9.99,9.99,0,0,0,2.4,8.823l-1.836.4A.714.714,0,0,0,0,9.92v4.044a.714.714,0,0,0,.562.7l1.836.4a9.99,9.99,0,0,0,.591,1.425L1.972,18.066a.714.714,0,0,0,.1.891l2.86,2.86a.714.714,0,0,0,.89.1L7.4,20.9a9.99,9.99,0,0,0,1.425.591l.4,1.836a.714.714,0,0,0,.7.562h4.044a.714.714,0,0,0,.7-.562l.4-1.836a9.99,9.99,0,0,0,1.425-.591l1.581,1.016a.714.714,0,0,0,.891-.1l2.86-2.86a.714.714,0,0,0,.1-.891L20.9,16.485a9.99,9.99,0,0,0,.591-1.425l1.836-.4a.714.714,0,0,0,.562-.7V9.92A.714.714,0,0,0,23.322,9.222Zm-7.1,2.719A4.282,4.282,0,1,1,11.942,7.66,4.287,4.287,0,0,1,16.224,11.942Zm0,0" transform="translate(0 8.279)" fill="#ff7949"/>
    <path id="symbol-2" data-name="symbol" d="M15.364,6.075l-1.209-.263a6.581,6.581,0,0,0-.389-.938l.669-1.041a.47.47,0,0,0-.063-.587L12.488,1.362A.47.47,0,0,0,11.9,1.3l-1.041.669a6.581,6.581,0,0,0-.938-.389L9.658.37A.47.47,0,0,0,9.2,0H6.535a.47.47,0,0,0-.459.37L5.812,1.579a6.581,6.581,0,0,0-.938.389L3.833,1.3a.47.47,0,0,0-.587.063L1.362,3.246a.47.47,0,0,0-.063.587l.669,1.041a6.581,6.581,0,0,0-.389.938L.37,6.075A.47.47,0,0,0,0,6.535V9.2a.47.47,0,0,0,.37.459l1.209.263a6.581,6.581,0,0,0,.389.938L1.3,11.9a.47.47,0,0,0,.063.587l1.884,1.884a.47.47,0,0,0,.587.063l1.041-.669a6.581,6.581,0,0,0,.938.389l.263,1.209a.47.47,0,0,0,.459.37H9.2a.47.47,0,0,0,.459-.37l.263-1.209a6.582,6.582,0,0,0,.938-.389l1.041.669a.47.47,0,0,0,.587-.063l1.884-1.884a.47.47,0,0,0,.063-.587l-.669-1.041a6.582,6.582,0,0,0,.389-.938l1.209-.263a.47.47,0,0,0,.37-.459V6.535A.47.47,0,0,0,15.364,6.075ZM10.688,7.867A2.821,2.821,0,1,1,7.867,5.046,2.824,2.824,0,0,1,10.688,7.867Zm0,0" transform="translate(23.84 0)" fill="#ff7949"/>
    <path id="symbol-3" data-name="symbol" d="M15.364,6.075l-1.209-.263a6.581,6.581,0,0,0-.389-.938l.669-1.041a.47.47,0,0,0-.063-.587L12.488,1.362A.47.47,0,0,0,11.9,1.3l-1.041.669a6.581,6.581,0,0,0-.938-.389L9.658.37A.47.47,0,0,0,9.2,0H6.535a.47.47,0,0,0-.459.37L5.812,1.579a6.581,6.581,0,0,0-.938.389L3.833,1.3a.47.47,0,0,0-.587.063L1.362,3.246a.47.47,0,0,0-.063.587l.669,1.041a6.581,6.581,0,0,0-.389.938L.37,6.075A.47.47,0,0,0,0,6.535V9.2a.47.47,0,0,0,.37.459l1.209.263a6.581,6.581,0,0,0,.389.938L1.3,11.9a.47.47,0,0,0,.063.587l1.884,1.884a.47.47,0,0,0,.587.063l1.041-.669a6.581,6.581,0,0,0,.938.389l.263,1.209a.47.47,0,0,0,.459.37H9.2a.47.47,0,0,0,.459-.37l.263-1.209a6.582,6.582,0,0,0,.938-.389l1.041.669a.47.47,0,0,0,.587-.063l1.884-1.884a.47.47,0,0,0,.063-.587l-.669-1.041a6.582,6.582,0,0,0,.389-.938l1.209-.263a.47.47,0,0,0,.37-.459V6.535A.47.47,0,0,0,15.364,6.075ZM10.688,7.867A2.821,2.821,0,1,1,7.867,5.046,2.824,2.824,0,0,1,10.688,7.867Zm0,0" transform="translate(25.076 22.236)" fill="#ff7949"/>
  </g>
</svg>
