<?xml version="1.0" encoding="utf-8"?>
<!-- Generator: Adobe Illustrator 19.0.0, SVG Export Plug-In . SVG Version: 6.00 Build 0)  -->
<svg version="1.1" id="Layer_1" xmlns="http://www.w3.org/2000/svg" xmlns:xlink="http://www.w3.org/1999/xlink" x="0px" y="0px"
	 viewBox="-272 352.4 66.5 88.6" style="enable-background:new -272 352.4 66.5 88.6;" xml:space="preserve">
<style type="text/css">
	.st0{fill:none;}
	.st1{fill:#FF7949;}
</style>
<g>
	<path class="st0" d="M-224.2,402.2h-29.1c-1.1,0-2.1,0.9-2.1,2.1v1.4c0,1.1,0.9,2.1,2.1,2.1h29.1c1.1,0,2.1-0.9,2.1-2.1h0v-1.4
		C-222.2,403.2-223.1,402.2-224.2,402.2z"/>
	<path class="st0" d="M-224.2,413.3h-29.1c-1.1,0-2.1,0.9-2.1,2.1v1.4c0,1.1,0.9,2.1,2.1,2.1h29.1c1.1,0,2.1-0.9,2.1-2.1l0,0v-1.4
		C-222.2,414.2-223.1,413.3-224.2,413.3z"/>
	<path class="st0" d="M-255.4,393.2v1.4c0,1.1,0.9,2.1,2.1,2.1h29.1c1.1,0,2.1-0.9,2.1-2.1v-1.4h0c0-1.1-0.9-2.1-2.1-2.1h-29.1
		C-254.5,391.2-255.4,392.1-255.4,393.2z"/>
	<path class="st1" d="M-233.2,375.9L-233.2,375.9l0-23.5h-34.6c-2.3,0-4.1,1.8-4.2,4.1c0,0,0,0,0,0v80.3c0,2.3,1.8,4.1,4.1,4.2
		c0,0,0,0,0,0h58.1c2.3,0,4.1-1.8,4.2-4.1c0,0,0,0,0,0v-56.8h-23.5C-231.4,380.1-233.2,378.2-233.2,375.9z M-222.2,416.8
		L-222.2,416.8c0,1.1-0.9,2.1-2.1,2.1h-29.1c-1.1,0-2.1-0.9-2.1-2.1v-1.4c0-1.1,0.9-2.1,2.1-2.1h29.1c1.1,0,2.1,0.9,2.1,2.1V416.8z
		 M-222.2,405.7L-222.2,405.7c0,1.1-0.9,2.1-2.1,2.1h-29.1c-1.1,0-2.1-0.9-2.1-2.1v-1.4c0-1.1,0.9-2.1,2.1-2.1h29.1
		c1.1,0,2.1,0.9,2.1,2.1V405.7z M-222.2,393.2L-222.2,393.2l0,1.4c0,1.1-0.9,2.1-2.1,2.1h-29.1c-1.1,0-2.1-0.9-2.1-2.1v-1.4
		c0-1.1,0.9-2.1,2.1-2.1h29.1C-223.1,391.2-222.2,392.1-222.2,393.2z"/>
	<path class="st1" d="M-205.5,373.5L-205.5,373.5c0-1.1-0.4-2.1-1.2-2.9l-16.9-17c-0.8-0.8-1.8-1.2-2.9-1.2h-1.1v22.1h22.2V373.5z"
		/>
</g>
</svg>
