<svg xmlns="http://www.w3.org/2000/svg" width="15.733" height="15.733" viewBox="0 0 15.733 15.733">
  <g id="Group_915" data-name="Group 915" transform="translate(-45.075 -20.236)">
    <g id="Group_148" data-name="Group 148" transform="translate(0 0)">
      <path id="symbol" d="M15.364,6.075l-1.209-.263a6.581,6.581,0,0,0-.389-.938l.669-1.041a.47.47,0,0,0-.063-.587L12.488,1.362A.47.47,0,0,0,11.9,1.3l-1.041.669a6.581,6.581,0,0,0-.938-.389L9.658.37A.47.47,0,0,0,9.2,0H6.535a.47.47,0,0,0-.459.37L5.812,1.579a6.581,6.581,0,0,0-.938.389L3.833,1.3a.47.47,0,0,0-.587.063L1.362,3.246a.47.47,0,0,0-.063.587l.669,1.041a6.581,6.581,0,0,0-.389.938L.37,6.075A.47.47,0,0,0,0,6.535V9.2a.47.47,0,0,0,.37.459l1.209.263a6.581,6.581,0,0,0,.389.938L1.3,11.9a.47.47,0,0,0,.063.587l1.884,1.884a.47.47,0,0,0,.587.063l1.041-.669a6.581,6.581,0,0,0,.938.389l.263,1.209a.47.47,0,0,0,.459.37H9.2a.47.47,0,0,0,.459-.37l.263-1.209a6.582,6.582,0,0,0,.938-.389l1.041.669a.47.47,0,0,0,.587-.063l1.884-1.884a.47.47,0,0,0,.063-.587l-.669-1.041a6.582,6.582,0,0,0,.389-.938l1.209-.263a.47.47,0,0,0,.37-.459V6.535A.47.47,0,0,0,15.364,6.075ZM10.688,7.867A2.821,2.821,0,1,1,7.867,5.046,2.824,2.824,0,0,1,10.688,7.867Zm0,0" transform="translate(45.076 20.236)" fill="#ff7949"/>
    </g>
  </g>
</svg>
