<svg xmlns="http://www.w3.org/2000/svg" viewBox="0 0 13.287 13.287">
  <defs>
    <style>
      .cls-1 {
        fill: #8e99ad;
      }

      .cls-2 {
        fill: #f2f2fa;
      }
    </style>
  </defs>
  <g id="Group_433" data-name="Group 433" transform="translate(-603 -588)">
    <circle id="Ellipse_69" data-name="Ellipse 69" class="cls-1" cx="6.644" cy="6.644" r="6.644" transform="translate(603 588)"/>
    <path id="Path_126" data-name="Path 126" class="cls-2" d="M1.587-9.232a1.567,1.567,0,0,1-.069-.493,2.483,2.483,0,0,1,.1-.757,3.309,3.309,0,0,1,.252-.591,4.565,4.565,0,0,1,.333-.516,3.923,3.923,0,0,0,.333-.533,3.469,3.469,0,0,0,.252-.648,3.181,3.181,0,0,0,.1-.866.893.893,0,0,0-.166-.614.605.605,0,0,0-.465-.178.605.605,0,0,0-.465.178.893.893,0,0,0-.166.614v.872H.44v-.792a2.18,2.18,0,0,1,.465-1.5A1.77,1.77,0,0,1,2.3-15.576a1.77,1.77,0,0,1,1.394.522,2.18,2.18,0,0,1,.465,1.5,3.368,3.368,0,0,1-.109.912,3.456,3.456,0,0,1-.275.694,4.368,4.368,0,0,1-.361.568q-.2.258-.361.511a2.754,2.754,0,0,0-.275.539,1.832,1.832,0,0,0-.109.654,1.964,1.964,0,0,0,.046.447Zm1.159.562v1.216H1.53V-8.67Z" transform="translate(607.349 606.393)"/>
  </g>
</svg>
