<svg xmlns="http://www.w3.org/2000/svg" viewBox="0 0 28.479 28.479">
  <defs>
    <style>
      .cls-1 {
        fill: #ced4df;
      }
    </style>
  </defs>
  <g id="transportation" transform="translate(-0.001 0)">
    <g id="Group_28" data-name="Group 28" transform="translate(0 0)">
      <g id="Group_27" data-name="Group 27" transform="translate(0 0)">
        <path id="Path_20" data-name="Path 20" class="cls-1" d="M15.008,25.249a.6.6,0,0,0-.556-.348A10.68,10.68,0,1,1,24.9,14.445a.6.6,0,0,0,.348.556,7.573,7.573,0,0,1,2.094,1.439.594.594,0,0,0,1-.348,13.234,13.234,0,0,0,.123-2.318A14.378,14.378,0,0,0,15.194.032a14.239,14.239,0,1,0-1.362,28.441,13.26,13.26,0,0,0,2.261-.126.593.593,0,0,0,.348-1A7.521,7.521,0,0,1,15.008,25.249Z" transform="translate(0 0)"/>
        <path id="Path_21" data-name="Path 21" class="cls-1" d="M103.132,93.83a.594.594,0,0,0,.284,1.1q.329.018.653.064a.6.6,0,0,0,.68-.628,9.481,9.481,0,0,0-16.5-5.837,9.569,9.569,0,0,0,.138,12.907,9.438,9.438,0,0,0,6.38,2.939.579.579,0,0,0,.6-.673l0-.012a.613.613,0,0,0-.574-.515,8.289,8.289,0,0,1-2.022-.351.629.629,0,0,1-.427-.625c.155-2.163,1.389-3.732,2.94-3.732a2.225,2.225,0,0,1,.64.1.584.584,0,0,0,.169.025.594.594,0,0,0,.494-.264c.049-.073.1-.142.154-.211l.072-.094a.593.593,0,0,0-.687-.91,2.364,2.364,0,1,1-1.008-4.564c.059,0,.275,0,.334,0a2.343,2.343,0,0,1,2.044,3.2.593.593,0,0,0,.909.688,7.7,7.7,0,0,1,2-1.074.593.593,0,0,0-.082-1.14,2.545,2.545,0,0,1-1.308-.629c-1.006-1.005-.586-2.737,1.122-4.632a.611.611,0,0,1,.442-.2.593.593,0,0,1,.408.163,8.241,8.241,0,0,1,2.416,4.29A.581.581,0,0,1,103.132,93.83Zm-12.7,7.113a.6.6,0,0,1-.417.2h-.024a.593.593,0,0,1-.408-.163,8.243,8.243,0,0,1-2.416-4.291.593.593,0,0,1,.307-.65,4.31,4.31,0,0,1,1.943-.445,2.992,2.992,0,0,1,2.137.719C92.554,97.315,92.135,99.047,90.428,100.943Zm1.122-7.353a2.994,2.994,0,0,1-2.137.718,4.31,4.31,0,0,1-1.943-.445.593.593,0,0,1-.307-.65h0a8.242,8.242,0,0,1,2.416-4.289.6.6,0,0,1,.429-.162h0a.6.6,0,0,1,.417.2C92.136,90.852,92.555,92.584,91.549,93.59Zm6.675-5.945c-.144,2.081-1.285,3.611-2.777,3.722-.058,0-.271,0-.329,0-1.491-.11-2.633-1.64-2.777-3.72a.593.593,0,0,1,.411-.607,8.289,8.289,0,0,1,5.059,0A.593.593,0,0,1,98.224,87.644Z" transform="translate(-81.044 -80.664)"/>
        <path id="Path_22" data-name="Path 22" class="cls-1" d="M354.412,353.226a1.141,1.141,0,0,0-.289.059l-1.069-1.069a.593.593,0,1,0-.839.839l1.069,1.069a1.141,1.141,0,0,0-.059.289,1.187,1.187,0,1,0,1.187-1.187Z" transform="translate(-332.459 -332.46)"/>
        <path id="Path_23" data-name="Path 23" class="cls-1" d="M283.859,277.334a6.517,6.517,0,1,0,6.527,6.526A6.534,6.534,0,0,0,283.859,277.334Zm4.747,7.12h.531a5.27,5.27,0,0,1-.275,1.187H278.856a5.278,5.278,0,0,1-.275-1.187h.531a.593.593,0,0,0,0-1.187h-.533a5.28,5.28,0,0,1,1.126-2.721l.174.174a.593.593,0,0,0,.839-.839l-.174-.174a5.279,5.279,0,0,1,2.721-1.126v.533a.593.593,0,1,0,1.187,0v-.533a5.279,5.279,0,0,1,2.721,1.126l-.174.174a.593.593,0,1,0,.839.839l.174-.174a5.279,5.279,0,0,1,1.126,2.721h-.533a.593.593,0,0,0,0,1.187Z" transform="translate(-261.907 -261.908)"/>
      </g>
    </g>
  </g>
</svg>
