<svg xmlns="http://www.w3.org/2000/svg" width="16.944" height="19.07" viewBox="0 0 16.944 19.07"><defs><style>.a{fill:#161616;fill-rule:evenodd;}</style></defs><g transform="translate(0 4.055)"><path class="a" d="M10.013,590H5c-2.8,0-5,3.3-5,7.5s2.2,7.511,5,7.511h5.01c2.8,0,5-3.3,5-7.511,0-.337-.014-.68-.041-1.01a2.946,2.946,0,0,1-.694.083,3.2,3.2,0,0,1-1.883-.632,9.813,9.813,0,0,1,.117,1.56c0,2.495-.859,5.01-2.5,5.01s-2.5-2.515-2.5-5.01.859-5,2.5-5a1.614,1.614,0,0,1,.412.055,7.16,7.16,0,0,1-.021-2.536A3.742,3.742,0,0,0,10.013,590Zm-7.456,2.818.756.749a.6.6,0,0,0,.44.186.379.379,0,0,0,.124-.014l1.945-.385c-.069.165-.144.337-.206.509,0,.014-.007.021-.007.027-.069.193-.131.392-.186.591l-2.082.46-1.258-1.306A6.219,6.219,0,0,1,2.556,592.818ZM1.6,594.934l1.072,1.127a.647.647,0,0,0,.454.193.446.446,0,0,0,.137-.014l1.869-.412c-.027.172-.048.344-.062.522-.014.089-.021.179-.027.268-.007.069-.014.137-.014.206l-2.33.612-1.333-1.4A8.092,8.092,0,0,1,1.6,594.934Zm-.344,2.8.79.825a.626.626,0,0,0,.454.2.586.586,0,0,0,.158-.021l2.364-.625c.007.1.014.186.021.282s.014.179.027.268c.021.2.041.405.076.6v.034l-2.577.68-1.106-.454A10.01,10.01,0,0,1,1.258,597.738Zm.687,3.333.35.144a.57.57,0,0,0,.234.048.678.678,0,0,0,.165-.021l2.721-.722a6.18,6.18,0,0,0,.192.6c0,.007.007.014.007.028.076.206.165.412.254.612l-3.1.722A6.236,6.236,0,0,1,1.945,601.071ZM5,603.765a2.3,2.3,0,0,1-1.051-.268l2.446-.57a.355.355,0,0,0,.089-.041c.055.076.11.144.158.213l.124.165a6.037,6.037,0,0,0,.433.495l.007.007Zm2.2-12.507a5.072,5.072,0,0,0-.433.495,1.34,1.34,0,0,0-.117.158l-2.694.536-.564-.564A2.569,2.569,0,0,1,5,591.251H7.209Z" transform="translate(0 -590)"/><path class="a" d="M1276.251,1136c-.44,0-1.251,1.429-1.251,3.752s.811,3.759,1.251,3.759,1.251-1.429,1.251-3.759S1276.691,1136,1276.251,1136Z" transform="translate(-1266.238 -1132.248)"/></g><g transform="translate(11.467)"><path class="a" d="M1672.6,4.439l-2.062-.6a.569.569,0,0,1-.4-.543.554.554,0,0,1,.557-.557h1.265a1.159,1.159,0,0,1,.653.2.3.3,0,0,0,.371-.041l.66-.646a.308.308,0,0,0-.034-.467,2.72,2.72,0,0,0-1.642-.57V.3a.307.307,0,0,0-.309-.3h-.6a.307.307,0,0,0-.309.3v.914h-.048a2.081,2.081,0,0,0-2.069,2.275,2.173,2.173,0,0,0,1.594,1.842l1.945.57a.561.561,0,0,1-.158,1.1h-1.258a1.16,1.16,0,0,1-.653-.2.293.293,0,0,0-.371.041l-.66.646a.307.307,0,0,0,.034.467,2.72,2.72,0,0,0,1.642.57v.914a.307.307,0,0,0,.309.3h.6a.307.307,0,0,0,.309-.3V8.521a2.133,2.133,0,0,0,2.007-1.381,2.09,2.09,0,0,0-1.375-2.7Z" transform="translate(-1668.617 0)"/></g></svg>