<?xml version="1.0" encoding="utf-8"?>
<!-- Generator: Adobe Illustrator 19.0.0, SVG Export Plug-In . SVG Version: 6.00 Build 0)  -->
<svg version="1.1" id="Layer_5" xmlns="http://www.w3.org/2000/svg" xmlns:xlink="http://www.w3.org/1999/xlink" x="0px" y="0px"
	 viewBox="-143 345 512 512" style="enable-background:new -143 345 512 512;" xml:space="preserve">
<style type="text/css">
	.st0{fill:#010101;}
</style>
<g>
	<circle class="st0" cx="-7" cy="508.9" r="8"/>
	<path class="st0" d="M337.7,715.6l10.8-18.9l-31.3-31.3l-13.6,7.8c4.7-14.8,7.6-30.1,8.7-45.6c28.8-14.5,48.7-44.2,48.7-78.6
		c0-48.5-39.5-88-88-88c-9,0-17.6,1.4-25.8,3.9c-10.2-9.2-21.2-17.3-33-24.3c1.8-6.2,2.8-12.8,2.8-19.6c0-39.7-32.3-72-72-72
		c-38.4,0-69.8,30.2-71.8,68.2c-7.3,1.5-14.6,3.4-21.7,5.7c-8-15.5-24-26-42.5-26c-14.2,0-26.9,6.2-35.7,16h-12.8
		c-52.7,0-95.5,42.8-95.5,95.5c0,33.1,16.8,63.4,44.9,81l19.1,11.9v5.3l-19.3,4.8c-26.3,6.5-44.7,30.1-44.7,57.2v176.3H25v-32h72.1
		h7.9h8c23.8,0,46.8-4.1,68.7-12.1l-0.2,0.4l31.3,31.3l18.9-10.8c1.8,0.8,3.6,1.6,5.5,2.3l5.7,21h44.2l5.7-21
		c1.8-0.7,3.7-1.4,5.5-2.3l18.9,10.8l31.3-31.3l-10.8-18.9c0.8-1.8,1.6-3.6,2.3-5.5l21-5.7v-44.2l-21-5.7
		C339.3,719.2,338.6,717.4,337.7,715.6L337.7,715.6z M249,532.9c0-13.2,10.8-24,24-24s24,10.8,24,24s-10.8,24-24,24
		S249,546.1,249,532.9z M273,620.9c-18.8,0-35.9-7.3-48.8-19.2c9.8-17.6,28.4-28.8,48.8-28.8s38.9,11.2,48.8,28.8
		C308.9,613.6,291.8,620.9,273,620.9z M345,548.9c0,14.8-4.5,28.6-12.2,40.1c-8.1-12.1-19.6-21.3-32.9-26.7
		c8-7.3,13.1-17.7,13.1-29.4c0-22.1-17.9-40-40-40c-22.1,0-40,17.9-40,40c0,11.7,5.1,22.1,13.1,29.4c-13.3,5.4-24.8,14.6-32.9,26.7
		c-7.7-11.5-12.2-25.3-12.2-40.1c0-39.7,32.3-72,72-72C312.7,476.9,345,509.2,345,548.9L345,548.9z M145,364.9c30.9,0,56,25.1,56,56
		s-25.1,56-56,56s-56-25.1-56-56S114.1,364.9,145,364.9z M57,444.9c0-2.4-0.2-4.7-0.6-6.9c5.8-1.9,11.7-3.5,17.7-4.7
		c5.9,33.8,35.4,59.6,70.9,59.6c27.2,0,50.9-15.2,63.1-37.4c8,4.8,15.6,10.2,22.8,16.2c-27.3,15-45.9,44-45.9,77.3
		c0,48.5,39.5,88,88,88c7.9,0,15.5-1.1,22.7-3.1c-1.1,10-3.1,19.8-5.8,29.5l-2.8-10.4h-44.2l-5.7,21c-1.8,0.7-3.7,1.4-5.5,2.3
		l-18.9-10.8l-31.3,31.3l10.8,18.9c-0.8,1.8-1.6,3.6-2.3,5.5l-21,5.7v44.2l21,5.7c0.3,0.9,0.8,1.8,1.1,2.7
		c-18.4,8.7-37.8,14.2-58,16.3c2.4-4.5,3.8-9.5,3.8-14.9h16v-112h-41.3l-48,16H33c-2.7,0-5.4,0.3-8,0.8v-0.8
		c0-22.5-10.8-44.1-28.8-57.6l-3.2-2.4v-20.3c8.2-0.8,15.8-4.1,21.7-10c6.7-6.7,10.3-15.5,10.3-25v-14.9l24-8v-5.8
		c0-24.3-8.2-43.1-15.4-54.9C48,477.4,57,461.9,57,444.9L57,444.9z M9,724.9c0-13.2,10.8-24,24-24h24v48h-8H33
		C19.8,748.9,9,738.1,9,724.9z M73,698.7l32-10.7v60.9H73V698.7z M121,753.3v-68.4h16v80h-4.4C129.8,760.1,125.8,756.1,121,753.3z
		 M-59.7,540.9l-8-8c-2.1-2.1-3.3-5-3.3-8c0-4.4,3.6-8,8-8h8v-24c0-4.4,3.6-8,8-8H9.5c2.6,0,4.9,1.2,6.4,3.2
		c5.9,8.1,15.5,24.4,16.9,47.1L9,543.1v26.5c0,5.1-2.1,10.1-5.7,13.7s-8.5,5.6-13.6,5.6H-39v16h16v16c-21.4,0-29.7-7.6-32-10.5
		v-58.2C-55,547.9-56.7,543.9-59.7,540.9L-59.7,540.9z M-81.6,575.8C-105,561.2-119,536-119,508.4c0-43.8,35.7-79.5,79.5-79.5h3.3
		c-1.8,5-2.8,10.4-2.8,16h16c0-17.6,14.4-32,32-32s32,14.4,32,32c0,12.2-6.9,23.1-17.7,28.6c-4-2.8-8.8-4.6-13.8-4.6H-47
		c-13.2,0-24,10.8-24,24v9.4c-9.3,3.3-16,12.2-16,22.6c0,7.3,2.8,14.2,8,19.3l8,8v30.2L-81.6,575.8z M-86.4,627l20.2-5
		c5.7,6.1,18.2,15,43.2,15h5.3l4.3,3.2C0.6,650.6,9,667.4,9,684.9v8.2c-9.7,7.3-16,18.8-16,31.8c0,9,3.1,17.3,8.2,24h-34l-30.8-75
		l-14.8,6.1l16.8,40.8L-97,730.9l-20.2-48.5c-1.2-4.5-1.8-9-1.8-13.6C-119,648.9-105.6,631.8-86.4,627L-86.4,627z M9,828.9h-128
		V719.5l24.4,58.5c5.9,20.5,24.8,34.8,46.2,34.8H9V828.9z M97.1,796.9H-48.4c-14.4,0-27.1-9.7-30.9-23.6l-11.5-27.6l35.4-10.1
		l7.3,17.8c2,6.8,8.2,11.4,15.3,11.4H33h16h56c8.8,0,16,7.2,16,16s-7.2,16-16,16L97.1,796.9L97.1,796.9z M345,758.8l-17.5,4.8
		l-1.3,4.2c-1.1,3.7-2.7,7.4-4.6,11l-2,3.9l9,15.8l-14,14l-15.8-9l-3.9,2c-3.6,1.9-7.3,3.4-11,4.6l-4.2,1.3l-4.8,17.5h-19.8
		l-4.8-17.5l-4.2-1.3c-3.7-1.1-7.4-2.7-11-4.6l-3.9-2l-15.8,9l-14-14l9-15.8l-2-3.9c-1.9-3.6-3.4-7.3-4.6-11l-1.3-4.2l-17.5-4.8V739
		l17.5-4.8l1.3-4.2c1.1-3.7,2.7-7.4,4.6-11l2-3.9l-9-15.8l14-14l15.8,9l3.9-2c3.6-1.9,7.3-3.4,11-4.6l4.2-1.3l4.8-17.5h19.8
		l4.8,17.5l4.2,1.3c3.7,1.1,7.4,2.7,11,4.6l3.9,2l15.8-9l14,14l-9,15.8l2,3.9c1.9,3.6,3.4,7.3,4.6,11l1.3,4.2L345,739V758.8
		L345,758.8z"/>
	<path class="st0" d="M265,700.9c-26.5,0-48,21.5-48,48s21.5,48,48,48s48-21.5,48-48S291.5,700.9,265,700.9z M265,780.9
		c-17.6,0-32-14.4-32-32s14.4-32,32-32c17.6,0,32,14.4,32,32S282.6,780.9,265,780.9z"/>
	<path class="st0" d="M121,384v73.9l73.9-36.9L121,384z M137,409.8l22.1,11.1L137,432V409.8z"/>
</g>
</svg>
