<svg xmlns="http://www.w3.org/2000/svg" width="32.625" height="29" viewBox="0 0 32.625 29">
  <path id="pending-approval" d="M12.357,24.024a.628.628,0,0,0-.576-.369.618.618,0,0,0-.568.351l-.434.869a.906.906,0,0,1-1.67-.118L8.156,21.9l-.6,1.806a2.445,2.445,0,0,1-2.322,1.673h-.7a.906.906,0,1,1,0-1.812h.7a.635.635,0,0,0,.6-.434l1.03-3.095a1.36,1.36,0,0,1,2.58,0l.786,2.359a2.542,2.542,0,0,1,3.738.8.643.643,0,0,0,.53.355V18.9l7.25-7.2V9.063h-7.7A1.363,1.363,0,0,1,12.688,7.7V0H1.359A1.356,1.356,0,0,0,0,1.359V27.641A1.356,1.356,0,0,0,1.359,29H20.391a1.356,1.356,0,0,0,1.359-1.359V25.375l-7.25-.006A2.432,2.432,0,0,1,12.357,24.024ZM21.75,6.9a1.355,1.355,0,0,0-.4-.957L15.808.4a1.358,1.358,0,0,0-.963-.4H14.5V7.25h7.25ZM16.313,19.652v3.91H20.22l9.158-9.22L25.533,10.5ZM32.2,9.478,30.4,7.673a1.443,1.443,0,0,0-2.04,0L26.814,9.216l3.845,3.845L32.2,11.517a1.442,1.442,0,0,0,0-2.04Z" fill="#8e99ad"/>
</svg>
