<?xml version="1.0" encoding="utf-8"?>
<!-- Generator: Adobe Illustrator 19.0.0, SVG Export Plug-In . SVG Version: 6.00 Build 0)  -->
<svg version="1.1" id="parts-pricing_" xmlns="http://www.w3.org/2000/svg" xmlns:xlink="http://www.w3.org/1999/xlink" x="0px"
	 y="0px" viewBox="-291 381.1 27.5 30.9" style="enable-background:new -291 381.1 27.5 30.9;" xml:space="preserve">
<style type="text/css">
	.st0{fill:#FF6633;}
</style>
<g id="_2486367625360" transform="translate(0 6.57)">
	<path id="Path_240" class="st0" d="M-274.8,381.1h-8.1c-4.5,0-8.1,5.3-8.1,12.2s3.6,12.2,8.1,12.2h8.1c4.5,0,8.1-5.3,8.1-12.2
		c0-0.5,0-1.1-0.1-1.6c-0.4,0.1-0.7,0.1-1.1,0.1c-1.1,0-2.2-0.4-3.1-1c0.1,0.8,0.2,1.7,0.2,2.5c0,4-1.4,8.1-4.1,8.1
		s-4.1-4.1-4.1-8.1s1.4-8.1,4.1-8.1c0.2,0,0.5,0,0.7,0.1c-0.3-1.4-0.3-2.7,0-4.1C-274.4,381.1-274.6,381.1-274.8,381.1z
		 M-286.9,385.7l1.2,1.2c0.2,0.2,0.4,0.3,0.7,0.3c0.1,0,0.1,0,0.2,0l3.2-0.6c-0.1,0.3-0.2,0.5-0.3,0.8c0,0,0,0,0,0
		c-0.1,0.3-0.2,0.6-0.3,1l-3.4,0.7l-2-2.1C-287.4,386.5-287.1,386.1-286.9,385.7z M-288.4,389.1l1.7,1.8c0.2,0.2,0.5,0.3,0.7,0.3
		c0.1,0,0.2,0,0.2,0l3-0.7c0,0.3-0.1,0.6-0.1,0.8c0,0.1,0,0.3,0,0.4c0,0.1,0,0.2,0,0.3l-3.8,1l-2.2-2.3
		C-288.7,390.3-288.6,389.7-288.4,389.1z M-289,393.6l1.3,1.3c0.2,0.2,0.5,0.3,0.7,0.3c0.1,0,0.2,0,0.3,0l3.8-1c0,0.2,0,0.3,0,0.5
		c0,0.2,0,0.3,0,0.4c0,0.3,0.1,0.7,0.1,1v0.1l-4.2,1.1l-1.8-0.7C-288.8,395.6-288.9,394.6-289,393.6L-289,393.6z M-287.8,399
		l0.6,0.2c0.1,0.1,0.2,0.1,0.4,0.1c0.1,0,0.2,0,0.3,0l4.4-1.2c0.1,0.3,0.2,0.7,0.3,1c0,0,0,0,0,0c0.1,0.3,0.3,0.7,0.4,1l-5,1.2
		C-287.1,400.6-287.5,399.9-287.8,399L-287.8,399z M-282.9,403.4c-0.6,0-1.2-0.2-1.7-0.4l4-0.9c0.1,0,0.1,0,0.1-0.1
		c0.1,0.1,0.2,0.2,0.3,0.3l0.2,0.3c0.2,0.3,0.5,0.5,0.7,0.8l0,0L-282.9,403.4z M-279.3,383.1c-0.3,0.3-0.5,0.5-0.7,0.8
		c-0.1,0.1-0.1,0.2-0.2,0.3l-4.4,0.9l-0.9-0.9c0.7-0.6,1.6-1,2.6-1L-279.3,383.1L-279.3,383.1z"/>
	<path id="Path_241" class="st0" d="M-274.8,387.2c-0.7,0-2,2.3-2,6.1s1.3,6.1,2,6.1s2-2.3,2-6.1S-274.1,387.2-274.8,387.2z"/>
</g>
<g id="_2486367628304" transform="translate(18.582)">
	<path id="Path_242" class="st0" d="M-284.5,388.3l-3.3-1c-0.4-0.1-0.6-0.5-0.6-0.9c0-0.5,0.4-0.9,0.9-0.9l0,0h2
		c0.4,0,0.7,0.1,1.1,0.3c0.2,0.1,0.4,0.1,0.6-0.1l1.1-1c0.2-0.2,0.2-0.5,0-0.7c0,0,0,0-0.1,0c-0.8-0.6-1.7-0.9-2.7-0.9v-1.5
		c0-0.3-0.2-0.5-0.5-0.5h-1c-0.3,0-0.5,0.2-0.5,0.5v1.5h-0.1c-1.9,0-3.4,1.5-3.4,3.4c0,0.1,0,0.2,0,0.3c0.2,1.4,1.2,2.6,2.6,3
		l3.2,0.9c0.5,0.1,0.8,0.6,0.6,1.1c-0.1,0.4-0.5,0.7-0.9,0.7h-2c-0.4,0-0.7-0.1-1.1-0.3c-0.2-0.1-0.4-0.1-0.6,0.1l-1.1,1
		c-0.2,0.2-0.2,0.5,0,0.7c0,0,0,0,0.1,0c0.8,0.6,1.7,0.9,2.7,0.9v1.5c0,0.3,0.2,0.5,0.5,0.5h1c0.3,0,0.5-0.2,0.5-0.5v-1.5
		c1.4,0,2.7-0.9,3.3-2.2c0.6-1.8-0.3-3.7-2.1-4.3C-284.4,388.3-284.5,388.3-284.5,388.3L-284.5,388.3z"/>
</g>
</svg>
