<?xml version="1.0" encoding="utf-8"?>
<!-- Generator: Adobe Illustrator 19.0.0, SVG Export Plug-In . SVG Version: 6.00 Build 0)  -->
<svg version="1.1" id="Capa_1" xmlns="http://www.w3.org/2000/svg" xmlns:xlink="http://www.w3.org/1999/xlink" x="0px" y="0px"
	 viewBox="-143 345 512 512" style="enable-background:new -143 345 512 512;" xml:space="preserve">
<style type="text/css">
	.st0{fill:#010101;}
</style>
<g>
	<g>
		<path class="st0" d="M-49.1,408.9h-34.2c-32.9,0-59.7,26.8-59.7,59.7v148.1c0,4.5,3.7,8.2,8.2,8.2c4.5,0,8.2-3.7,8.2-8.2V468.6
			c0-23.9,19.4-43.3,43.3-43.3h34.2c4.5,0,8.2-3.7,8.2-8.2C-40.8,412.6-44.5,408.9-49.1,408.9z"/>
	</g>
</g>
<g>
	<g>
		<path class="st0" d="M309.3,408.9h-37.1c-4.5,0-8.2,3.7-8.2,8.2c0,4.5,3.7,8.2,8.2,8.2h37.1c23.9,0,43.3,19.4,43.3,43.3V707
			c0,23.9-19.4,43.3-43.3,43.3H-83.3c-23.9,0-43.3-19.4-43.3-43.3v-62.8c0-4.5-3.7-8.2-8.2-8.2c-4.5,0-8.2,3.7-8.2,8.2V707
			c0,32.9,26.8,59.7,59.7,59.7H36.5v29.6C11.6,798.2-8,819-8,844.4c0,4.5,3.7,8.2,8.2,8.2h225.5c4.5,0,8.2-3.7,8.2-8.2
			c0-25.3-19.6-46.2-44.5-48.1v-29.6h119.8c32.9,0,59.7-26.8,59.7-59.7V468.6C369,435.7,342.2,408.9,309.3,408.9z M53,766.7H173
			v29.4h0H53V766.7z M216.5,836.1H9.5c3.6-13.6,16-23.6,30.7-23.6h145.5C200.4,812.6,212.8,822.6,216.5,836.1z"/>
	</g>
</g>
<g>
	<g>
		<path class="st0" d="M309.3,447.7h-15.2c-4.5,0-8.2,3.7-8.2,8.2s3.7,8.2,8.2,8.2h15.2c2.4,0,4.4,2,4.4,4.4V707
			c0,2.4-2,4.4-4.4,4.4H-83.3c-2.4,0-4.4-2-4.4-4.4V468.6c0-2.4,2-4.4,4.4-4.4H-71c4.5,0,8.2-3.7,8.2-8.2c0-4.5-3.7-8.2-8.2-8.2
			h-12.3c-11.5,0-20.9,9.4-20.9,20.9V707c0,11.5,9.4,20.9,20.9,20.9h392.6c11.5,0,20.9-9.4,20.9-20.9V468.6
			C330.2,457.1,320.8,447.7,309.3,447.7z"/>
	</g>
</g>
<g>
	<g>
		<path class="st0" d="M113,349.4c-94.9,0-172.2,77.2-172.2,172.2c0,94.9,77.2,172.2,172.2,172.2c24.4,0,48.1-5,70.2-14.9
			c4.1-1.9,6-6.7,4.1-10.9c-1.9-4.1-6.7-6-10.9-4.1c-20,9-41.4,13.5-63.5,13.5c-85.9,0-155.7-69.9-155.7-155.7S27.1,365.9,113,365.9
			s155.7,69.9,155.7,155.7c0,51.8-25.7,100.1-68.7,129.1c-3.8,2.5-4.8,7.7-2.2,11.4c2.5,3.8,7.7,4.8,11.4,2.2
			c47.5-32.1,75.9-85.5,75.9-142.8C285.2,426.7,207.9,349.4,113,349.4z"/>
	</g>
</g>
<g>
	<g>
		<path class="st0" d="M206.7,556.1c4.5,0,8.2-3.7,8.2-8.2c0-4.5-3.7-8.2-8.2-8.2h-28v-17.3h28c4.5,0,8.2-3.7,8.2-8.2
			c0-4.5-3.7-8.2-8.2-8.2h-28v-14.8c0-4.5-3.7-8.2-8.2-8.2h-16.4v-13.2c0-13.2-6.3-25-16-32.5l13.2-22.6c2.3-3.9,1-9-2.9-11.2
			c-3.9-2.3-9-1-11.2,2.9L123.4,430c-3.3-0.9-6.8-1.3-10.4-1.3c-3.6,0-7.1,0.5-10.4,1.3l-13.8-23.6c-2.3-3.9-7.3-5.2-11.2-2.9
			c-3.9,2.3-5.2,7.3-2.9,11.2l13.2,22.6c-9.7,7.5-16,19.3-16,32.5v13.2H55.4c-4.5,0-8.2,3.7-8.2,8.2V506h-28c-4.5,0-8.2,3.7-8.2,8.2
			c0,4.5,3.7,8.2,8.2,8.2h28v17.3h-28c-4.5,0-8.2,3.7-8.2,8.2c0,4.5,3.7,8.2,8.2,8.2h28v17.3h-28v0c-4.5,0-8.2,3.7-8.2,8.2
			c0,4.5,3.7,8.2,8.2,8.2h29.7c6.7,29.2,32.9,51,64.1,51c31.2,0,57.3-21.8,64.1-51h29.7c4.5,0,8.2-3.7,8.2-8.2s-3.7-8.2-8.2-8.2h-28
			v-17.3H206.7z M104.8,623.7c-23.3-3.9-41.1-24.2-41.1-48.6v-75.6l0,0h16.4h24.7V623.7z M88.3,482.9v-13.2l0,0
			c0-13.6,11.1-24.7,24.7-24.7c13.6,0,24.7,11.1,24.7,24.7v13.2H88.3z M162.3,575c0,24.4-17.8,44.7-41.1,48.6V499.4h24.7h16.4V575z"
			/>
	</g>
</g>
</svg>
