<?xml version="1.0" encoding="utf-8"?>
<!-- Generator: Adobe Illustrator 19.0.0, SVG Export Plug-In . SVG Version: 6.00 Build 0)  -->
<svg version="1.1" id="Layer_1" xmlns="http://www.w3.org/2000/svg" xmlns:xlink="http://www.w3.org/1999/xlink" x="0px" y="0px"
	 viewBox="-294 382 21.8 29" style="enable-background:new -294 382 21.8 29;" xml:space="preserve">
<style type="text/css">
	.st0{fill:#FF6633;}
</style>
<path id="quality_assurance" class="st0" d="M-288.5,402.5c-0.5-0.5-0.2-0.4-1.4-0.7c-0.5-0.2-1-0.4-1.4-0.8l-2.6,6.3
	c-0.2,0.5,0,1,0.5,1.2c0.1,0,0.2,0.1,0.4,0.1l3-0.1l2.1,2.2c0.3,0.4,0.9,0.4,1.3,0c0.1-0.1,0.2-0.2,0.2-0.3l2.9-7.2
	C-285.2,404.1-287.2,403.9-288.5,402.5z M-272.3,407.4l-2.6-6.3c-0.4,0.3-0.9,0.6-1.4,0.8c-1.2,0.3-0.9,0.2-1.4,0.7
	c-1.3,1.3-3.3,1.6-4.9,0.7l2.9,7.2c0.2,0.5,0.7,0.7,1.2,0.5c0.1,0,0.2-0.1,0.3-0.2l2.1-2.2l3,0.1c0.5,0,0.9-0.4,0.9-0.9
	C-272.2,407.7-272.3,407.5-272.3,407.4z M-279.1,401.3c0.9-0.9,1-0.8,2.2-1.1c0.8-0.2,1.4-0.8,1.6-1.6c0.1-1,0.6-2,1.5-2.6
	c0.6-0.6,0.8-1.4,0.6-2.2c-0.4-1-0.4-2,0-3c0.2-0.8,0-1.7-0.6-2.2c-0.8-0.6-1.4-1.6-1.5-2.6c-0.2-0.8-0.8-1.4-1.6-1.6
	c-1-0.1-2-0.7-2.5-1.5c-0.6-0.6-1.4-0.8-2.2-0.6c-0.9,0.4-2,0.4-2.9,0c-0.8-0.2-1.6,0-2.2,0.6c-0.6,0.8-1.5,1.4-2.5,1.5
	c-0.8,0.2-1.4,0.8-1.6,1.6c-0.1,1-0.6,2-1.5,2.6c-0.6,0.6-0.8,1.4-0.6,2.2c0.4,1,0.4,2,0,3c-0.2,0.8,0,1.7,0.6,2.2
	c0.8,0.6,1.4,1.6,1.5,2.6c0.2,0.8,0.8,1.4,1.6,1.6c1.3,0.3,1.4,0.3,2.2,1.1c0.7,0.8,1.9,0.9,2.8,0.3c0.7-0.5,1.7-0.5,2.4,0
	C-281,402.2-279.8,402-279.1,401.3z M-288.5,392c0.1-3,2.5-5.3,5.4-5.2c3,0.1,5.3,2.5,5.2,5.4c-0.1,2.9-2.4,5.2-5.3,5.2
	C-286.1,397.4-288.5,394.9-288.5,392C-288.5,392-288.5,392-288.5,392z"/>
</svg>
