<svg xmlns="http://www.w3.org/2000/svg" width="21.75" height="29" viewBox="0 0 21.75 29">
  <path id="quality_assurance" data-name="quality assurance" d="M5.5,20.532c-.492-.492-.236-.353-1.423-.671a4.087,4.087,0,0,1-1.44-.754l-2.57,6.3A.906.906,0,0,0,.94,26.654l2.984-.114,2.053,2.168a.906.906,0,0,0,1.5-.281L10.422,21.2A4.065,4.065,0,0,1,5.5,20.532ZM21.68,25.407l-2.57-6.3a4.077,4.077,0,0,1-1.44.754c-1.193.319-.932.18-1.423.671a4.065,4.065,0,0,1-4.924.668l2.948,7.228a.906.906,0,0,0,1.5.281l2.053-2.168,2.984.114A.907.907,0,0,0,21.68,25.407ZM14.894,19.25c.865-.881.965-.8,2.2-1.141A2.3,2.3,0,0,0,18.7,16.468a3.64,3.64,0,0,1,1.47-2.591,2.35,2.35,0,0,0,.59-2.242,3.683,3.683,0,0,1,0-2.992,2.35,2.35,0,0,0-.59-2.242A3.641,3.641,0,0,1,18.7,3.809a2.3,2.3,0,0,0-1.613-1.641,3.551,3.551,0,0,1-2.546-1.5,2.254,2.254,0,0,0-2.2-.6,3.505,3.505,0,0,1-2.94,0,2.252,2.252,0,0,0-2.2.6,3.548,3.548,0,0,1-2.545,1.5A2.3,2.3,0,0,0,3.043,3.809,3.639,3.639,0,0,1,1.573,6.4a2.348,2.348,0,0,0-.59,2.242,3.682,3.682,0,0,1,0,2.992,2.351,2.351,0,0,0,.59,2.242,3.64,3.64,0,0,1,1.47,2.591,2.3,2.3,0,0,0,1.613,1.641c1.268.346,1.362.291,2.2,1.141a2.251,2.251,0,0,0,2.817.33,2.247,2.247,0,0,1,2.409,0A2.25,2.25,0,0,0,14.894,19.25ZM5.53,9.959A5.344,5.344,0,1,1,10.873,15.4,5.392,5.392,0,0,1,5.53,9.959Z" transform="translate(0.002 0.008)" fill="#8e99ad"/>
</svg>
