<svg xmlns="http://www.w3.org/2000/svg" viewBox="0 0 153.85 117.53"><defs><style>.cls-1{fill:#989898;stroke:#989898;stroke-miterlimit:10;stroke-width:3px;}</style></defs><title>#8e99ad</title><g id="Layer_2" data-name="Layer 2"><g id="Layer_1-2" data-name="Layer 1"><path class="cls-1" d="M115.38,85.37a28.92,28.92,0,0,0-2.22,2.26,2.58,2.58,0,0,0-.45,1.51c0,7.52,0,15,0,22.56,0,2.92-1.41,4.32-4.34,4.32H5.95c-3,0-4.44-1.4-4.44-4.38q0-52.85,0-105.71C1.51,3,3,1.5,5.93,1.5H108.34c2.91,0,4.35,1.45,4.35,4.35q0,15.6,0,31.2a2.59,2.59,0,0,0,.81,2c10,10.28,12.55,25.23,6.53,38.9-.48,1.08-.32,1.61.63,2.21a5,5,0,0,0,3.67.69A7.84,7.84,0,0,1,130.16,82c6.26,4.08,12.51,8.18,18.72,12.34a7.08,7.08,0,0,1,3.35,7.43,6.94,6.94,0,0,1-5,5.87,7.44,7.44,0,0,1-6.41-1.09q-9.24-6.14-18.42-12.36A7.51,7.51,0,0,1,119,89.54,5.42,5.42,0,0,0,115.38,85.37ZM105.13,9.1c-.51,0-.94-.06-1.37-.06C79.64,9,34.59,9,10.47,9,9.3,9,9,9.35,9,10.49q0,48.29,0,96.59c0,.43,0,.86.07,1.33h96v-15A32.28,32.28,0,0,1,90.47,97a33.48,33.48,0,0,1-14.7-3.32c-.31,1.46-1.35,1.55-2.51,1.55-12.4,0-45.74,0-58.13,0-.44,0-1,.12-1.28-.1-.49-.42-1.07-1-1.08-1.59s.71-1,1.22-1.34c.28-.19.78-.05,1.18-.05H72.65C71,90.74,69.52,89.49,68,88.37a3.93,3.93,0,0,0-2.1-.82c-10-.05-40.86,0-50.82,0-.4,0-.92.13-1.17-.07A3,3,0,0,1,12.72,86c-.18-.78.37-1.36,1.18-1.52a5.63,5.63,0,0,1,1.08,0H64.3a35.49,35.49,0,0,1-2.14-3.29,2.15,2.15,0,0,0-2.28-1.24c-7.92,0-36.78,0-44.7,0-.48,0-1.08.09-1.4-.16-.47-.36-1-1-1-1.5s.65-1.06,1.14-1.43c.26-.2.77-.07,1.17-.08H58.45c.42,0,.83,0,1.32-.06a32.9,32.9,0,0,1-1.11-3.28c-.21-.94-.67-1.15-1.57-1.14-7,0-34.94,0-41.94,0-.47,0-1.08.08-1.39-.17-.47-.37-1-1-1-1.52s.67-1,1.16-1.41c.26-.2.77-.08,1.17-.08H57.27v-10H15c-.4,0-.9.11-1.17-.08-.47-.34-1.09-.87-1.1-1.34a2.42,2.42,0,0,1,.95-1.55c.3-.25.92-.18,1.39-.18,3.92,0,28.78,0,32.7,0,3,0,5.92,0,8.88,0,.4,0,1-.23,1.14-.5.43-1.22.7-2.5,1.07-3.94H15.3A8,8,0,0,1,14,51.46a1.42,1.42,0,0,1-1.3-1.59A1.39,1.39,0,0,1,14,48.44a9.84,9.84,0,0,1,1.08,0c7.68,0,36.3,0,44,0,.44,0,1.09-.08,1.27-.37.82-1.29,1.51-2.67,2.35-4.2H15.1c-.44,0-1,.13-1.29-.09-.48-.37-1.07-1-1.06-1.48s.66-1,1.13-1.43c.22-.18.7-.05,1.05-.05H64c.43,0,1,.05,1.25-.19,1.39-1.4,2.7-2.87,4-4.32H15.33a7.48,7.48,0,0,1-1.43-.09,1.4,1.4,0,0,1-1.22-1.54,1.45,1.45,0,0,1,1.4-1.52,8.29,8.29,0,0,1,1.08,0c12.44,0,45.82,0,58.25,0a4.86,4.86,0,0,0,2-.47,32.6,32.6,0,0,1,22.86-2.39c2.3.58,4.51,1.5,6.81,2.28ZM77.61,80.55c4.59,4.1,13.42,6,21.11,2.53a22.1,22.1,0,0,0-3.88-41.43c-8.19-1.93-16.34,1.8-19.64,6.1.4,0,.74.07,1.08.07,4.28,0,8.56-.06,12.84,0,2.27,0,2.27.53,1.82,1.55-.21.47.24-.6.19-.1-.16,1.7-.44,1.93-2.18,1.93-5.48,0-11,0-16.44,0-.45,0-1.23,1.8-1.44,2.12A17,17,0,0,0,70,55.9c.64,0,1.08.56,1.52.56,5.76,0,11.52,0,17.28,0,.84,0,1.42.23,1.6,1.07a2.92,2.92,0,0,1,.19,1.1c-.11,1.85.15,1.54-1.7,1.54-6,0-12.08,0-18.12,0A2,2,0,0,0,68.81,62c.13,1.67.28,3.34.36,5,.07,1.26.56,2.49,1.92,2.47,5.88-.1,11.76,0,17.64-.06,1,0,1.53.39,1.65,1.31.09.66.1-.13.06.54-.07,1.22-.7,1.66-2,1.65-5.24-.07-10.28.06-15.52.06-.38,0-.95.63-1.35.64.78,2,.8,3.36,2.66,3.36H87.57c2,0,2.45.45,2.47,2.43,0,.44-.06-.47-.16,0a1.33,1.33,0,0,1-1.5,1.22c-1.12-.05-2.24,0-3.36,0Z"/><path class="cls-1" d="M67.59,20.55H15.71c-1.83,0-2.82-.7-3-2.07a2.44,2.44,0,0,1,2.11-2.84,6.33,6.33,0,0,1,1,0h82.7c2.05,0,3.12,1,3,2.69a2.29,2.29,0,0,1-2,2.2,10.28,10.28,0,0,1-1.44.05Z"/></g></g></svg>