<svg xmlns="http://www.w3.org/2000/svg" viewBox="0 0 32.035 26.035">
  <defs>
    <style>
      .cls-1 {
        fill: #ff7949;
      }
    </style>
  </defs>
  <g id="Group_290" data-name="Group 290" transform="translate(-10224.333 -1438.632)">
    <path id="symbol" class="cls-1" d="M18.879,7.465l-1.486-.323a8.087,8.087,0,0,0-.478-1.153l.823-1.28a.578.578,0,0,0-.077-.721L15.345,1.674a.578.578,0,0,0-.721-.077l-1.28.823a8.087,8.087,0,0,0-1.153-.478L11.868.455A.578.578,0,0,0,11.3,0H8.03a.578.578,0,0,0-.565.455L7.142,1.941a8.087,8.087,0,0,0-1.153.478L4.71,1.6a.578.578,0,0,0-.721.077L1.674,3.989A.578.578,0,0,0,1.6,4.71l.823,1.28a8.087,8.087,0,0,0-.478,1.153L.455,7.465A.578.578,0,0,0,0,8.03V11.3a.578.578,0,0,0,.455.565l1.486.323a8.087,8.087,0,0,0,.478,1.153L1.6,14.624a.578.578,0,0,0,.077.721L3.989,17.66a.578.578,0,0,0,.721.077l1.28-.823a8.087,8.087,0,0,0,1.153.478l.323,1.486a.578.578,0,0,0,.565.455H11.3a.578.578,0,0,0,.565-.455l.323-1.486a8.087,8.087,0,0,0,1.153-.478l1.28.823a.578.578,0,0,0,.721-.077l2.315-2.315a.578.578,0,0,0,.077-.721l-.823-1.28a8.087,8.087,0,0,0,.478-1.153l1.486-.323a.578.578,0,0,0,.455-.565V8.03A.578.578,0,0,0,18.879,7.465Zm-5.746,2.2A3.466,3.466,0,1,1,9.667,6.2,3.47,3.47,0,0,1,13.133,9.667Zm0,0" transform="translate(10224.333 1445.333)"/>
    <path id="symbol-2" data-name="symbol" class="cls-1" d="M12.437,4.918l-.979-.213a5.327,5.327,0,0,0-.315-.76l.542-.843a.381.381,0,0,0-.051-.475L10.109,1.1a.381.381,0,0,0-.475-.051l-.843.542a5.328,5.328,0,0,0-.76-.315L7.818.3A.381.381,0,0,0,7.447,0H5.29a.381.381,0,0,0-.372.3l-.213.979a5.327,5.327,0,0,0-.76.315L3.1,1.052a.381.381,0,0,0-.475.051L1.1,2.628a.381.381,0,0,0-.051.475l.542.843a5.328,5.328,0,0,0-.315.76L.3,4.918A.381.381,0,0,0,0,5.29V7.446a.381.381,0,0,0,.3.372l.979.213a5.327,5.327,0,0,0,.315.76l-.542.843a.381.381,0,0,0,.051.475l1.525,1.525a.381.381,0,0,0,.475.051l.843-.542a5.328,5.328,0,0,0,.76.315l.213.979a.381.381,0,0,0,.372.3H7.447a.381.381,0,0,0,.372-.3l.213-.979a5.328,5.328,0,0,0,.76-.315l.843.542a.381.381,0,0,0,.475-.051l1.525-1.525a.381.381,0,0,0,.051-.475l-.542-.843a5.328,5.328,0,0,0,.315-.76l.979-.213a.381.381,0,0,0,.3-.372V5.29A.381.381,0,0,0,12.437,4.918ZM8.652,6.368A2.283,2.283,0,1,1,6.368,4.085,2.286,2.286,0,0,1,8.652,6.368Zm0,0" transform="translate(10243.632 1438.632)"/>
  </g>
</svg>
