<svg id="car" xmlns="http://www.w3.org/2000/svg" width="15.7" height="15.7" viewBox="0 0 15.7 15.7">
  <g id="Group_821" data-name="Group 821">
    <g id="Group_820" data-name="Group 820">
      <path id="Path_204" data-name="Path 204" d="M7.85,0A7.85,7.85,0,1,0,15.7,7.85,7.881,7.881,0,0,0,7.85,0Zm0,1.84a6.052,6.052,0,0,1,5.765,4.326.456.456,0,0,0-.233-.25A13.534,13.534,0,0,0,7.85,4.63,13.534,13.534,0,0,0,2.319,5.916a.456.456,0,0,0-.233.25A6.052,6.052,0,0,1,7.85,1.84ZM1.959,9.034a.46.46,0,0,0,.379.337l1.105.154a3.236,3.236,0,0,1,2.732,2.732l.154,1.105a.456.456,0,0,0,.272.352A6.061,6.061,0,0,1,1.959,9.034Zm5.891.2A1.38,1.38,0,1,1,9.23,7.85,1.381,1.381,0,0,1,7.85,9.23ZM9.1,13.714a.456.456,0,0,0,.272-.352l.154-1.105a3.236,3.236,0,0,1,2.732-2.732l1.105-.154a.46.46,0,0,0,.379-.337A6.061,6.061,0,0,1,9.1,13.714Z" fill="#ff7949"/>
    </g>
  </g>
  <g id="Group_823" data-name="Group 823" transform="translate(7.03 7.03)">
    <g id="Group_822" data-name="Group 822">
      <path id="Path_205" data-name="Path 205" d="M241.82,241a.82.82,0,1,0,.82.82A.821.821,0,0,0,241.82,241Z" transform="translate(-241 -241)" fill="#ff7949"/>
    </g>
  </g>
</svg>
