<svg xmlns="http://www.w3.org/2000/svg" width="13.312" height="18.546" viewBox="0 0 13.312 18.546"><defs><style>.a,.c,.h{fill:#fff;}.b,.d,.j{fill:#8e99ad;}.c,.e{stroke:#fff;}.d,.e,.f{stroke-linecap:round;}.d{stroke-linejoin:round;}.e,.f,.i{fill:none;}.e{stroke-width:2px;}.f{stroke:#161616;}.g,.h,.j{stroke:none;}</style></defs><g transform="translate(-1068 -300.044)"><g class="a" transform="translate(1073 311)"><path class="g" d="M 1.722420334815979 1.306640267372131 L 1.403934359550476 1.306640267372131 L 0.9009853601455688 0.5000002980232239 L 2.15996789932251 0.5000002980232239 L 1.722420334815979 1.306640267372131 Z"/><path class="h" d="M 0 3.576278686523438e-07 L 3 3.576278686523438e-07 L 2.020020008087158 1.806640267372131 L 1.126459956169128 1.806640267372131 L 0 3.576278686523438e-07 Z"/></g><g transform="translate(-14 26)"><g transform="translate(-4074 16141)"><path class="b" d="M6.656,7.607a3.8,3.8,0,1,0-3.8-3.8A3.8,3.8,0,0,0,6.656,7.607Zm2.662.951h-.5a5.172,5.172,0,0,1-4.332,0h-.5A4,4,0,0,0,0,12.551v1.236a1.427,1.427,0,0,0,1.426,1.426H11.886a1.427,1.427,0,0,0,1.426-1.426V12.551A4,4,0,0,0,9.318,8.558Z" transform="translate(5156 -15864.135)"/><g class="c" transform="translate(5158 -15861)"><rect class="g" width="9" height="1"/><rect class="i" x="0.5" y="0.5" width="8"/></g><g class="d" transform="translate(5159 -15864.753)"><path class="g" d="M 7.175296306610107 3.708601474761963 L 7.174396514892578 3.708601474761963 L -3.515624939609552e-06 3.708601474761963 L -0.5583835244178772 3.708601474761963 L -0.4969735145568848 3.153611421585083 C -0.2664735019207001 1.070711493492126 1.489526510238647 -0.499998539686203 3.587646484375 -0.499998539686203 C 5.684154033660889 -0.499998539686203 7.439335823059082 1.068645477294922 7.67176342010498 3.149269104003906 L 7.740786552429199 3.707711458206177 L 7.175296306610107 3.708601474761963 Z"/><path class="j" d="M 7.175296306610107 3.208601474761963 L 7.175186634063721 3.207711458206177 C 6.972426414489746 1.379021406173706 5.430116653442383 1.452636752219405e-06 3.587646484375 1.452636752219405e-06 C 1.745156526565552 1.452636752219405e-06 0.2024564892053604 1.379021406173706 -3.515624939609552e-06 3.208601474761963 L 7.174396514892578 3.208601474761963 L 7.175296306610107 3.208601474761963 M 7.175296306610107 4.208601474761963 L 7.174396514892578 4.208601474761963 L -3.515624939609552e-06 4.208601474761963 C -0.2843735218048096 4.208601474761963 -0.5552834868431091 4.087531566619873 -0.7449834942817688 3.875691413879395 C -0.9346835017204285 3.663841485977173 -1.025213479995728 3.381251335144043 -0.9939334988594055 3.098611354827881 C -0.7353734970092773 0.7620214819908142 1.234286427497864 -0.9999985694885254 3.587646484375 -0.9999985694885254 C 5.940065860748291 -0.9999985694885254 7.909363269805908 0.7608940601348877 8.168951988220215 3.096215963363647 C 8.200458526611328 3.376956939697266 8.111797332763672 3.658565998077393 7.924466609954834 3.870481491088867 C 7.734646320343018 4.085191249847412 7.461886405944824 4.208601474761963 7.175296306610107 4.208601474761963 Z"/></g><line class="e" y2="3.209" transform="translate(5162.5 -15865.956)"/></g><line class="f" y2="3.209" transform="translate(1088.5 275.044)"/></g><g class="a" transform="translate(1073 312.807)"><path class="g" d="M 2.408147573471069 5.283201694488525 L 0.6067898869514465 5.283201694488525 L 1.538468480110168 0.5000015497207642 L 1.597620368003845 0.5000015497207642 L 2.408147573471069 5.283201694488525 Z"/><path class="h" d="M 1.816296577453613 4.783201694488525 L 1.535890579223633 3.128429174423218 L 1.213571667671204 4.783201694488525 L 1.816296577453613 4.783201694488525 M 3 5.783201694488525 L -2.220446049250313e-16 5.783201694488525 L 1.126459956169128 1.56249996052793e-06 L 2.020020008087158 1.56249996052793e-06 L 3 5.783201694488525 Z"/></g></g></svg>