<?xml version="1.0" encoding="utf-8"?>
<!-- Generator: Adobe Illustrator 19.0.0, SVG Export Plug-In . SVG Version: 6.00 Build 0)  -->
<svg version="1.1" id="Layer_1" xmlns="http://www.w3.org/2000/svg" xmlns:xlink="http://www.w3.org/1999/xlink" x="0px" y="0px"
	 viewBox="-151 353 496 496" style="enable-background:new -151 353 496 496;" xml:space="preserve">
<style type="text/css">
	.st0{fill:#010101;}
</style>
<path class="st0" d="M346,564.3v-46L318,481h-20v56h-32v-56h-20l-28,37.3v46l32,32v137.4l-32,32v46l28,37.3h20v-56h32v56h20l28-37.3
	v-46l-32-32V596.3L346,564.3z M330,772.3v34l-16,21.3V777h-64v50.7l-16-21.3v-34l32-32V589.7l-32-32v-34l16-21.3V553h64v-50.7
	l16,21.3v34l-32,32v150.6L330,772.3z"/>
<path class="st0" d="M159.6,704.2L74,682.8v-17.9c17.6-13.2,29.6-33.5,31.6-56.6C124,604.6,138,588.4,138,569v-72
	c0-53.5-37.7-98.3-88-109.3V377c0-13.2-10.8-24-24-24S2,363.8,2,377v10.7c-39.8,8.7-71.8,38.6-83.3,77.3H-118c-13.2,0-24,10.8-24,24
	s10.8,24,24,24h32v56c0,19.4,14,35.6,32.4,39.2c2.1,23.1,14.1,43.4,31.6,56.6v17.9l-85.6,21.4c-25,6.2-42.4,28.6-42.4,54.3V849h352
	v-90.5C202,732.7,184.6,710.4,159.6,704.2z M122,769.8V833H34v-44.2l40-32V745h12.5l22.2-37.1l39.2,9.8l-13.7,17.1
	C126.4,744.7,122,757.2,122,769.8z M-82.3,734.8L-96,717.7l39.2-9.8l22.2,37.1H-22v11.8l40,32V833h-88v-63.2
	C-70,757.2-74.4,744.7-82.3,734.8z M92.5,703.9L77.5,729H58v20.2l-24,19.2v-28.4L68.9,698L92.5,703.9z M-38,513h37.1
	c-10.6,8.5-23.5,14-37.1,15.5V513z M26,405.3l5.5,6.4c20.5,23.9,32.4,54,34.2,85.3h-79.3c1.8-31.3,13.6-61.4,34.2-85.3L26,405.3z
	 M21.7,513h17.4c-9.6,7.7-21.1,12.8-33.3,14.9C11.7,523.6,17,518.6,21.7,513z M61.7,513h17.4c-9.6,7.7-21.1,12.8-33.3,14.9
	C51.7,523.6,57,518.6,61.7,513z M106,591.5v-45c9.3,3.3,16,12.1,16,22.5C122,579.4,115.3,588.2,106,591.5z M122,537.2
	c-4.7-3.5-10.1-6.2-16-7.4V513h16V537.2z M122,497H81.6c-1.7-34.5-14.6-67.5-36.8-94.1C88.8,411.7,122,450.5,122,497z M18,377
	c0-4.4,3.6-8,8-8s8,3.6,8,8v8.4c-2.7-0.2-5.3-0.4-8-0.4c-2.7,0-5.4,0.1-8,0.3V377z M7.1,402.9c-22.2,26.6-35,59.6-36.8,94.1H-70
	C-70,450.5-36.8,411.7,7.1,402.9z M-126,489c0-4.4,3.6-8,8-8h33.1c-0.8,5.2-1.1,10.6-1.1,16h-32C-122.4,497-126,493.4-126,489z
	 M-54,513v16.8c-5.9,1.2-11.3,3.9-16,7.4V513H-54z M-70,569c0-10.4,6.7-19.2,16-22.5v45C-63.3,588.2-70,579.4-70,569z M-38,601
	v-56.5c11.2-1,22.1-4.2,32-9.2v9.7c14,0,27.7-3.4,40-9.7v9.7c20.5,0,40.4-7.3,56-20.2V601c0,35.3-28.7,64-64,64S-38,636.3-38,601z
	 M26,681c11.4,0,22.2-2.4,32-6.7v11.8l-32,38.4l-32-38.4v-11.8C3.8,678.6,14.6,681,26,681z M-16.9,698L18,739.9v28.4l-24-19.2V729
	h-19.5l-15.1-25.1L-16.9,698z M-134,758.5c0-15.3,8.6-28.7,21.8-35.5l17.5,21.8c5.7,7.1,8.8,15.9,8.8,25V833h-48V758.5z M186,833
	h-48v-63.2c0-9,3.1-17.9,8.8-25l17.5-21.8c13.1,6.7,21.8,20.2,21.8,35.5V833z"/>
<path class="st0" d="M74,561c0,4.4-3.6,8-8,8s-8-3.6-8-8s3.6-8,8-8S74,556.6,74,561z"/>
<path class="st0" d="M-6,561c0,4.4-3.6,8-8,8s-8-3.6-8-8s3.6-8,8-8S-6,556.6-6,561z"/>
<path class="st0" d="M26,641c17.6,0,32-14.4,32-32H42c0,8.8-7.2,16-16,16s-16-7.2-16-16H-6C-6,626.6,8.4,641,26,641z"/>
</svg>
