<?xml version="1.0" encoding="utf-8"?>
<!-- Generator: Adobe Illustrator 19.0.0, SVG Export Plug-In . SVG Version: 6.00 Build 0)  -->
<svg version="1.1" id="Layer_1" xmlns="http://www.w3.org/2000/svg" xmlns:xlink="http://www.w3.org/1999/xlink" x="0px" y="0px"
	 viewBox="-261 346.8 88.3 101.2" style="enable-background:new -261 346.8 88.3 101.2;" xml:space="preserve">
<style type="text/css">
	.st0{fill:none;}
	.st1{fill:#FF7949;}
</style>
<g>
	<path class="st0" d="M-188.7,349.6L-188.7,349.6c-4.8,0-8.7,3.9-8.7,8.7c0,4.8,3.9,8.7,8.7,8.7c4.8,0,8.7-3.9,8.7-8.7
		C-180,353.5-183.9,349.6-188.7,349.6z M-188.7,364.1c-3.2,0-5.8-2.6-5.8-5.8c0-0.5,0.1-1,0.2-1.5c0.5,0.4,1.1,0.6,1.7,0.6
		c1.6,0,2.9-1.3,2.9-2.9c0-0.6-0.2-1.2-0.6-1.7c0.5-0.1,1-0.2,1.6-0.2h0c3.2,0,5.8,2.6,5.8,5.8
		C-182.9,361.5-185.5,364.1-188.7,364.1z"/>
	<path class="st1" d="M-172.9,357.6L-172.9,357.6c-3.3-6.6-10-10.8-17.3-10.8c-7.4,0.1-14.1,4.2-17.3,10.8c-0.1,0.3-0.2,0.6-0.2,0.9
		c0,0.3,0.1,0.6,0.2,0.9c3.3,6.6,10,10.8,17.3,10.8c7.4-0.1,14.1-4.2,17.3-10.8c0.1-0.3,0.2-0.6,0.2-0.9
		C-172.7,358.2-172.8,357.9-172.9,357.6z M-188.7,367c-4.8,0-8.7-3.9-8.7-8.7c0-4.8,3.9-8.7,8.7-8.7v0c4.8,0,8.7,3.9,8.7,8.7
		C-180,363.1-183.9,367-188.7,367z"/>
	<path class="st1" d="M-188.7,352.5L-188.7,352.5c-0.5,0-1,0.1-1.6,0.2c0.4,0.5,0.6,1.1,0.6,1.7c0,1.6-1.3,2.9-2.9,2.9
		c-0.6,0-1.2-0.2-1.7-0.6c-0.1,0.5-0.2,1-0.2,1.5c0,3.2,2.6,5.8,5.8,5.8c3.2,0,5.8-2.6,5.8-5.8
		C-182.9,355.1-185.5,352.5-188.7,352.5z"/>
	<path class="st1" d="M-224.9,406.7C-224.9,406.7-224.9,406.7-224.9,406.7L-224.9,406.7c11.4,0,20.6-9.2,20.6-20.6c0,0,0,0,0,0
		c0-11.4-9.2-20.6-20.6-20.6c0,0,0,0,0,0c-11.4,0-20.6,9.2-20.6,20.6C-245.5,397.5-236.3,406.7-224.9,406.7z"/>
	<path class="st1" d="M-210.4,411.9L-210.4,411.9l-2.7,0c-3.7,1.7-7.7,2.6-11.8,2.6c-4.1,0-8.1-0.9-11.8-2.6h-2.7
		c-12,0-21.7,9.7-21.7,21.7v6.7c0,4.3,3.5,7.7,7.7,7.7h56.7c4.3,0,7.7-3.5,7.7-7.7v-6.7C-188.8,421.6-198.5,411.9-210.4,411.9z"/>
</g>
</svg>
