<?xml version="1.0" encoding="utf-8"?>
<!-- Generator: Adobe Illustrator 19.0.0, SVG Export Plug-In . SVG Version: 6.00 Build 0)  -->
<svg version="1.1" id="Layer_1" xmlns="http://www.w3.org/2000/svg" xmlns:xlink="http://www.w3.org/1999/xlink" x="0px" y="0px"
	 viewBox="-252 346.8 106.7 101.2" style="enable-background:new -252 346.8 106.7 101.2;" xml:space="preserve">
<style type="text/css">
	.st0{fill:none;}
	.st1{fill:#FF7949;}
</style>
<g>
	<path class="st0" d="M-161.3,349.6L-161.3,349.6c-4.8,0-8.7,3.9-8.7,8.7c0,0,0,0,0,0c0,4.8,3.9,8.7,8.7,8.7c4.8,0,8.7-3.9,8.7-8.7
		C-152.6,353.5-156.5,349.6-161.3,349.6z M-155.7,359.8c-0.9,3.1-4.1,4.9-7.2,4.1c-3.1-0.9-4.9-4.1-4.1-7.2c1,0.8,2.4,0.8,3.5,0
		c1.3-1,1.6-2.8,0.6-4.1c1-0.3,2.1-0.3,3.1,0C-156.7,353.5-154.9,356.7-155.7,359.8z"/>
	<rect x="-215.1" y="381.5" class="st0" width="14.8" height="3.7"/>
	<path class="st1" d="M-207.7,424c-1,0-1.9-0.2-2.8-0.5l-41.5-13.8v28.2c0,5.6,4.5,10.1,10.1,10.2c0,0,0,0,0,0h68.3
		c5.6,0,10.1-4.5,10.1-10.1c0,0,0,0,0,0v-28.2l-41.7,13.9C-205.9,423.9-206.8,424-207.7,424z"/>
	<path class="st1" d="M-173.5,385.2h-19.4v-3.7c0-4.1-3.3-7.4-7.4-7.4h-14.8c-4.1,0-7.4,3.3-7.4,7.4v3.7h-19.4c0,0,0,0,0,0
		c-5.6,0-10.1,4.5-10.1,10.2v8.5l43.4,14.5c0.6,0.2,1.2,0.2,1.8,0l43.4-14.5v-8.5c0,0,0,0,0,0C-163.4,389.8-167.9,385.2-173.5,385.2
		z M-215.1,385.2v-3.7h14.8v3.7H-215.1z"/>
	<path class="st1" d="M-145.6,357.6c-4.7-9.6-16.3-13.5-25.8-8.8c-3.8,1.9-7,5-8.8,8.8c-0.3,0.6-0.3,1.2,0,1.8
		c4.7,9.6,16.3,13.5,25.8,8.8c3.8-1.9,7-5,8.8-8.8C-145.3,358.9-145.3,358.2-145.6,357.6z M-161.3,367.1c-4.8,0-8.7-3.9-8.7-8.7
		c0,0,0,0,0,0c0-4.8,3.9-8.7,8.7-8.7v0c4.8,0,8.7,3.9,8.7,8.7C-152.6,363.1-156.5,367.1-161.3,367.1z"/>
	<path class="st1" d="M-159.8,352.7c-1-0.3-2.1-0.3-3.1,0c1,1.3,0.7,3.1-0.6,4.1c-1,0.8-2.4,0.8-3.5,0c-0.9,3.1,1,6.3,4.1,7.2
		c3.1,0.9,6.3-1,7.2-4.1C-154.9,356.7-156.7,353.5-159.8,352.7z"/>
</g>
</svg>
