<?xml version="1.0" encoding="utf-8"?>
<!-- Generator: Adobe Illustrator 19.0.0, SVG Export Plug-In . SVG Version: 6.00 Build 0)  -->
<svg version="1.1" id="Layer_1" xmlns="http://www.w3.org/2000/svg" xmlns:xlink="http://www.w3.org/1999/xlink" x="0px" y="0px"
	 viewBox="-220.7 334.7 113.1 106.9" style="enable-background:new -220.7 334.7 113.1 106.9;" xml:space="preserve">
<style type="text/css">
	.st0{fill:none;}
	.st1{fill:#8E99AD;}
	.st2{fill:#FFFFFF;}
	.st3{fill:none;stroke:#FFFFFF;stroke-width:0;stroke-linecap:round;stroke-linejoin:round;}
</style>
<g>
	<path class="st0" d="M-123.6,347.8c-4.8,0-8.7,3.9-8.7,8.7c0,4.8,3.9,8.7,8.7,8.7c4.8,0,8.7-3.9,8.7-8.7
		C-114.8,351.7-118.7,347.8-123.6,347.8z M-117.9,358.1c-0.9,3.1-4.1,4.9-7.2,4.1c-3.1-0.9-4.9-4.1-4.1-7.2c1,0.8,2.4,0.8,3.5,0
		c1.3-1,1.6-2.8,0.6-4.1c1-0.3,2.1-0.3,3.1,0C-118.9,351.7-117.1,355-117.9,358.1z"/>
	<path class="st1" d="M-107.8,355.8c-4.7-9.6-16.3-13.5-25.8-8.8c-3.8,1.9-7,5-8.8,8.8c-0.3,0.6-0.3,1.2,0,1.8
		c4.7,9.6,16.3,13.5,25.8,8.8c3.8-1.9,7-5,8.8-8.8C-107.5,357.1-107.5,356.4-107.8,355.8z M-123.6,365.3c-4.8,0-8.7-3.9-8.7-8.7
		c0-4.8,3.9-8.7,8.7-8.7c4.8,0,8.7,3.9,8.7,8.7C-114.8,361.3-118.7,365.3-123.6,365.3z"/>
	<path class="st1" d="M-122,350.9c-1-0.3-2.1-0.3-3.1,0c1,1.3,0.7,3.1-0.6,4.1c-1,0.8-2.4,0.8-3.5,0c-0.9,3.1,1,6.3,4.1,7.2
		c3.1,0.9,6.3-1,7.2-4.1C-117.1,355-118.9,351.7-122,350.9z"/>
	<path class="st1" d="M-195,378.7c-10.3,10.3-10.3,27,0,37.3c10.3,10.3,27,10.3,37.3,0c5-4.9,7.7-11.7,7.7-18.7
		c0-7-2.8-13.7-7.7-18.6C-168,368.4-184.7,368.4-195,378.7z M-163.1,380.5c1.9,0,3.5,1.6,3.5,3.5s-1.6,3.5-3.5,3.5s-3.5-1.6-3.5-3.5
		S-165.1,380.5-163.1,380.5z M-176.3,375c1.9,0,3.5,1.6,3.5,3.5s-1.6,3.5-3.5,3.5c-1.9,0-3.5-1.6-3.5-3.5
		C-179.8,376.6-178.3,375-176.3,375z M-189.6,380.5c1.9,0,3.5,1.6,3.5,3.5s-1.6,3.5-3.5,3.5s-3.5-1.6-3.5-3.5
		S-191.5,380.5-189.6,380.5z M-195.1,400.7c-1.9,0-3.5-1.6-3.5-3.5s1.6-3.5,3.5-3.5s3.5,1.6,3.5,3.5S-193.1,400.7-195.1,400.7z
		 M-189.6,414c-1.9,0-3.5-1.6-3.5-3.5s1.6-3.5,3.5-3.5s3.5,1.6,3.5,3.5S-187.6,414-189.6,414z M-176.3,419.4c-1.9,0-3.5-1.6-3.5-3.5
		c0-1.9,1.6-3.5,3.5-3.5s3.5,1.6,3.5,3.5S-174.4,419.4-176.3,419.4z M-176.3,409.5c-6.7,0-12.1-5.4-12.1-12.1
		c0-4.9,2.9-9.3,7.5-11.2c1.5-0.6,3-0.9,4.6-0.9c6.7,0,12.1,5.4,12.1,12.1C-164.2,404.1-169.6,409.5-176.3,409.5z M-163.1,414
		c-1.9,0-3.5-1.6-3.5-3.5s1.6-3.5,3.5-3.5s3.5,1.6,3.5,3.5S-161.2,414-163.1,414z M-154.1,397.2c0,1.9-1.6,3.5-3.5,3.5
		s-3.5-1.6-3.5-3.5s1.6-3.5,3.5-3.5S-154.1,395.3-154.1,397.2z"/>
	<path class="st1" d="M-207.7,366c-17.3,17.3-17.3,45.3,0,62.6s45.3,17.3,62.6,0s17.3-45.3,0-62.6S-190.4,348.7-207.7,366z
		 M-176.3,430.4c-18.2,0-33-14.8-33-33c0-8.8,3.5-17.2,9.7-23.4c6.2-6.2,14.6-9.7,23.3-9.7c0,0,0,0,0,0h0c0,0,0,0,0,0
		c18.2,0,33,14.8,33,33C-143.3,415.6-158.1,430.4-176.3,430.4z"/>
	<path class="st2" d="M-176.3,364.4c-8.8,0-17.1,3.5-23.3,9.7c-6.2,6.2-9.7,14.6-9.7,23.4c0,18.2,14.8,33,33,33
		c18.2,0,33-14.8,33-33C-143.3,379.1-158.1,364.3-176.3,364.4z M-157.8,416c-10.3,10.3-27,10.3-37.3,0c-10.3-10.3-10.3-27,0-37.3
		c10.3-10.3,27-10.3,37.3,0c4.9,4.9,7.7,11.6,7.7,18.6C-150,404.3-152.8,411.1-157.8,416z"/>
	<polygon class="st2" points="-176.3,364.4 -176.3,364.4 -176.3,364.4 	"/>
	<line class="st3" x1="-172.6" y1="388.3" x2="-172.6" y2="388.3"/>
	<path class="st2" d="M-176.3,385.3c-1.6,0-3.2,0.3-4.6,0.9c-4.5,1.9-7.5,6.3-7.5,11.2c0,6.7,5.4,12.1,12.1,12.1
		c6.7,0,12.1-5.4,12.1-12.1C-164.2,390.7-169.7,385.3-176.3,385.3z M-172.6,388.3L-172.6,388.3L-172.6,388.3z"/>
	<circle class="st2" cx="-176.3" cy="378.5" r="3.5"/>
	<circle class="st2" cx="-176.3" cy="415.9" r="3.5"/>
	<circle class="st2" cx="-157.6" cy="397.2" r="3.5"/>
	<circle class="st2" cx="-195.1" cy="397.2" r="3.5"/>
	<circle class="st2" cx="-189.6" cy="410.5" r="3.5"/>
	<circle class="st2" cx="-163.1" cy="384" r="3.5"/>
	<circle class="st2" cx="-163.1" cy="410.5" r="3.5"/>
	<circle class="st2" cx="-189.6" cy="384" r="3.5"/>
</g>
</svg>
