<?xml version="1.0" encoding="utf-8"?>
<!-- Generator: Adobe Illustrator 19.0.0, SVG Export Plug-In . SVG Version: 6.00 Build 0)  -->
<svg version="1.1" id="Layer_1" xmlns="http://www.w3.org/2000/svg" xmlns:xlink="http://www.w3.org/1999/xlink" x="0px" y="0px"
	 viewBox="-245 345.8 119.6 96.6" style="enable-background:new -245 345.8 119.6 96.6;" xml:space="preserve">
<style type="text/css">
	.st0{fill:none;}
	.st1{fill:#FF7949;}
	.st2{fill:#FFFFFF;}
	.st3{fill:none;stroke:#FFFFFF;stroke-width:0;stroke-linecap:round;stroke-linejoin:round;}
</style>
<g>
	<path class="st0" d="M-141.4,348.6c-4.8,0-8.7,3.9-8.7,8.7c0,0,0,0,0,0c0,4.8,3.9,8.7,8.7,8.7c4.8,0,8.7-3.9,8.7-8.7
		C-132.6,352.5-136.5,348.6-141.4,348.6z M-135.7,358.9c-0.9,3.1-4.1,4.9-7.2,4.1c-3.1-0.9-4.9-4.1-4.1-7.2c1,0.8,2.4,0.8,3.5,0
		c1.3-1,1.6-2.8,0.6-4.1c0.5-0.1,1-0.2,1.6-0.2c0.5,0,1,0.1,1.6,0.2C-136.7,352.6-134.9,355.8-135.7,358.9z"/>
	<path class="st1" d="M-125.6,356.7c-4.7-9.6-16.3-13.5-25.8-8.8c-3.8,1.9-7,5-8.8,8.8c-0.3,0.6-0.3,1.2,0,1.8
		c4.7,9.6,16.3,13.5,25.8,8.8c3.8-1.9,7-5,8.8-8.8C-125.3,357.9-125.3,357.2-125.6,356.7z M-141.4,366.1c-4.8,0-8.7-3.9-8.7-8.7
		c0,0,0,0,0,0c0-4.8,3.9-8.7,8.7-8.7c4.8,0,8.7,3.9,8.7,8.7C-132.6,362.2-136.5,366.1-141.4,366.1z"/>
	<path class="st1" d="M-139.8,351.7c-0.5-0.1-1-0.2-1.6-0.2c-0.5,0-1,0.1-1.6,0.2c1,1.3,0.7,3.1-0.6,4.1c-1,0.8-2.4,0.8-3.5,0
		c-0.9,3.1,1,6.3,4.1,7.2c3.1,0.9,6.3-1,7.2-4.1C-134.9,355.8-136.7,352.6-139.8,351.7z"/>
	<path class="st1" d="M-212.8,379.5c-10.3,10.3-10.3,27,0,37.3c10.3,10.3,27,10.3,37.3,0c5-4.9,7.7-11.7,7.7-18.7
		c0-7-2.8-13.7-7.7-18.6C-185.8,369.2-202.5,369.2-212.8,379.5z M-180.9,381.3c1.9,0,3.5,1.6,3.5,3.5c0,1.9-1.6,3.5-3.5,3.5
		s-3.5-1.6-3.5-3.5C-184.4,382.9-182.9,381.3-180.9,381.3z M-194.2,375.8c1.9,0,3.5,1.6,3.5,3.5s-1.6,3.5-3.5,3.5
		c-1.9,0-3.5-1.6-3.5-3.5C-197.7,377.4-196.1,375.8-194.2,375.8z M-207.4,381.3c1.9,0,3.5,1.6,3.5,3.5c0,1.9-1.6,3.5-3.5,3.5
		s-3.5-1.6-3.5-3.5C-210.9,382.9-209.3,381.3-207.4,381.3z M-212.9,401.5c-1.9,0-3.5-1.6-3.5-3.5s1.6-3.5,3.5-3.5s3.5,1.6,3.5,3.5
		S-210.9,401.5-212.9,401.5z M-207.4,414.8c-1.9,0-3.5-1.6-3.5-3.5s1.6-3.5,3.5-3.5s3.5,1.6,3.5,3.5S-205.5,414.8-207.4,414.8z
		 M-194.2,420.2c-1.9,0-3.5-1.6-3.5-3.5c0-1.9,1.6-3.5,3.5-3.5s3.5,1.6,3.5,3.5S-192.2,420.2-194.2,420.2z M-194.1,410.3
		c-6.7,0-12.1-5.4-12.1-12.1c0-4.9,2.9-9.3,7.5-11.2c1.5-0.6,3-0.9,4.6-0.9c6.7,0,12.1,5.4,12.1,12.1
		C-182,404.9-187.5,410.3-194.1,410.3z M-180.9,414.8c-1.9,0-3.5-1.6-3.5-3.5s1.6-3.5,3.5-3.5s3.5,1.6,3.5,3.5
		S-179,414.8-180.9,414.8z M-172,398c0,1.9-1.6,3.5-3.5,3.5s-3.5-1.6-3.5-3.5s1.6-3.5,3.5-3.5S-172,396.1-172,398z"/>
	<path class="st1" d="M-201.3,354.4c-24.1,3.9-40.5,26.7-36.6,50.8s26.7,40.5,50.8,36.6s40.5-26.7,36.6-50.8
		S-177.1,350.5-201.3,354.4z M-194.1,431.2c-18.2,0-33-14.8-33-33c0-8.8,3.5-17.2,9.7-23.4c6.2-6.2,14.6-9.7,23.3-9.7
		c18.2,0,33,14.8,33,33C-161.1,416.4-175.9,431.2-194.1,431.2z"/>
	<path class="st2" d="M-194.2,365.2c-8.8,0-17.1,3.5-23.3,9.7c-6.2,6.2-9.7,14.6-9.7,23.4c0,18.2,14.8,33,33,33
		c18.2,0,33-14.8,33-33C-161.1,379.9-175.9,365.2-194.2,365.2z M-175.6,416.8c-10.3,10.3-27,10.3-37.3,0c-10.3-10.3-10.3-27,0-37.3
		c10.3-10.3,27-10.3,37.3,0c4.9,4.9,7.7,11.6,7.7,18.6C-167.8,405.2-170.6,411.9-175.6,416.8z"/>
	<line class="st3" x1="-190.4" y1="389.1" x2="-190.4" y2="389.1"/>
	<path class="st2" d="M-194.2,386.1c-1.6,0-3.2,0.3-4.6,0.9c-4.5,1.9-7.5,6.3-7.5,11.2c0,6.7,5.4,12.1,12.1,12.1
		c6.7,0,12.1-5.4,12.1-12.1C-182.1,391.5-187.5,386.1-194.2,386.1z M-190.4,389.1L-190.4,389.1L-190.4,389.1z"/>
	<path class="st2" d="M-194.2,382.8c1.9,0,3.5-1.6,3.5-3.5s-1.6-3.5-3.5-3.5s-3.5,1.6-3.5,3.5C-197.7,381.3-196.1,382.8-194.2,382.8
		z"/>
	<path class="st2" d="M-194.2,413.2c-1.9,0-3.5,1.6-3.5,3.5c0,1.9,1.6,3.5,3.5,3.5c1.9,0,3.5-1.6,3.5-3.5S-192.2,413.2-194.2,413.2z
		"/>
	<circle class="st2" cx="-175.5" cy="398" r="3.5"/>
	<circle class="st2" cx="-212.9" cy="398" r="3.5"/>
	<circle class="st2" cx="-207.4" cy="411.3" r="3.5"/>
	<circle class="st2" cx="-180.9" cy="384.8" r="3.5"/>
	<circle class="st2" cx="-180.9" cy="411.3" r="3.5"/>
	<circle class="st2" cx="-207.4" cy="384.8" r="3.5"/>
</g>
</svg>
