<?xml version="1.0" encoding="utf-8"?>
<!-- Generator: Adobe Illustrator 19.0.0, SVG Export Plug-In . SVG Version: 6.00 Build 0)  -->
<svg version="1.1" id="Layer_1" xmlns="http://www.w3.org/2000/svg" xmlns:xlink="http://www.w3.org/1999/xlink" x="0px" y="0px"
	 viewBox="-246 346.8 118.9 101.2" style="enable-background:new -246 346.8 118.9 101.2;" xml:space="preserve">
<style type="text/css">
	.st0{fill:none;}
	.st1{fill:#8E99AD;}
</style>
<g>
	<path class="st0" d="M-162.3,409.4c-3.9,0-9.7,5.8-9.7,9.6c0,3.9,5.8,3.2,9.7,3.2c0.1,0,0.1,0,0.2,0c3.5,0,6.4-3,6.3-6.5
		C-155.8,412.2-158.7,409.3-162.3,409.4z"/>
	<path class="st0" d="M-226.7,409.4c-0.2,0-0.5,0-0.7,0c-3.3,0.2-5.9,3.1-5.7,6.4c0,0.2,0,0.5,0,0.7c0.2,3.3,3.1,5.9,6.4,5.7
		c3.9,0,9.7,0.6,9.7-3.2S-222.8,409.4-226.7,409.4z"/>
	<path class="st0" d="M-172.7,389.7c-1.5-3.7-5-6.1-9-6.1h-25.6c-3.9,0-7.5,2.4-9,6.1l-4,10h51.5L-172.7,389.7z"/>
	<path class="st0" d="M-143.1,349.6c-4.8,0-8.7,3.9-8.7,8.7c0,4.8,3.9,8.7,8.7,8.7c4.8,0,8.7-3.9,8.7-8.7
		C-134.3,353.5-138.2,349.6-143.1,349.6z M-137.4,359.9c-0.9,3.1-4.1,4.9-7.2,4.1s-4.9-4.1-4.1-7.2c1,0.8,2.4,0.8,3.5,0
		c1.3-1,1.6-2.8,0.6-4.1c1-0.3,2.1-0.3,3.1,0C-138.4,353.5-136.6,356.7-137.4,359.9z"/>
	<path class="st1" d="M-144.8,393.3c-0.2,0-0.4-0.1-0.6-0.1l0,0h-12l-3.3-8.4c-3.4-8.6-11.7-14.2-20.9-14.2h-25.6
		c-9.2,0-17.5,5.6-20.9,14.2l-3.3,8.4h-12c-1.3,0-2.4,1.1-2.4,2.4c0,0.2,0,0.4,0.1,0.6l1.2,4.8c0.3,1.1,1.2,1.8,2.3,1.8h4
		c-2.8,2.4-4.4,5.9-4.4,9.7v9.7c0,3.1,1.2,6.1,3.2,8.4v10.9c0,3.6,2.9,6.4,6.4,6.4h6.4c3.6,0,6.4-2.9,6.4-6.4v-6.4h51.5v6.4
		c0,3.6,2.9,6.4,6.4,6.4h6.4c3.6,0,6.4-2.9,6.4-6.4v-10.9c2.1-2.3,3.2-5.3,3.2-8.4v-9.7c0-3.7-1.6-7.2-4.4-9.7h4
		c1.1,0,2.1-0.8,2.3-1.8l1.2-4.8C-142.7,395-143.5,393.7-144.8,393.3z M-216.2,389.7c1.5-3.7,5-6.1,9-6.1h25.6c3.9,0,7.5,2.4,9,6.1
		l4,10h-51.5L-216.2,389.7z M-226.7,422.2c-3.3,0.2-6.2-2.3-6.4-5.7c0-0.2,0-0.5,0-0.7c-0.2-3.3,2.4-6.2,5.7-6.4c0.2,0,0.5,0,0.7,0
		c3.9,0,9.7,5.8,9.7,9.6S-222.8,422.2-226.7,422.2z M-162.1,422.2c-0.1,0-0.1,0-0.2,0c-3.9,0-9.7,0.6-9.7-3.2c0-3.9,5.8-9.6,9.7-9.6
		c3.5,0,6.5,2.8,6.5,6.3C-155.7,419.2-158.6,422.2-162.1,422.2z"/>
	<path class="st1" d="M-127.3,357.6c-4.7-9.6-16.3-13.5-25.8-8.8c-3.8,1.9-7,5-8.8,8.8c-0.3,0.6-0.3,1.2,0,1.8
		c4.7,9.6,16.3,13.5,25.8,8.8c3.8-1.9,7-5,8.8-8.8C-127,358.9-127,358.2-127.3,357.6z M-143.1,367c-4.8,0-8.7-3.9-8.7-8.7
		c0-4.8,3.9-8.7,8.7-8.7c4.8,0,8.7,3.9,8.7,8.7C-134.3,363.1-138.2,367-143.1,367z"/>
	<path class="st1" d="M-141.5,352.7c-1-0.3-2.1-0.3-3.1,0c1,1.3,0.7,3.1-0.6,4.1c-1,0.8-2.4,0.8-3.5,0c-0.9,3.1,1,6.3,4.1,7.2
		s6.3-1,7.2-4.1C-136.6,356.7-138.4,353.5-141.5,352.7z"/>
</g>
</svg>
