<?xml version="1.0" encoding="utf-8"?>
<!-- Generator: Adobe Illustrator 19.0.0, SVG Export Plug-In . SVG Version: 6.00 Build 0)  -->
<svg version="1.1" id="Layer_1" xmlns="http://www.w3.org/2000/svg" xmlns:xlink="http://www.w3.org/1999/xlink" x="0px" y="0px"
	 viewBox="-258 346.8 93.4 101.2" style="enable-background:new -258 346.8 93.4 101.2;" xml:space="preserve">
<style type="text/css">
	.st0{fill:none;}
	.st1{fill:#FF7949;}
</style>
<g>
	<path class="st0" d="M-180.6,349.6L-180.6,349.6c-4.8,0-8.7,3.9-8.7,8.7c0,0,0,0,0,0c0,4.8,3.9,8.7,8.7,8.7c4.8,0,8.7-3.9,8.7-8.7
		C-171.8,353.5-175.8,349.6-180.6,349.6z M-175,359.9c-0.9,3.1-4.1,4.9-7.2,4.1c-3.1-0.9-4.9-4.1-4.1-7.2c1,0.8,2.4,0.8,3.5,0
		c1.3-1,1.6-2.8,0.6-4.1h0v0l0,0c0.5-0.1,1-0.2,1.6-0.2c0.5,0,1,0.1,1.6,0.2C-175.9,353.5-174.1,356.7-175,359.9z"/>
	<path class="st1" d="M-164.8,357.6c-4.7-9.6-16.3-13.5-25.8-8.8c-3.8,1.9-7,5-8.8,8.8c-0.3,0.6-0.3,1.2,0,1.8
		c4.7,9.6,16.3,13.5,25.8,8.8c3.8-1.9,7-5,8.8-8.8C-164.5,358.9-164.5,358.2-164.8,357.6z M-180.6,367.1c-4.8,0-8.7-3.9-8.7-8.7
		c0,0,0,0,0,0c0-4.8,3.9-8.7,8.7-8.7l0,0c4.8,0,8.7,3.9,8.7,8.7C-171.8,363.1-175.8,367.1-180.6,367.1z"/>
	<path class="st1" d="M-179,352.7c-0.5-0.1-1-0.2-1.6-0.2c-0.5,0-1,0.1-1.6,0.2c1,1.3,0.7,3.1-0.6,4.1c-1,0.8-2.4,0.8-3.5,0
		c-0.9,3.1,1,6.3,4.1,7.2c3.1,0.9,6.3-1,7.2-4.1C-174.1,356.7-175.9,353.5-179,352.7z"/>
	<polygon class="st1" points="-182.1,352.7 -182.1,352.7 -182.1,352.7 	"/>
	<path class="st1" d="M-221.9,406.7L-221.9,406.7c10.5,0,19.3-7.9,20.5-18.3h-41C-241.2,398.9-232.4,406.7-221.9,406.7z"/>
	<path class="st1" d="M-207.4,411.9L-207.4,411.9h-2.7c-7.5,3.4-16,3.4-23.5,0h-2.7c-12,0-21.7,9.7-21.7,21.7v6.7
		c0,4.3,3.5,7.7,7.7,7.7c0,0,0,0,0,0h56.7c4.3,0,7.7-3.5,7.7-7.7v-6.7C-185.8,421.6-195.5,411.9-207.4,411.9z"/>
	<path class="st1" d="M-244.2,384.3h44.7c1.8,0,3.2-1.4,3.2-3.2V381c0-1.8-1.4-3.2-3.2-3.2h-1.3c-1.3-6.1-5.2-11.4-10.9-14.4
		l-4.5,8.5l-0.1-6.6c-0.1-6.9-10.8-7.4-10.8,0.4l-0.1,6.2l-4.6-8.7c-5.9,3-10,8.4-11.3,14.7h-1.3c-1.8,0-3.2,1.4-3.2,3.2v0.1
		C-247.5,382.9-246,384.3-244.2,384.3z"/>
</g>
</svg>
