<svg xmlns="http://www.w3.org/2000/svg" viewBox="0 0 15 13.125">
  <defs>
    <style>
      .cls-1 {
        fill: #8e99ad;
      }
    </style>
  </defs>
  <path id="wallet-solid" class="cls-1" d="M13.512,34.813H2.344a.469.469,0,0,1,0-.938h11.25a.469.469,0,0,0,.469-.469A1.406,1.406,0,0,0,12.656,32H1.875A1.875,1.875,0,0,0,0,33.875V43.25a1.875,1.875,0,0,0,1.875,1.875H13.512A1.45,1.45,0,0,0,15,43.719v-7.5A1.45,1.45,0,0,0,13.512,34.813Zm-1.324,6.094a.937.937,0,1,1,.937-.937A.938.938,0,0,1,12.188,40.906Z" transform="translate(0 -32)"/>
</svg>
