<?xml version="1.0" encoding="utf-8"?>
<!-- Generator: Adobe Illustrator 19.0.0, SVG Export Plug-In . SVG Version: 6.00 Build 0)  -->
<svg version="1.1" id="Layer_1" xmlns="http://www.w3.org/2000/svg" xmlns:xlink="http://www.w3.org/1999/xlink" x="0px" y="0px"
	 viewBox="-290 382.1 29.9 29.9" style="enable-background:new -290 382.1 29.9 29.9;" xml:space="preserve">
<style type="text/css">
	.st0{fill:#FF6633;}
</style>
<path id="work-in-progress" class="st0" d="M-260.7,405.2l-6.8-6.8c-1.3-1.3-3.3-1.6-5-0.8l-6.2-6.2v-3.6l-7.5-5.6l-3.7,3.7l5.6,7.5
	h3.6l6.2,6.2c-0.8,1.7-0.5,3.7,0.8,5l6.8,6.8c0.8,0.8,2.2,0.9,3.1,0c0,0,0,0,0,0l3.1-3.1C-259.9,407.4-259.9,406.1-260.7,405.2
	L-260.7,405.2z M-270.6,395.2c1.6,0,3.2,0.6,4.4,1.8l1.1,1.1c1-0.4,1.8-1,2.6-1.7c2.1-2.1,2.9-5.1,2.2-8c-0.1-0.4-0.5-0.6-0.9-0.5
	c-0.1,0-0.2,0.1-0.3,0.2l-4.3,4.3l-4-0.7l-0.7-4l4.3-4.3c0.3-0.3,0.3-0.7,0-1c-0.1-0.1-0.2-0.2-0.3-0.2c-2.9-0.7-5.9,0.1-8,2.2
	c-1.6,1.6-2.5,3.8-2.4,6.1l4.8,4.8C-271.6,395.3-271.1,395.2-270.6,395.2L-270.6,395.2z M-276.7,400l-3.3-3.3l-8.9,8.9
	c-1.5,1.5-1.5,3.8,0,5.3s3.8,1.5,5.3,0l7.2-7.2C-276.9,402.5-277,401.2-276.7,400z M-286.3,409.7c-0.8,0-1.4-0.6-1.4-1.4
	s0.6-1.4,1.4-1.4c0.8,0,1.4,0.6,1.4,1.4l0,0C-284.9,409-285.5,409.7-286.3,409.7z"/>
</svg>
