<svg xmlns="http://www.w3.org/2000/svg" viewBox="0 0 27.24 27.241">
  <defs>
    <style>
      .cls-1 {
        fill: #ced4df;
      }
    </style>
  </defs>
  <g id="construction-and-tools" transform="translate(-0.003)">
    <g id="_021---Spanner" data-name="021---Spanner" transform="translate(0.003 0)">
      <path id="Shape" class="cls-1" d="M27.165,5.163a.475.475,0,0,0-.8-.269L22.7,8.558a.944.944,0,0,1-.771.271l-2.411-.263a.944.944,0,0,1-.837-.837l-.263-2.411a.944.944,0,0,1,.271-.771L22.35.884a.475.475,0,0,0-.269-.8,6.14,6.14,0,0,0-6.713,8.267L1.194,21A3.574,3.574,0,1,0,6.241,26.05L18.9,11.876a6.14,6.14,0,0,0,8.267-6.713ZM3.759,24.894a1.409,1.409,0,1,1,1.409-1.409A1.409,1.409,0,0,1,3.759,24.894Z" transform="translate(-0.003 0)"/>
    </g>
  </g>
</svg>
