<svg xmlns="http://www.w3.org/2000/svg" width="18.451" height="18.452" viewBox="0 0 18.451 18.452">
  <path id="work-in-progress" d="M18.01,14.26l-4.22-4.22a2.676,2.676,0,0,0-3.078-.5L6.871,5.7V3.459L2.258,0-.048,2.306,3.411,6.919H5.649L9.491,10.76a2.681,2.681,0,0,0,.5,3.077l4.22,4.22a1.34,1.34,0,0,0,1.9,0l1.9-1.9a1.346,1.346,0,0,0,0-1.9Zm-6.1-6.151a3.791,3.791,0,0,1,2.7,1.117l.7.7a5.1,5.1,0,0,0,1.578-1.063,5.182,5.182,0,0,0,1.366-4.926.431.431,0,0,0-.724-.2L14.842,6.418,12.4,6.011l-.407-2.447L14.669.883a.435.435,0,0,0-.205-.728A5.191,5.191,0,0,0,9.541,1.521,5.107,5.107,0,0,0,8.056,5.254l2.959,2.959a3.926,3.926,0,0,1,.89-.1ZM8.161,11.063,6.118,9.02l-5.492,5.5a2.306,2.306,0,0,0,3.261,3.261l4.454-4.454a3.87,3.87,0,0,1-.18-2.259Zm-5.9,5.946a.865.865,0,1,1,.865-.865A.867.867,0,0,1,2.258,17.009Z" transform="translate(0.05)" fill="#161616"/>
</svg>
