<svg xmlns="http://www.w3.org/2000/svg" width="40" height="32" viewBox="0 0 40 32">
  <path id="user-clock-solid" d="M31,14a9,9,0,1,0,9,9A8.994,8.994,0,0,0,31,14Zm4,9.394a.611.611,0,0,1-.606.606H30.606A.611.611,0,0,1,30,23.394V18.606A.611.611,0,0,1,30.606,18h.787a.611.611,0,0,1,.606.606V22h2.394a.611.611,0,0,1,.606.606v.788ZM20,23a10.961,10.961,0,0,1,1.138-4.844A8.328,8.328,0,0,0,19.6,18H18.556a10.88,10.88,0,0,1-9.112,0H8.4A8.4,8.4,0,0,0,0,26.4V29a3,3,0,0,0,3,3H24.694A11,11,0,0,1,20,23Zm-6-7A8,8,0,1,0,6,8,8,8,0,0,0,14,16Z" fill="#ff7949"/>
</svg>
